<!-- Generator: Adobe Illustrator 22.0.0, SVG Export Plug-In  -->
<svg version="1.1"
	 xmlns="http://www.w3.org/2000/svg" xmlns:xlink="http://www.w3.org/1999/xlink" xmlns:a="http://ns.adobe.com/AdobeSVGViewerExtensions/3.0/"
	 x="0px" y="0px" width="60px" height="60px" viewBox="0 0 60 60" style="overflow:scroll;enable-background:new 0 0 60 60;"
	 xml:space="preserve">
<defs>
</defs>
<g>
	<circle style="opacity:0.4;fill:#E37518;" cx="30" cy="30" r="30"/>
	<circle style="fill:#E37518;" cx="30" cy="30" r="25"/>
	<g>
		<g>
			<defs>
				<rect id="SVGID_1_" x="17" y="17.847" width="26" height="24.306"/>
			</defs>
			<clipPath id="SVGID_2_">
				<use xlink:href="#SVGID_1_"  style="overflow:visible;"/>
			</clipPath>
			<path style="clip-path:url(#SVGID_2_);fill:#FFFFFF;" d="M29.131,31.726h-5.199c-0.479,0-0.866-0.388-0.866-0.866
				c0-0.478,0.388-0.866,0.866-0.866h4.332v-6.065c0-0.479,0.388-0.866,0.866-0.866c0.478,0,0.866,0.388,0.866,0.866v6.932
				c0,0.23-0.091,0.45-0.254,0.613C29.581,31.635,29.36,31.726,29.131,31.726L29.131,31.726z M39.433,27.655
				c0.055,0.471-0.278,0.899-0.748,0.96c-0.47,0.061-0.902-0.267-0.97-0.736c-0.615-4.715-4.65-8.284-9.451-8.284
				c-5.264,0-9.531,4.267-9.531,9.531c0,4.075,2.58,7.659,6.361,8.991c0.299,0.098,0.521,0.349,0.581,0.658
				c0.06,0.308-0.051,0.625-0.291,0.828c-0.24,0.203-0.571,0.259-0.865,0.149C20.013,38.162,17,33.904,17,29.126
				c0-6.221,5.043-11.264,11.264-11.264C33.937,17.862,38.705,22.079,39.433,27.655L39.433,27.655z M36.657,29.929l6.065,9.531
				c0.735,1.154-0.095,2.664-1.462,2.664h-12.13c-1.367,0-2.197-1.509-1.462-2.663l6.065-9.531c0.318-0.5,0.869-0.802,1.462-0.802
				C35.788,29.127,36.339,29.429,36.657,29.929L36.657,29.929z M35.196,30.859l-6.065,9.531h12.13L35.196,30.859z M35.196,33.459
				c0.23,0,0.45,0.091,0.613,0.254c0.163,0.163,0.254,0.383,0.254,0.613v1.733c0,0.479-0.388,0.866-0.866,0.866
				c-0.478,0-0.866-0.388-0.866-0.866v-1.733C34.329,33.847,34.717,33.459,35.196,33.459L35.196,33.459z M35.196,37.791
				c0.479,0,0.866,0.388,0.866,0.866c0,0.478-0.388,0.866-0.866,0.866c-0.478,0-0.866-0.388-0.866-0.866
				C34.329,38.179,34.717,37.791,35.196,37.791L35.196,37.791z M35.196,37.791"/>
		</g>
	</g>
</g>
</svg>
