<!-- Generator: Adobe Illustrator 22.0.0, SVG Export Plug-In  -->
<svg version="1.1"
	 xmlns="http://www.w3.org/2000/svg" xmlns:xlink="http://www.w3.org/1999/xlink" xmlns:a="http://ns.adobe.com/AdobeSVGViewerExtensions/3.0/"
	 x="0px" y="0px" width="60px" height="60px" viewBox="0 0 60 60" style="overflow:scroll;enable-background:new 0 0 60 60;"
	 xml:space="preserve">
<defs>
</defs>
<g>
	<circle style="opacity:0.4;fill:#67C23A;" cx="30" cy="30" r="30"/>
	<circle style="fill:#67C23A;" cx="30" cy="30" r="25"/>
	<g>
		<g>
			<defs>
				<rect id="SVGID_1_" x="18.016" y="17" width="25.967" height="26"/>
			</defs>
			<clipPath id="SVGID_2_">
				<use xlink:href="#SVGID_1_"  style="overflow:visible;"/>
			</clipPath>
			<path style="clip-path:url(#SVGID_2_);fill:#FFFFFF;" d="M37.067,42.967c-3.803,0-6.892-3.09-6.892-6.892
				c0-3.817,3.09-6.892,6.892-6.892s6.892,3.09,6.892,6.892C43.974,39.878,40.884,42.967,37.067,42.967 M37.067,30.79
				c-2.908,0-5.271,2.363-5.271,5.271c0,2.908,2.363,5.271,5.271,5.271c2.908,0,5.271-2.363,5.271-5.271
				C42.338,33.153,39.989,30.79,37.067,30.79 M40.59,34.537l-4.096,4.907c-0.14,0.168-0.405,0.196-0.573,0.056l-0.615-0.517
				L32.817,36.9c-0.168-0.14-0.196-0.405-0.056-0.573l0.517-0.615c0.14-0.168,0.405-0.196,0.573-0.042l2.181,1.817l3.327-3.97
				c0.14-0.168,0.405-0.196,0.573-0.056l0.615,0.517C40.702,34.118,40.73,34.369,40.59,34.537 M39.919,19.438
				c0-0.447-0.363-0.811-0.811-0.811H20.445c-0.447,0-0.811,0.364-0.811,0.811v21.096c0,0.447,0.364,0.811,0.811,0.811h8.109v1.622
				h-8.92c-0.895,0-1.622-0.727-1.622-1.622V18.628c0-0.895,0.727-1.622,1.622-1.622h20.285c0.895,0,1.622,0.727,1.622,1.622v7.298
				h-1.622V19.438z M24.094,34.845h3.243c0.224,0,0.405,0.182,0.405,0.405v0.811c0,0.224-0.182,0.405-0.405,0.405h-3.243
				c-0.224,0-0.405-0.182-0.405-0.405V35.25C23.688,35.026,23.87,34.845,24.094,34.845 M23.688,24.709v-0.811
				c0-0.224,0.182-0.405,0.405-0.405h12.163c0.224,0,0.405,0.182,0.405,0.405v0.811c0,0.224-0.182,0.405-0.405,0.405H24.094
				C23.87,25.114,23.688,24.933,23.688,24.709 M23.688,30.385v-0.811c0-0.224,0.182-0.405,0.405-0.405h5.676
				c0.224,0,0.405,0.182,0.405,0.405v0.811c0,0.224-0.182,0.405-0.405,0.405h-5.676C23.87,30.79,23.688,30.609,23.688,30.385"/>
		</g>
	</g>
</g>
</svg>
