<!-- Generator: Adobe Illustrator 22.0.0, SVG Export Plug-In  -->
<svg version="1.1"
	 xmlns="http://www.w3.org/2000/svg" xmlns:xlink="http://www.w3.org/1999/xlink" xmlns:a="http://ns.adobe.com/AdobeSVGViewerExtensions/3.0/"
	 x="0px" y="0px" width="60px" height="60px" viewBox="0 0 60 60" style="overflow:scroll;enable-background:new 0 0 60 60;"
	 xml:space="preserve">
<defs>
</defs>
<g>
	<circle style="opacity:0.4;fill:#7EDBD0;" cx="30" cy="30" r="30"/>
	<circle style="fill:#7EDBD0;" cx="30" cy="30" r="25"/>
	<g>
		<path style="fill:#FFFFFF;" d="M36.106,18.741c-2.615,0-4.902,1.49-6.097,3.672c-1.178-2.183-3.482-3.672-6.115-3.672
			c-3.811,0-6.894,3.101-6.894,6.929c0,1.819,0.693,3.464,1.836,4.711L29.42,41.017c0.173,0.156,0.381,0.243,0.589,0.243
			c0.208,0,0.416-0.087,0.589-0.243l10.584-10.636C42.307,29.151,43,27.488,43,25.67C43,21.841,39.917,18.741,36.106,18.741
			L36.106,18.741z M39.865,29.255l-9.856,10.012l-9.856-10.012c-0.883-0.935-1.42-2.2-1.42-3.586c0-2.875,2.321-5.197,5.162-5.197
			c2.304,0,4.296,1.524,4.989,3.62c0.173,0.45,0.624,0.779,1.126,0.779c0.52,0,0.953-0.312,1.143-0.762
			c0.676-2.113,2.65-3.638,4.954-3.638c2.858,0,5.162,2.321,5.162,5.197C41.285,27.055,40.748,28.32,39.865,29.255L39.865,29.255z
			 M39.865,29.255"/>
	</g>
</g>
</svg>
