<!-- Generator: Adobe Illustrator 22.0.0, SVG Export Plug-In  -->
<svg version="1.1"
	 xmlns="http://www.w3.org/2000/svg" xmlns:xlink="http://www.w3.org/1999/xlink" xmlns:a="http://ns.adobe.com/AdobeSVGViewerExtensions/3.0/"
	 x="0px" y="0px" width="23.082px" height="37.124px" viewBox="0 0 23.082 37.124"
	 style="overflow:scroll;enable-background:new 0 0 23.082 37.124;" xml:space="preserve">
<defs>
</defs>
<g>
	<path style="fill:#FFFFFF;" d="M3.166,28.333H2.422v3.718c-0.024,1.115-0.192,2.015-0.527,2.711
		C1.535,35.432,0.899,35.961,0,36.368l0.468,0.731c0.936-0.432,1.607-1.02,2.027-1.774c0.419-0.815,0.647-1.907,0.671-3.274V28.333z
		"/>
	<polygon style="fill:#FFFFFF;" points="1.439,27.385 4.125,27.385 4.125,34.065 4.893,34.065 4.893,26.582 0.647,26.582 
		0.647,34.161 1.439,34.161 	"/>
	<path style="fill:#FFFFFF;" d="M9.606,26.126H8.767v2.362h-3.19v0.804h2.818c-0.695,2.207-1.823,4.006-3.382,5.397l0.468,0.768
		c1.487-1.415,2.579-3.166,3.286-5.277v5.469c0,0.384-0.156,0.588-0.444,0.588c-0.456,0-0.936-0.023-1.427-0.06l0.18,0.827h1.547
		c0.647,0,0.983-0.384,0.983-1.14v-6.572h1.379v-0.804H9.606V26.126z"/>
	<path style="fill:#FFFFFF;" d="M3.622,34.485l-0.54,0.527c0.684,0.672,1.224,1.296,1.619,1.896l0.6-0.6
		C4.845,35.709,4.293,35.096,3.622,34.485z"/>
	<path style="fill:#FFFFFF;" d="M17.721,31.403h-0.852c0,0.479-0.048,0.936-0.144,1.367h-3.814v0.779h3.574
		c-0.096,0.24-0.228,0.468-0.372,0.684c-0.624,0.876-1.931,1.607-3.898,2.183l0.576,0.708c2.207-0.695,3.61-1.595,4.222-2.675
		c0.156-0.288,0.288-0.588,0.384-0.899h3.55c-0.036,1.199-0.144,1.943-0.324,2.23c-0.192,0.288-0.636,0.444-1.355,0.456l-1.416-0.06
		l0.216,0.779c0.552,0.024,1.02,0.048,1.403,0.048c0.852,0,1.451-0.204,1.799-0.6c0.348-0.396,0.528-1.607,0.552-3.634h-4.222
		C17.673,32.339,17.721,31.883,17.721,31.403z"/>
	<path style="fill:#FFFFFF;" d="M18.548,30.059c1.104-0.623,2.039-1.379,2.806-2.267v-0.695h-5.229
		c0.168-0.288,0.324-0.588,0.456-0.912l-0.875-0.119c-0.504,1.199-1.487,2.206-2.927,3.034l0.528,0.695
		c0.552-0.336,1.043-0.708,1.499-1.115c0.576,0.504,1.2,0.959,1.871,1.355c-1.319,0.527-2.842,0.911-4.582,1.151l0.396,0.815
		c1.943-0.3,3.658-0.792,5.121-1.463c1.487,0.743,3.178,1.223,5.073,1.438l0.396-0.804C21.415,31.007,19.903,30.635,18.548,30.059z
		 M17.601,29.616c-0.803-0.42-1.547-0.924-2.219-1.512l0.156-0.191h4.581C19.412,28.56,18.572,29.136,17.601,29.616z"/>
	<path style="fill:#FFFFFF;" d="M7.577,1.253h7.925c0.346,0,0.626-0.28,0.626-0.626C16.129,0.28,15.849,0,15.502,0H7.577
		C7.231,0,6.951,0.28,6.951,0.626C6.951,0.971,7.233,1.253,7.577,1.253z"/>
	<path style="fill:#FFFFFF;" d="M4.661,3.756H18.46c0.346,0,0.626-0.28,0.626-0.626c0-0.346-0.28-0.626-0.626-0.626H4.661
		c-0.346,0-0.626,0.28-0.626,0.626C4.034,3.476,4.314,3.756,4.661,3.756z"/>
	<path style="fill:#FFFFFF;" d="M3.733,19.988h15.616c1.21,0,2.192-0.983,2.192-2.192V7.226c0-1.208-0.983-2.192-2.192-2.192H3.733
		c-1.21,0-2.192,0.983-2.192,2.192v10.57C1.541,19.006,2.523,19.988,3.733,19.988z M2.793,7.226c0-0.519,0.421-0.94,0.94-0.94
		h15.616c0.519,0,0.939,0.421,0.939,0.94v10.57c0,0.519-0.421,0.94-0.939,0.94H3.733c-0.519,0-0.94-0.421-0.94-0.94V7.226z"/>
	<path style="fill:#FFFFFF;" d="M8.411,15.539h2.503v1.358c0,0.346,0.28,0.626,0.626,0.626c0.346,0,0.626-0.28,0.626-0.626v-1.358
		h2.507c0.346,0,0.626-0.28,0.626-0.626c0-0.346-0.28-0.626-0.626-0.626h-2.507v-1.125h1.885c0.346,0,0.626-0.28,0.626-0.626
		s-0.28-0.626-0.626-0.626H12.31l1.713-3.492c0.153-0.311,0.024-0.685-0.286-0.838c-0.311-0.153-0.685-0.023-0.838,0.286
		l-1.358,2.768l-1.358-2.768C10.03,7.553,9.654,7.426,9.345,7.579C9.033,7.731,8.906,8.107,9.059,8.417l1.713,3.492H9.029
		c-0.346,0-0.626,0.28-0.626,0.626s0.28,0.626,0.626,0.626h1.885v1.125H8.411c-0.346,0-0.626,0.28-0.626,0.626
		C7.785,15.259,8.065,15.539,8.411,15.539z"/>
</g>
</svg>
