<!-- Generator: Adobe Illustrator 22.0.0, SVG Export Plug-In  -->
<svg version="1.1"
	 xmlns="http://www.w3.org/2000/svg" xmlns:xlink="http://www.w3.org/1999/xlink" xmlns:a="http://ns.adobe.com/AdobeSVGViewerExtensions/3.0/"
	 x="0px" y="0px" width="22.446px" height="37.178px" viewBox="0 0 22.446 37.178"
	 style="overflow:scroll;enable-background:new 0 0 22.446 37.178;" xml:space="preserve">
<defs>
</defs>
<g>
	<path style="fill:#FFFFFF;" d="M5.709,31.997h3.694v-0.791H5.709v-1.764H4.833v1.764H1.739c0.647-0.792,1.235-1.691,1.775-2.711
		h6.536v-0.84H3.934c0.204-0.455,0.408-0.923,0.6-1.415L3.67,26.048c-0.216,0.563-0.444,1.103-0.671,1.606H0.18v0.84h2.398
		c-0.588,1.079-1.235,1.991-1.931,2.711l0.192,0.791h3.994v1.763H0v0.84h4.833v2.579h0.875v-2.579h4.545v-0.84H5.709V31.997z"/>
	<path style="fill:#FFFFFF;" d="M22.446,27.547v-0.815H16.15v0.815h1.991l-0.036,1.871h-1.727v7.676h0.756v-6.896h0.947
		c0,0.06-0.012,0.132-0.012,0.216c-0.084,1.703-0.36,3.059-0.84,4.065l0.468,0.6c0.348-0.695,0.612-1.511,0.792-2.422
		c0.144,0.287,0.3,0.659,0.492,1.103l0.36-0.563c-0.24-0.479-0.492-0.911-0.731-1.295c0.048-0.36,0.084-0.744,0.108-1.14
		c0-0.18,0.012-0.372,0.036-0.563h1.055l-0.024,0.468c-0.096,1.835-0.408,3.298-0.923,4.378l0.468,0.6
		c0.432-0.852,0.744-1.859,0.936-3.022c0.192,0.479,0.432,1.115,0.695,1.883l0.408-0.611c-0.335-0.768-0.66-1.452-0.995-2.075
		l0.072-0.804c0.012-0.252,0.024-0.527,0.048-0.815h0.9v5.445c0,0.396-0.168,0.6-0.492,0.6l-1.127-0.036l0.204,0.779h1.175
		c0.66,0,0.996-0.396,0.996-1.163v-6.404h-1.631c0.024-0.552,0.036-1.176,0.036-1.871H22.446z M19.832,29.418h-1.055l0.036-1.871
		h1.043L19.832,29.418z"/>
	<path style="fill:#FFFFFF;" d="M14.699,31.985h1.163v-0.756h-1.163v-1.811h-0.792v1.811h-1.211
		c0.312-0.779,0.611-1.691,0.875-2.723h2.338v-0.815h-2.135c0.096-0.456,0.204-0.947,0.312-1.475l-0.828-0.133
		c-0.108,0.552-0.216,1.092-0.324,1.607H11.82v0.815h0.923c-0.288,1.104-0.588,2.015-0.912,2.734l0.18,0.744h1.895v1.823
		c-0.719,0.144-1.475,0.264-2.291,0.384l0.108,0.815c0.756-0.12,1.487-0.252,2.183-0.396v2.519h0.792v-2.698
		c0.432-0.107,0.852-0.228,1.271-0.359V33.28c-0.396,0.12-0.815,0.229-1.271,0.348V31.985z"/>
	<path style="fill:#FFFFFF;" d="M8.723,3.75h5c0.69-0.002,1.248-0.56,1.25-1.25V1.25c0-0.75-0.624-1.25-1.25-1.25h-5
		c-0.624,0-1.25,0.5-1.25,1.25V2.5C7.475,3.19,8.033,3.748,8.723,3.75z M8.723,1.25h5V2.5h-5V1.25z"/>
	<path style="fill:#FFFFFF;" d="M5.656,14.427h1.911v1.233h1.25v-1.233h5v1.233h1.25v-1.233h1.956v-4.141H17.02l-1.259-0.969
		l-0.643-2.76H7.767l-0.826,2.88L5.656,10.25V14.427z M8.709,7.807h5.42l0.3,1.297H8.337L8.709,7.807z M6.903,10.939l0.926-0.586
		h7.229l0.714,0.549v2.276H6.903V10.939z"/>
	<path style="fill:#FFFFFF;" d="M4.973,20h12.5c1.374,0,2.5-1.126,2.5-2.5V3.75c0-1.376-1.126-2.5-2.5-2.5h-1.126V2.5h1.126
		c0.75,0,1.25,0.5,1.25,1.25V17.5c0,0.626-0.5,1.25-1.25,1.25h-12.5c-0.75,0-1.25-0.5-1.25-1.25V3.75c0-0.626,0.5-1.25,1.25-1.25
		h1.25V1.25h-1.25c-1.376,0-2.5,1.126-2.5,2.5V17.5C2.473,18.876,3.599,20,4.973,20z"/>
	<rect x="13.192" y="11.329" style="fill:#FFFFFF;" width="1.25" height="1.25"/>
	<rect x="8.192" y="11.329" style="fill:#FFFFFF;" width="1.25" height="1.25"/>
</g>
</svg>
