<!-- Generator: Adobe Illustrator 22.0.0, SVG Export Plug-In  -->
<svg version="1.1"
	 xmlns="http://www.w3.org/2000/svg" xmlns:xlink="http://www.w3.org/1999/xlink" xmlns:a="http://ns.adobe.com/AdobeSVGViewerExtensions/3.0/"
	 x="0px" y="0px" width="22.89px" height="37.091px" viewBox="0 0 22.89 37.091"
	 style="overflow:scroll;enable-background:new 0 0 22.89 37.091;" xml:space="preserve">
<defs>
</defs>
<g>
	<path style="fill:#FFFFFF;" d="M9.762,35.964c-0.192,0-0.348-0.276-0.479-0.815c-0.144-0.552-0.204-1.812-0.204-3.778v-4.797h-7.76
		v4.653C1.283,33.337,0.839,35.101,0,36.504l0.719,0.587c0.948-1.583,1.439-3.538,1.463-5.864v-3.814h6.009v3.958
		c0,2.255,0.132,3.742,0.419,4.474c0.264,0.744,0.672,1.128,1.248,1.128c0.216,0,0.42-0.145,0.6-0.433
		c0.168-0.335,0.324-0.947,0.468-1.847l-0.768-0.372C10.05,35.412,9.918,35.964,9.762,35.964z"/>
	<path style="fill:#FFFFFF;" d="M7.388,28.563L6.536,28.42c-0.288,1.031-0.671,2.003-1.151,2.902
		c-0.587-0.791-1.235-1.619-1.931-2.482l-0.708,0.432c0.78,0.983,1.5,1.931,2.147,2.854c-0.72,1.079-1.619,2.015-2.687,2.83
		l0.576,0.731c1.031-0.779,1.907-1.702,2.65-2.782c0.6,0.888,1.127,1.751,1.607,2.579l0.779-0.528
		c-0.516-0.875-1.139-1.835-1.871-2.866C6.548,31.034,7.028,29.859,7.388,28.563z"/>
	<path style="fill:#FFFFFF;" d="M22.578,27.412H19.76c-0.192-0.539-0.396-1.02-0.6-1.451l-0.875,0.145
		c0.216,0.384,0.42,0.827,0.612,1.307h-2.974v2.268h0.815v-1.487h5.037v1.487h0.804V27.412z"/>
	<path style="fill:#FFFFFF;" d="M19.627,29.224c0.72,0.768,1.367,1.655,1.955,2.639l0.755-0.384
		c-0.576-0.936-1.235-1.799-1.979-2.566L19.627,29.224z"/>
	<path style="fill:#FFFFFF;" d="M16.005,31.418l0.624,0.54c0.899-0.624,1.619-1.535,2.17-2.723l-0.755-0.3
		C17.589,29.967,16.905,30.795,16.005,31.418z"/>
	<path style="fill:#FFFFFF;" d="M14.422,29.224h0.996v-0.828h-0.996v-2.29h-0.887v2.29h-1.463v0.828h1.463v2.687
		c-0.54,0.191-1.092,0.359-1.655,0.504l0.216,0.863c0.48-0.156,0.959-0.324,1.439-0.504v2.902c0,0.336-0.156,0.516-0.468,0.516
		c-0.3,0-0.612-0.023-0.936-0.048l0.18,0.84h1.056c0.695,0,1.055-0.372,1.055-1.092v-3.49c0.348-0.155,0.696-0.323,1.043-0.491
		v-0.876c-0.336,0.181-0.684,0.348-1.043,0.516V29.224z"/>
	<polygon style="fill:#FFFFFF;" points="19.7,35.844 19.7,33.241 22.446,33.241 22.446,32.438 16.042,32.438 16.042,33.241 
		18.836,33.241 18.836,35.844 15.562,35.844 15.562,36.684 22.89,36.684 22.89,35.844 	"/>
	<path style="fill:#FFFFFF;" d="M7.399,8.891h8.072c0.526,0,0.952-0.314,0.952-0.701c0-0.385-0.426-0.699-0.952-0.699H7.399
		c-0.526,0-0.952,0.314-0.952,0.699C6.446,8.576,6.873,8.891,7.399,8.891z"/>
	<path style="fill:#FFFFFF;" d="M13.381,1.51c3.203,0.804,5.629,3.337,6.323,6.613c0.487,2.248,0.066,4.599-1.174,6.538
		c-1.218,1.932-3.162,3.296-5.393,3.78c-0.38,0.088-0.633,0.443-0.592,0.831c0.039,0.387,0.363,0.682,0.753,0.684l4.243-0.007
		c0.202-0.002,0.397-0.083,0.538-0.226c0.144-0.144,0.222-0.339,0.219-0.541c0-0.424-0.341-0.767-0.758-0.767h-0.563
		c1.128-0.777,2.088-1.773,2.821-2.93c1.459-2.28,1.956-5.047,1.386-7.692c-0.818-3.849-3.668-6.827-7.444-7.77
		c-0.407-0.095-0.816,0.158-0.916,0.565C12.726,0.996,12.974,1.408,13.381,1.51z"/>
	<path style="fill:#FFFFFF;" d="M7.399,12.478h8.072c0.526,0,0.952-0.314,0.952-0.701c0-0.385-0.426-0.699-0.952-0.699H7.399
		c-0.526,0-0.952,0.314-0.952,0.701C6.446,12.164,6.873,12.478,7.399,12.478z"/>
	<path style="fill:#FFFFFF;" d="M9.131,19.932c0.058,0.017,0.119,0.024,0.18,0.024c0.351-0.005,0.653-0.246,0.733-0.59
		c0.102-0.409-0.144-0.823-0.553-0.928c-3.206-0.801-5.631-3.335-6.326-6.606C2.678,9.585,3.1,7.234,4.339,5.295
		C5.557,3.364,7.499,2,9.732,1.515c0.38-0.088,0.633-0.443,0.592-0.831C10.283,0.297,9.956,0,9.571,0H5.331
		C5.129,0,4.934,0.083,4.792,0.227C4.651,0.373,4.573,0.568,4.576,0.77C4.573,1.189,4.912,1.53,5.331,1.534h0.563
		C4.763,2.312,3.804,3.31,3.07,4.467C1.614,6.75,1.117,9.514,1.687,12.159C2.505,16.01,5.355,18.987,9.131,19.932z"/>
</g>
</svg>
