<!-- Generator: Adobe Illustrator 22.0.0, SVG Export Plug-In  -->
<svg version="1.1"
	 xmlns="http://www.w3.org/2000/svg" xmlns:xlink="http://www.w3.org/1999/xlink" xmlns:a="http://ns.adobe.com/AdobeSVGViewerExtensions/3.0/"
	 x="0px" y="0px" width="34.542px" height="36.454px" viewBox="0 0 34.542 36.454"
	 style="overflow:scroll;enable-background:new 0 0 34.542 36.454;" xml:space="preserve">
<defs>
</defs>
<g>
	<path style="fill:#FFFFFF;" d="M17.274,4.015c-0.36,0.016-0.665,0.291-0.665,0.664v6.658c0,0.348,0.306,0.679,0.664,0.664
		c0.36-0.016,0.665-0.291,0.665-0.664V4.68C17.938,4.332,17.632,4,17.274,4.015z"/>
	<path style="fill:#FFFFFF;" d="M21.27,6.671c-0.36,0.016-0.664,0.291-0.664,0.664v4.001c0,0.348,0.306,0.679,0.664,0.664
		c0.361-0.016,0.664-0.291,0.664-0.664V7.335C21.933,6.987,21.629,6.653,21.27,6.671z"/>
	<path style="fill:#FFFFFF;" d="M13.277,5.339c-0.361,0.016-0.664,0.291-0.664,0.664v5.33c0,0.349,0.306,0.679,0.664,0.664
		c0.36-0.016,0.664-0.291,0.664-0.664v-5.33C13.941,5.655,13.635,5.325,13.277,5.339z"/>
	<path style="fill:#FFFFFF;" d="M22.611,17.329h-4.674v-2.665h7.838c0.015,0,0.029,0,0.043-0.002
		c0.805-0.034,1.442-0.691,1.453-1.497v-0.133V1.598c0-0.155-0.01-0.306-0.043-0.461c-0.152-0.667-0.787-1.127-1.456-1.137
		c-0.134-0.002-0.272,0-0.41,0H8.858c-0.048,0-0.096-0.002-0.144,0.002c-0.39,0.028-0.773,0.18-1.038,0.478
		C7.422,0.767,7.281,1.116,7.274,1.5c-0.002,0.178,0,0.352,0,0.53v10.711c0,0.277-0.021,0.575,0.058,0.842
		c0.192,0.637,0.777,1.075,1.442,1.081h7.836v2.666h-3.359c-0.431,0-0.863-0.008-1.294,0h-0.019c-0.348,0-0.679,0.306-0.664,0.664
		c0.016,0.361,0.291,0.665,0.664,0.665h9.361c0.431,0,0.863,0.008,1.294,0h0.019c0.348,0,0.679-0.306,0.664-0.664
		C23.259,17.634,22.984,17.329,22.611,17.329z M8.75,13.334l-0.045-0.012c-0.013-0.007-0.025-0.015-0.038-0.023
		c-0.01-0.01-0.021-0.019-0.03-0.03l-0.022-0.037c-0.004-0.016-0.01-0.033-0.013-0.049c-0.004-0.102,0-0.207,0-0.306v-9.97
		c0-0.465-0.002-0.929,0-1.394c0-0.01,0-0.022,0.002-0.033l0.013-0.046C8.623,1.42,8.632,1.408,8.64,1.395
		c0.011-0.01,0.019-0.021,0.03-0.03l0.037-0.022c0.016-0.004,0.034-0.01,0.052-0.015c0.148-0.008,0.3,0,0.448,0h16.588l0.046,0.013
		c0.013,0.007,0.025,0.015,0.037,0.023c0.01,0.01,0.021,0.019,0.03,0.03l0.022,0.037c0.005,0.016,0.01,0.033,0.013,0.049
		c0.004,0.102,0,0.207,0,0.306v9.971c0,0.465,0.002,0.929,0,1.394c0,0.01,0,0.022-0.002,0.033l-0.013,0.046
		c-0.006,0.012-0.015,0.025-0.022,0.037c-0.01,0.01-0.019,0.021-0.03,0.03l-0.037,0.022l-0.046,0.013h-0.479
		c-0.415,0.002-0.832,0.002-1.247,0.002l0.001-0.001H8.75z"/>
	<polygon style="fill:#FFFFFF;" points="5.697,27.099 9.883,27.099 9.883,26.26 0.636,26.26 0.636,27.099 4.81,27.099 4.81,35.039 
		0,35.039 0,35.879 10.398,35.879 10.398,35.039 5.697,35.039 	"/>
	<path style="fill:#FFFFFF;" d="M17.961,25.564l-0.864-0.192c-0.671,2.027-1.547,3.67-2.603,4.917l0.612,0.731
		c0.72-0.863,1.355-1.871,1.907-3.034h0.648v8.467h0.875V33.66h3.574v-0.828h-3.574v-2.027h3.502v-0.84h-3.502v-1.979h4.03v-0.852
		h-5.181C17.577,26.644,17.769,26.116,17.961,25.564z"/>
	<path style="fill:#FFFFFF;" d="M14.458,25.408c-0.587,1.823-1.535,3.43-2.83,4.833l0.288,0.912
		c0.456-0.456,0.875-0.936,1.259-1.439v6.74h0.888v-8.036c0.479-0.815,0.888-1.691,1.211-2.626L14.458,25.408z"/>
	<path style="fill:#FFFFFF;" d="M31.664,26.739l-0.78,0.372c0.479,0.551,0.947,1.163,1.403,1.811
		c-2.063,0.192-4.246,0.348-6.548,0.443c1.079-0.887,2.17-2.111,3.25-3.646l-0.887-0.3c-1.56,2.291-2.867,3.622-3.922,3.982
		l0.167,0.815c3.119-0.12,5.937-0.288,8.468-0.516c0.288,0.456,0.587,0.923,0.887,1.427l0.84-0.408
		C33.655,29.27,32.695,27.939,31.664,26.739z"/>
	<path style="fill:#FFFFFF;" d="M25.199,36.454h0.875v-0.6h6.261v0.6h0.875v-5.001h-8.012V36.454z M26.075,32.28h6.261v2.747h-6.261
		V32.28z"/>
</g>
</svg>
