<!-- Generator: Adobe Illustrator 22.0.0, SVG Export Plug-In  -->
<svg version="1.1"
	 xmlns="http://www.w3.org/2000/svg" xmlns:xlink="http://www.w3.org/1999/xlink" xmlns:a="http://ns.adobe.com/AdobeSVGViewerExtensions/3.0/"
	 x="0px" y="0px" width="22.435px" height="37.086px" viewBox="0 0 22.435 37.086"
	 style="overflow:scroll;enable-background:new 0 0 22.435 37.086;" xml:space="preserve">
<defs>
</defs>
<g>
	<path style="fill:#FFFFFF;" d="M5.937,26.088H5.313C3.898,27.755,2.135,29.146,0,30.273l0.456,0.828
		c2.135-1.199,3.862-2.603,5.169-4.234c1.416,1.728,3.119,3.131,5.121,4.21l0.468-0.827C9.223,29.242,7.46,27.851,5.937,26.088z"/>
	<path style="fill:#FFFFFF;" d="M1.835,37.086h0.839v-0.72h5.901v0.72h0.839v-4.833h-7.58V37.086z M2.675,33.068h5.901v2.471H2.675
		V33.068z"/>
	<rect x="2.507" y="29.902" style="fill:#FFFFFF;" width="6.237" height="0.827"/>
	<path style="fill:#FFFFFF;" d="M12.816,26.567v10.519h0.863v-9.679h7.892v8.275c0,0.36-0.156,0.54-0.456,0.54l-1.559-0.036
		l0.24,0.863h1.595c0.695,0,1.043-0.396,1.043-1.175v-9.308H12.816z"/>
	<path style="fill:#FFFFFF;" d="M20.036,30.886h-4.809v3.861h4.809V30.886z M19.196,33.979h-3.13v-2.314h3.13V33.979z"/>
	<rect x="14.555" y="28.786" style="fill:#FFFFFF;" width="6.153" height="0.804"/>
	<path style="fill:#FFFFFF;" d="M10.622,18.612H3.063c-0.214,0-0.428-0.214-0.428-0.428V1.783c0-0.214,0.214-0.428,0.428-0.428
		H17.61c0.214,0,0.428,0.214,0.428,0.428V8.7c0,0.357,0.285,0.642,0.642,0.642c0.357,0,0.713-0.357,0.713-0.642V1.141
		C19.393,0.499,18.894,0,18.252,0H2.421C1.779,0,1.28,0.499,1.28,1.141v17.685c0,0.642,0.499,1.141,1.141,1.07h8.201
		c0.357,0,0.642-0.285,0.642-0.642C11.264,18.898,10.978,18.612,10.622,18.612z"/>
	<path style="fill:#FFFFFF;" d="M15.828,7.131c0.143-0.143,0.143-0.428,0-0.642c-0.143-0.214-0.357-0.357-0.57-0.357H5.273
		c-0.357,0-0.642,0.285-0.642,0.642c0,0.357,0.285,0.642,0.642,0.713h9.984C15.471,7.488,15.685,7.345,15.828,7.131z"/>
	<path style="fill:#FFFFFF;" d="M20.106,19.967c0.642,0,1.141-0.499,0.998-1.141v-1.783c0-0.642-0.499-1.141-1.141-1.141h-0.713
		l-1.212-2.139c0.713-0.499,0.927-1.355,0.642-2.211c-0.285-0.856-1.07-1.355-1.925-1.355c-0.784,0-1.569,0.571-1.854,1.355
		c-0.285,0.784,0,1.64,0.642,2.211l-1.212,2.139h-0.713c-0.642,0-1.141,0.499-1.141,1.141v1.783c0,0.642,0.499,1.141,1.141,1.141
		H20.106z M16.897,11.624c0.357,0,0.642,0.285,0.642,0.642c0,0.357-0.285,0.642-0.642,0.642c-0.357,0-0.642-0.285-0.642-0.642
		C16.255,11.909,16.541,11.624,16.897,11.624z M16.897,14.262l0.927,1.64h-1.926L16.897,14.262z M13.902,17.757
		c0-0.214,0.214-0.428,0.428-0.428h5.134c0.214,0,0.428,0.214,0.428,0.428v0.428c0,0.214-0.214,0.428-0.428,0.428H14.33
		c-0.214,0-0.428-0.214-0.428-0.428V17.757z"/>
	<path style="fill:#FFFFFF;" d="M13.189,10.411c0.143-0.143,0.214-0.357,0.214-0.499c0-0.357-0.285-0.642-0.642-0.642H5.273
		c-0.357,0-0.642,0.285-0.642,0.642c0,0.214,0.071,0.357,0.214,0.499c0.143,0.143,0.357,0.214,0.499,0.214h7.488
		C12.975,10.625,13.118,10.554,13.189,10.411z"/>
	<path style="fill:#FFFFFF;" d="M5.345,12.551c-0.214,0-0.428,0.214-0.57,0.357c-0.143,0.143-0.143,0.428,0,0.642
		c0.143,0.214,0.357,0.357,0.57,0.357h4.92c0.214,0,0.428-0.143,0.571-0.357c0.143-0.143,0.143-0.428,0-0.642
		s-0.357-0.357-0.571-0.357H5.345z"/>
</g>
</svg>
