<!-- Generator: Adobe Illustrator 22.0.0, SVG Export Plug-In  -->
<svg version="1.1"
	 xmlns="http://www.w3.org/2000/svg" xmlns:xlink="http://www.w3.org/1999/xlink" xmlns:a="http://ns.adobe.com/AdobeSVGViewerExtensions/3.0/"
	 x="0px" y="0px" width="60px" height="60px" viewBox="0 0 60 60" style="overflow:scroll;enable-background:new 0 0 60 60;"
	 xml:space="preserve">
<defs>
</defs>
<circle style="fill:#1890FF;" cx="30" cy="30" r="25"/>
<circle style="opacity:0.4;fill:#1890FF;" cx="30" cy="30" r="30"/>
<path style="fill:#FFFFFF;" d="M30,18.733c2.206-0.004,4.107,1.552,4.54,3.715c0.433,2.163-0.723,4.331-2.761,5.176
	c-2.038,0.845-4.389,0.133-5.614-1.701c-1.226-1.834-0.984-4.279,0.577-5.838C27.602,19.216,28.776,18.729,30,18.733 M30,17
	c-3.51,0-6.356,2.845-6.356,6.356c0,3.51,2.845,6.355,6.356,6.355c3.51,0,6.355-2.845,6.355-6.355C36.356,19.845,33.51,17,30,17
	L30,17z M35.2,31.988c1.35,0.015,2.632,0.598,3.53,1.606c0.472,0.526,0.842,1.135,1.092,1.797c0.329,0.764,0.524,1.579,0.578,2.409
	v1.733c-0.046,0.5-0.281,0.963-0.659,1.294c-0.283,0.287-0.671,0.446-1.075,0.439H21.333c-0.403,0.007-0.792-0.152-1.075-0.439
	c-0.377-0.331-0.613-0.794-0.659-1.294V37.8c0.054-0.83,0.249-1.645,0.578-2.409c0.269-0.666,0.661-1.276,1.156-1.797
	c0.883-0.992,2.139-1.573,3.467-1.606h0.901l2.652,2.889c0.437,0.428,1.036,0.651,1.647,0.612c0.606,0.031,1.197-0.198,1.624-0.63
	l2.669-2.889H35.2 M33.467,30.289l-3.212,3.299c-0.069,0.069-0.156,0.168-0.254,0.168c-0.098,0-0.197-0.098-0.26-0.168l-3.207-3.299
	c-0.577-0.035-1.156-0.035-1.733,0c-3.819,0-6.933,3.386-6.933,7.511v1.653c-0.022,0.933,0.334,1.836,0.986,2.504
	C19.506,42.624,20.4,43,21.333,43h17.333c0.933,0,1.828-0.376,2.48-1.044c0.653-0.668,1.008-1.57,0.986-2.504v-1.832
	c0-3.865-3.114-7.332-6.933-7.332C34.623,30.254,34.044,30.254,33.467,30.289L33.467,30.289z M33.467,30.289"/>
</svg>
