<!-- Generator: Adobe Illustrator 22.0.0, SVG Export Plug-In  -->
<svg version="1.1"
	 xmlns="http://www.w3.org/2000/svg" xmlns:xlink="http://www.w3.org/1999/xlink" xmlns:a="http://ns.adobe.com/AdobeSVGViewerExtensions/3.0/"
	 x="0px" y="0px" width="60px" height="60px" viewBox="0 0 60 60" style="overflow:scroll;enable-background:new 0 0 60 60;"
	 xml:space="preserve">
<defs>
</defs>
<g>
	<circle style="fill:#F96270;" cx="30" cy="30" r="30"/>
	<path style="fill:#FFFFFF;" d="M41.825,24.447c-0.893-0.911-1.822-1.734-2.785-2.417c-0.158-0.123-0.298-0.228-0.438-0.315
		c1.366-0.683,2.277-1.927,2.277-3.364c0-2.26-2.207-3.994-4.817-3.994c-0.596,0-1.156,0.105-1.647,0.298
		c-0.245,0.088-0.42,0.175-0.561,0.263c-0.07,0.035-0.263-0.018-0.333-0.105c-0.193-0.298-0.491-0.631-0.928-0.999
		c-0.736-0.631-1.612-1.034-2.575-1.121c-0.999,0.088-1.857,0.491-2.593,1.121c-0.42,0.368-0.736,0.701-0.929,0.999
		c-0.07,0.088-0.263,0.14-0.333,0.105c-0.14-0.088-0.315-0.175-0.561-0.263c-0.49-0.193-1.051-0.298-1.647-0.298
		c-2.628,0.018-4.835,1.734-4.835,3.994c0,1.436,0.911,2.68,2.277,3.364c-0.14,0.088-0.28,0.193-0.438,0.315
		c-0.963,0.683-1.909,1.507-2.785,2.417c-2.593,2.645-4.169,5.676-4.169,9.057c0,9.355,7.182,13.804,15.836,13.804h0.315
		c8.654,0,15.836-4.45,15.836-13.804C45.994,30.123,44.4,27.092,41.825,24.447z M35.553,33.661v0.017h-4.012v1.542h2.961
		c0.841,0,1.542,0.683,1.542,1.541c0,0.841-0.683,1.542-1.542,1.542h-2.961v2.382c0,0.841-0.683,1.542-1.541,1.542
		c-0.841,0-1.541-0.683-1.541-1.542v-2.4h-3.101c-0.841,0-1.542-0.683-1.542-1.542c0-0.841,0.683-1.541,1.542-1.541h3.083v-1.542
		h-3.994c-0.841,0-1.541-0.683-1.541-1.542c0-0.841,0.683-1.541,1.541-1.541h1.822l-2.89-2.89c-0.613-0.613-0.613-1.577,0-2.19
		c0.613-0.613,1.577-0.613,2.19,0L30,29.93l4.432-4.432c0.613-0.613,1.577-0.613,2.19,0c0.613,0.613,0.613,1.577,0,2.19l-2.89,2.89
		h1.822c0.841,0,1.541,0.683,1.541,1.541C37.095,32.96,36.412,33.661,35.553,33.661z"/>
</g>
</svg>
