<!-- Generator: Adobe Illustrator 22.0.0, SVG Export Plug-In  -->
<svg version="1.1"
	 xmlns="http://www.w3.org/2000/svg" xmlns:xlink="http://www.w3.org/1999/xlink" xmlns:a="http://ns.adobe.com/AdobeSVGViewerExtensions/3.0/"
	 x="0px" y="0px" width="60px" height="60px" viewBox="0 0 60 60" style="overflow:scroll;enable-background:new 0 0 60 60;"
	 xml:space="preserve">
<defs>
</defs>
<g>
	<circle style="fill:#47D6C2;" cx="30" cy="30" r="30"/>
	<g>
		<g>
			<defs>
				<rect id="SVGID_1_" x="13.132" y="12.692" width="33.736" height="34.615"/>
			</defs>
			<clipPath id="SVGID_2_">
				<use xlink:href="#SVGID_1_"  style="overflow:visible;"/>
			</clipPath>
			<path style="clip-path:url(#SVGID_2_);fill:#FFFFFF;" d="M46.404,37.916c-0.361-0.32-0.832-0.489-1.315-0.471
				c-1.066,0.08-2.091,0.447-2.967,1.061c-3.17,1.982-4.921,2.988-6.805,2.995c-1.123-0.045-2.228-0.301-3.257-0.755
				c0.048-0.005,0.095-0.011,0.143-0.018l-0.288-0.105c-1.821-0.675-2.995-1.146-3.719-1.54c-0.2-0.098-0.389-0.215-0.566-0.35
				c-0.061-0.048-0.121-0.097-0.179-0.149l-0.415-0.422l0.492-0.703l0.232-0.07c0.264-0.092,0.543-0.132,0.823-0.119
				c1.334,0.128,2.647,0.421,3.909,0.871c0.619,0.19,1.209,0.366,1.68,0.478c0.311,0.074,0.629,0.112,0.949,0.112
				c1.483,0,2.615-0.9,2.629-2.109c0.008-0.682-0.348-1.265-0.978-1.722c-0.49-0.364-1.151-0.65-1.939-0.844
				c-0.956-0.232-1.772-0.457-2.51-0.661c-1.622-0.536-3.312-0.841-5.019-0.907c-0.678,0.005-1.354,0.056-2.025,0.155
				c-1.981,0.379-3.883,1.092-5.624,2.109c0.011,0.016,0.023,0.032,0.034,0.048c-1.84,1.007-3.847,2.337-5.939,3.952
				c-0.101,0.089-0.212,0.167-0.33,0.232l-0.288,0.183c-0.134,2.109,2.875,6.629,4.858,7.227c0.096-0.037,0.19-0.079,0.281-0.127
				l0.105-0.042c0.554-0.182,1.117-0.334,1.687-0.457c1.309-0.292,2.645-0.445,3.986-0.457c1.28,0.081,2.541,0.354,3.74,0.808
				c1.896,0.69,3.889,1.077,5.905,1.146c3.937,0,6.763-2.109,9.034-3.789c0.646-0.505,1.32-0.974,2.018-1.406
				c1.343-0.801,2.109-1.905,2.109-3.016C46.86,38.63,46.698,38.221,46.404,37.916L46.404,37.916z M46.404,37.916"/>
			<path style="clip-path:url(#SVGID_2_);fill:#FFFFFF;" d="M25.082,31.293c0.738-0.108,1.483-0.164,2.228-0.169
				c0.996,0.009,1.988,0.125,2.96,0.344V29.43h-3.396c-0.331,0-0.638-0.177-0.804-0.464c-0.166-0.287-0.166-0.641,0-0.928
				c0.166-0.287,0.472-0.464,0.804-0.464h3.403v-1.652h-3.403c-0.225,0.39-0.698,0.562-1.121,0.408
				c-0.423-0.154-0.674-0.589-0.596-1.033c0.078-0.443,0.463-0.767,0.913-0.767c0.166-0.287,0.472-0.464,0.804-0.464h1.638
				l-1.645-3.396c-0.11-0.222-0.126-0.48-0.044-0.714c0.082-0.234,0.255-0.426,0.48-0.53c0.466-0.222,1.024-0.028,1.251,0.436
				l2.039,4.218h0.991l2.039-4.218c0.233-0.461,0.79-0.655,1.258-0.436c0.224,0.106,0.396,0.298,0.477,0.531
				c0.082,0.234,0.067,0.49-0.042,0.713l-1.652,3.396h1.877c0.332,0,0.638,0.177,0.804,0.464c0.166,0.287,0.166,0.641,0,0.928
				c-0.166,0.287-0.472,0.464-0.804,0.464h-3.395v1.652h3.395c0.332,0,0.638,0.177,0.804,0.464c0.166,0.287,0.166,0.641,0,0.928
				c-0.166,0.287-0.472,0.464-0.804,0.464h-3.395v2.348c0.004,0.049,0.004,0.099,0,0.148l0.576,0.155
				c0.703,0.197,1.533,0.415,2.468,0.647c2.426,0.576,3.951,2.109,3.965,3.909c-0.011,0.954-0.434,1.856-1.16,2.474
				c4.999-2.734,7.854-8.214,7.229-13.878c-0.625-5.663-4.606-10.39-10.081-11.968c-5.475-1.578-11.361,0.304-14.904,4.766
				c-3.543,4.462-4.044,10.621-1.267,15.597C20.862,32.509,22.928,31.719,25.082,31.293L25.082,31.293z M25.082,31.293"/>
		</g>
	</g>
</g>
</svg>
