<!-- Generator: Adobe Illustrator 22.0.0, SVG Export Plug-In  -->
<svg version="1.1"
	 xmlns="http://www.w3.org/2000/svg" xmlns:xlink="http://www.w3.org/1999/xlink" xmlns:a="http://ns.adobe.com/AdobeSVGViewerExtensions/3.0/"
	 x="0px" y="0px" width="60px" height="60px" viewBox="0 0 60 60" style="overflow:scroll;enable-background:new 0 0 60 60;"
	 xml:space="preserve">
<defs>
</defs>
<g>
	<circle style="fill:#0254FE;" cx="30" cy="30" r="30"/>
	<g>
		<path style="fill:#FFFFFF;" d="M32.423,30.824c2.802-1.319,4.698-4.121,4.698-7.417c0-4.533-3.709-8.242-8.242-8.242
			c-4.533,0-8.242,3.709-8.242,8.242c0,3.297,1.978,6.099,4.78,7.417c-5.44,0.412-9.725,4.945-9.725,10.385v0.659
			c0,2.967,4.615,2.967,10.467,2.967h6.181c5.604,0,10.467,0,10.467-2.967v-0.659C42.89,35.522,38.192,30.824,32.423,30.824z"/>
		<path style="fill:#FFFFFF;" d="M49.071,27.528h-2.06v-2.061c0-0.659-0.577-1.236-1.236-1.236c-0.659,0-1.236,0.577-1.236,1.236
			v2.061h-2.06c-0.659,0-1.236,0.577-1.236,1.236c0,0.659,0.577,1.236,1.236,1.236h2.06v2.061c0,0.659,0.577,1.236,1.236,1.236
			c0.659,0,1.236-0.577,1.236-1.236V30h2.06c0.659,0,1.236-0.577,1.236-1.236C50.308,28.104,49.731,27.528,49.071,27.528z"/>
	</g>
</g>
</svg>
