<!-- Generator: Adobe Illustrator 22.0.0, SVG Export Plug-In  -->
<svg version="1.1"
	 xmlns="http://www.w3.org/2000/svg" xmlns:xlink="http://www.w3.org/1999/xlink" xmlns:a="http://ns.adobe.com/AdobeSVGViewerExtensions/3.0/"
	 x="0px" y="0px" width="60px" height="60px" viewBox="0 0 60 60" style="overflow:scroll;enable-background:new 0 0 60 60;"
	 xml:space="preserve">
<defs>
</defs>
<g>
	<circle style="fill:#0254FE;" cx="30" cy="30" r="30"/>
	<path style="fill:#FFFFFF;" d="M44.004,25.51l-2.101-6.576c-0.386-1.802-2.059-3.088-3.86-3.088H22.601
		c-1.93,0-3.603,1.158-4.118,2.96l-2.384,6.697c-1.846,0.1-3.407,1.609-3.407,3.597v9.008c0,0.515,0.386,0.772,0.772,0.772h2.574
		v3.86c0,0.772,0.643,1.416,1.415,1.416h1.544c0.772,0,1.416-0.643,1.416-1.416v-3.86h19.302v3.86c0,0.772,0.643,1.416,1.416,1.416
		h1.544c0.772,0,1.416-0.643,1.416-1.416v-3.86h2.445c0.515,0,0.772-0.386,0.772-0.772v-9.008
		C47.308,27.148,45.804,25.66,44.004,25.51z M21.057,19.577c0.257-0.643,0.772-1.029,1.416-1.029h15.442
		c0.515,0,1.03,0.386,1.158,1.029l1.865,5.919H18.985L21.057,19.577z M21.507,33.568c-0.677,0.391-1.511,0.391-2.188,0
		c-0.677-0.391-1.094-1.113-1.094-1.895c0-0.782,0.417-1.504,1.094-1.895c0.677-0.391,1.511-0.391,2.188,0
		c0.677,0.391,1.094,1.113,1.094,1.895C22.601,32.454,22.184,33.177,21.507,33.568z M38.493,33.568
		c-0.677-0.391-1.094-1.113-1.094-1.895c0-0.782,0.417-1.504,1.094-1.895c0.677-0.391,1.511-0.391,2.188,0
		c0.677,0.391,1.094,1.113,1.094,1.895c0,0.782-0.417,1.504-1.094,1.895C40.004,33.958,39.17,33.958,38.493,33.568z"/>
</g>
</svg>
