<!-- Generator: Adobe Illustrator 22.0.0, SVG Export Plug-In  -->
<svg version="1.1"
	 xmlns="http://www.w3.org/2000/svg" xmlns:xlink="http://www.w3.org/1999/xlink" xmlns:a="http://ns.adobe.com/AdobeSVGViewerExtensions/3.0/"
	 x="0px" y="0px" width="60px" height="60px" viewBox="0 0 60 60" style="overflow:scroll;enable-background:new 0 0 60 60;"
	 xml:space="preserve">
<defs>
</defs>
<g>
	<circle style="fill:#F96270;" cx="30" cy="30" r="30"/>
	<g>
		<path style="fill:#FFFFFF;" d="M26.884,32.001c0-5.627,4.562-10.189,10.189-10.189c3.098,0,5.873,1.383,7.742,3.565v-0.011
			c0-5.173-4.176-9.376-9.316-9.376c-2.57,0-5.033,1.078-6.746,2.802c-1.713-1.724-4.176-2.802-6.746-2.802
			c-5.14,0-9.316,4.203-9.316,9.376c0,2.371,0.857,4.634,2.569,6.466c0,0,0,0.108,0.107,0.108l0.107,0.108l11.886,11.424
			c0.321,0.323,0.857,0.539,1.392,0.539c0.536,0,1.071-0.215,1.499-0.647c0.129-0.097,1.058-0.971,2.354-2.201
			C29.218,39.506,26.884,36.026,26.884,32.001z"/>
		<path style="fill:#FFFFFF;" d="M46.842,40.511l-3.466-3.466c1.124-1.376,1.798-3.133,1.798-5.049c0-4.411-3.576-7.987-7.987-7.987
			S29.2,27.585,29.2,31.996s3.576,7.987,7.987,7.987c1.336,0,2.594-0.328,3.701-0.908l3.695,3.695c0.621,0.621,1.638,0.621,2.259,0
			v0C47.463,42.149,47.463,41.132,46.842,40.511z"/>
	</g>
</g>
</svg>
