<!-- Generator: Adobe Illustrator 22.0.0, SVG Export Plug-In  -->
<svg version="1.1"
	 xmlns="http://www.w3.org/2000/svg" xmlns:xlink="http://www.w3.org/1999/xlink" xmlns:a="http://ns.adobe.com/AdobeSVGViewerExtensions/3.0/"
	 x="0px" y="0px" width="21.966px" height="37.141px" viewBox="0 0 21.966 37.141"
	 style="overflow:scroll;enable-background:new 0 0 21.966 37.141;" xml:space="preserve">
<defs>
</defs>
<g>
	<path style="fill:#FFFFFF;" d="M13.774,18.753c-0.329,0-0.598,0.272-0.598,0.605c-0.001,0.331,0.265,0.602,0.596,0.605h5.315
		c0.328,0,0.628-0.272,0.628-0.605c0-0.333-0.268-0.605-0.598-0.605H13.774z"/>
	<path style="fill:#FFFFFF;" d="M16.013,12.371c0.18-0.272,0.06-0.635-0.208-0.816c-0.588-0.349-1.215-0.631-1.867-0.84h0.001
		c1.801-1.019,2.913-2.929,2.912-4.998C16.851,2.57,14.314,0,11.207,0C8.101,0,5.562,2.57,5.562,5.717
		c-0.001,2.069,1.112,3.979,2.912,4.998c-3.601,1.169-6.226,4.591-6.226,8.643c-0.001,0.332,0.266,0.602,0.598,0.605
		c0.327,0,0.596-0.273,0.626-0.635c0-4.326,3.494-7.864,7.763-7.864c1.401,0.002,2.775,0.39,3.971,1.119
		C15.476,12.764,15.834,12.643,16.013,12.371z M11.206,10.224c-2.448,0-4.448-2.026-4.448-4.507c0-2.48,2-4.507,4.448-4.507h0.001
		c2.448,0,4.448,2.026,4.448,4.507C15.655,8.197,13.655,10.224,11.206,10.224z"/>
	<path style="fill:#FFFFFF;" d="M13.177,14.639c-0.001,0.331,0.265,0.602,0.596,0.605h5.315c0.328,0,0.628-0.272,0.628-0.605
		c0-0.332-0.268-0.605-0.598-0.605h-5.344C13.445,14.034,13.177,14.307,13.177,14.639z"/>
	<path style="fill:#FFFFFF;" d="M19.118,16.393h-5.344c-0.329,0-0.598,0.273-0.598,0.605c-0.001,0.331,0.265,0.602,0.596,0.605
		h5.315c0.328,0,0.628-0.272,0.628-0.605C19.716,16.667,19.448,16.393,19.118,16.393z"/>
	<path style="fill:#FFFFFF;" d="M1.511,27.774h7.988v1.487h0.875v-2.267H5.949c-0.144-0.36-0.276-0.696-0.42-0.984l-0.947,0.144
		c0.156,0.252,0.3,0.528,0.444,0.84h-4.39v2.267h0.875V27.774z"/>
	<path style="fill:#FFFFFF;" d="M8.707,29.693v-0.695H4.282c0.192-0.252,0.372-0.516,0.552-0.792l-0.84-0.18
		c-0.768,1.115-1.739,2.015-2.926,2.699l0.552,0.671c0.528-0.336,1.031-0.708,1.499-1.127c0.516,0.456,1.08,0.864,1.691,1.224
		C3.538,31.996,1.931,32.392,0,32.703l0.324,0.768c2.159-0.372,3.946-0.875,5.361-1.523c1.487,0.72,3.178,1.139,5.097,1.283
		l0.192-0.779c-1.619-0.12-3.083-0.432-4.39-0.948C7.508,30.976,8.215,30.377,8.707,29.693z M3.622,29.765l0.036-0.036h4.018
		c-0.492,0.503-1.151,0.971-1.979,1.379C4.953,30.737,4.258,30.293,3.622,29.765z"/>
	<path style="fill:#FFFFFF;" d="M2.195,37.129h0.839v-0.516h5.157v0.516h0.84v-3.754H2.195V37.129z M3.034,34.154h5.157v1.679H3.034
		V34.154z"/>
	<path style="fill:#FFFFFF;" d="M18.177,27.57c-0.216-0.576-0.432-1.092-0.648-1.547l-0.923,0.144
		c0.252,0.432,0.48,0.899,0.696,1.403h-3.91v3.754c-0.024,2.146-0.516,3.897-1.487,5.241l0.635,0.575
		c1.08-1.547,1.643-3.394,1.703-5.541h7.724v-4.03H18.177z M21.091,30.76h-6.848v-2.338h6.848V30.76z"/>
</g>
</svg>
