<!-- Generator: Adobe Illustrator 22.0.0, SVG Export Plug-In  -->
<svg version="1.1"
	 xmlns="http://www.w3.org/2000/svg" xmlns:xlink="http://www.w3.org/1999/xlink" xmlns:a="http://ns.adobe.com/AdobeSVGViewerExtensions/3.0/"
	 x="0px" y="0px" width="104px" height="104px" viewBox="0 0 104 104" style="overflow:scroll;enable-background:new 0 0 104 104;"
	 xml:space="preserve">
<defs>
</defs>
<g>
	<path style="fill:#FFFFFF;" d="M82,0H22C9.9,0,0,9.9,0,22v60c0,12.1,9.9,22,22,22h60c12.1,0,22-9.9,22-22V22C104,9.9,94.1,0,82,0z
		 M82,66.052c0,0.669-0.446,1.338-1.338,1.338h-4.238v6.691c0,1.338-1.115,2.454-2.454,2.454h-2.677
		c-1.338,0-2.454-1.115-2.454-2.454V67.39H35.383v6.691c0,1.338-1.115,2.454-2.454,2.454h-2.677c-1.338,0-2.453-1.115-2.453-2.454
		V67.39h-4.461c-0.669,0-1.338-0.446-1.338-1.338V50.439c0-3.447,2.706-6.061,5.905-6.235l4.132-11.608
		c0.892-3.123,3.792-5.13,7.138-5.13h26.766c3.122,0,6.022,2.231,6.691,5.353l3.641,11.399C79.394,44.477,82,47.056,82,50.439
		V66.052z"/>
	<path style="fill:#FFFFFF;" d="M67.725,33.933c-0.223-1.115-1.115-1.784-2.007-1.784H38.952c-1.115,0-2.007,0.669-2.454,1.784
		l-3.591,10.26h38.051L67.725,33.933z"/>
	<path style="fill:#FFFFFF;" d="M37.279,51.616c-1.173-0.678-2.619-0.678-3.792,0c-1.173,0.677-1.896,1.93-1.896,3.284
		c0,1.355,0.722,2.607,1.896,3.284c1.173,0.678,2.619,0.678,3.792,0c1.173-0.677,1.896-1.929,1.896-3.284
		C39.175,53.545,38.452,52.293,37.279,51.616z"/>
	<path style="fill:#FFFFFF;" d="M70.513,51.616c-1.173-0.678-2.619-0.678-3.792,0c-1.173,0.677-1.896,1.93-1.896,3.284
		c0,1.355,0.723,2.607,1.896,3.284c1.173,0.678,2.619,0.678,3.792,0c1.173-0.677,1.896-1.929,1.896-3.284
		C72.409,53.545,71.686,52.293,70.513,51.616z"/>
</g>
</svg>
