<!-- Generator: Adobe Illustrator 22.0.0, SVG Export Plug-In  -->
<svg version="1.1"
	 xmlns="http://www.w3.org/2000/svg" xmlns:xlink="http://www.w3.org/1999/xlink" xmlns:a="http://ns.adobe.com/AdobeSVGViewerExtensions/3.0/"
	 x="0px" y="0px" width="22.77px" height="36.709px" viewBox="0 0 22.77 36.709"
	 style="overflow:scroll;enable-background:new 0 0 22.77 36.709;" xml:space="preserve">
<defs>
</defs>
<g>
	<path style="fill:#FFFFFF;" d="M0,27.078h1.619v1.392H0.312v8.239H1.08v-0.647h3.418v0.647h0.768v-8.239H3.898v-1.392h1.559v-0.815
		H0V27.078z M4.498,35.245H1.08v-1.187h3.418V35.245z M3.73,29.26h0.768v2.314H4.03c-0.204,0-0.3-0.107-0.3-0.312V29.26z
		 M2.363,27.078h0.792v1.392H2.363V27.078z M1.583,32.858c0.504-0.6,0.768-1.535,0.78-2.818V29.26H3.13v2.159
		c0,0.552,0.252,0.827,0.755,0.827h0.612v1.02H1.08V29.26h0.695v0.779c-0.012,1.104-0.228,1.896-0.66,2.399L1.583,32.858z"/>
	<path style="fill:#FFFFFF;" d="M9.799,35.197c-0.096,0.336-0.312,0.504-0.648,0.504H7.268c-0.252-0.012-0.372-0.228-0.372-0.636
		v-3.934h3.274v-4.857H5.853v0.815h3.478v3.202H6.057v5.086c0,0.755,0.288,1.139,0.864,1.139h2.375c0.576,0,0.947-0.191,1.14-0.552
		c0.191-0.371,0.324-1.175,0.408-2.422l-0.852-0.276C9.955,34.226,9.895,34.874,9.799,35.197z"/>
	<path style="fill:#FFFFFF;" d="M21.031,35.785v-5.289h-3.478c0.048-0.216,0.083-0.443,0.132-0.684h4.869v-0.659h-4.773l0.072-0.696
		h3.886v-2.242h-8.683v2.242h3.934l-0.072,0.696h-4.666v0.659h4.569c-0.048,0.228-0.084,0.456-0.132,0.684h-2.915v5.289h-1.739
		v0.695H22.77v-0.695H21.031z M19.136,26.85h1.787v0.995h-1.787V26.85z M15.67,27.845h-1.787V26.85h1.787V27.845z M16.45,27.845
		V26.85h1.895v0.995H16.45z M20.18,35.785h-5.565v-0.791h5.565V35.785z M20.18,34.454h-5.565v-0.756h5.565V34.454z M20.18,33.146
		h-5.565v-0.755h5.565V33.146z M20.18,31.851h-5.565v-0.756h5.565V31.851z"/>
	<path style="fill:#FFFFFF;" d="M20.667,8.893h-2.49c-0.318-1.313-1.499-2.298-2.906-2.298c-1.649,0-2.998,1.349-2.998,2.998
		c0,1.649,1.349,2.998,2.998,2.998c1.407,0,2.588-0.986,2.906-2.298h2.49c0.39,0,0.699-0.31,0.699-0.699
		C21.366,9.203,21.057,8.893,20.667,8.893z M15.271,11.191c-0.879,0-1.599-0.719-1.599-1.599c0-0.879,0.719-1.599,1.599-1.599
		c0.879,0,1.599,0.719,1.599,1.599C16.87,10.472,16.151,11.191,15.271,11.191z"/>
	<path style="fill:#FFFFFF;" d="M11.874,3.697h8.793c0.39,0,0.699-0.31,0.699-0.699c0-0.39-0.31-0.699-0.699-0.699h-8.793
		c-0.39,0-0.699,0.31-0.699,0.699C11.174,3.387,11.484,3.697,11.874,3.697z"/>
	<path style="fill:#FFFFFF;" d="M11.574,9.592c0-0.39-0.31-0.699-0.699-0.699H2.082c-0.39,0-0.699,0.31-0.699,0.699
		c0,0.39,0.31,0.699,0.699,0.699h8.793C11.264,10.292,11.574,9.982,11.574,9.592z"/>
	<path style="fill:#FFFFFF;" d="M21.366,16.287c0-0.39-0.31-0.699-0.699-0.699h-8.793c-0.39,0-0.699,0.31-0.699,0.699
		c0,0.39,0.31,0.699,0.699,0.699h8.793C21.057,16.987,21.366,16.677,21.366,16.287z"/>
	<path style="fill:#FFFFFF;" d="M2.082,3.697h2.49C4.89,5.01,6.07,5.995,7.477,5.995c1.649,0,2.998-1.349,2.998-2.998
		C10.475,1.349,9.126,0,7.477,0C6.07,0,4.89,0.986,4.571,2.298h-2.49c-0.39,0-0.699,0.31-0.699,0.699
		C1.382,3.387,1.692,3.697,2.082,3.697z M7.477,1.399c0.879,0,1.599,0.719,1.599,1.599c0,0.879-0.719,1.599-1.599,1.599
		c-0.879,0-1.599-0.719-1.599-1.599C5.879,2.118,6.598,1.399,7.477,1.399z"/>
	<path style="fill:#FFFFFF;" d="M4.571,16.987c0.318,1.313,1.499,2.298,2.906,2.298c1.649,0,2.998-1.349,2.998-2.998
		c0-1.649-1.349-2.998-2.998-2.998c-1.407,0-2.588,0.986-2.906,2.298h-2.49c-0.39,0-0.699,0.31-0.699,0.699
		c0,0.39,0.31,0.699,0.699,0.699H4.571z M7.477,14.689c0.879,0,1.599,0.719,1.599,1.599c0,0.879-0.719,1.599-1.599,1.599
		c-0.879,0-1.599-0.719-1.599-1.599C5.879,15.408,6.598,14.689,7.477,14.689z"/>
</g>
</svg>
