<!-- Generator: Adobe Illustrator 22.0.0, SVG Export Plug-In  -->
<svg version="1.1"
	 xmlns="http://www.w3.org/2000/svg" xmlns:xlink="http://www.w3.org/1999/xlink" xmlns:a="http://ns.adobe.com/AdobeSVGViewerExtensions/3.0/"
	 x="0px" y="0px" width="34.542px" height="33.779px" viewBox="0 0 34.542 33.779"
	 style="overflow:scroll;enable-background:new 0 0 34.542 33.779;" xml:space="preserve">
<defs>
</defs>
<g>
	<g>
		<g>
			<defs>
				<rect id="SVGID_1_" x="7.271" width="20" height="18.697"/>
			</defs>
			<clipPath id="SVGID_2_">
				<use xlink:href="#SVGID_1_"  style="overflow:visible;"/>
			</clipPath>
			<path style="clip-path:url(#SVGID_2_);fill:#E22424;" d="M27.27,13.045V1.61c0-0.155-0.011-0.306-0.043-0.461
				c-0.152-0.667-0.787-1.127-1.456-1.137c-0.134-0.002-0.272,0-0.41,0H8.858c-0.048,0-0.096-0.002-0.144,0.002
				c-0.39,0.028-0.773,0.18-1.038,0.478C7.422,0.779,7.28,1.128,7.274,1.512c-0.002,0.178,0,0.352,0,0.53v10.711
				c0,0.277-0.021,0.575,0.058,0.842c0.192,0.637,0.777,1.075,1.442,1.081h7.836v2.666h-3.359c-0.431,0-0.863-0.008-1.294,0h-0.019
				c-0.348,0-0.679,0.306-0.664,0.664c0.016,0.361,0.291,0.665,0.664,0.665h9.361c0.431,0,0.863,0.008,1.294,0h0.019
				c0.348,0,0.679-0.306,0.664-0.664c-0.016-0.361-0.291-0.665-0.664-0.665h-4.674v-2.665h7.838c0.015,0,0.029,0,0.043-0.002
				c0.805-0.034,1.442-0.691,1.453-1.497V13.045z M24.068,13.346H8.75l-0.045-0.012c-0.013-0.007-0.025-0.015-0.038-0.023
				c-0.011-0.01-0.021-0.019-0.03-0.03l-0.022-0.037c-0.004-0.016-0.011-0.033-0.013-0.049c-0.004-0.102,0-0.207,0-0.306v-9.97
				c0-0.465-0.002-0.929,0-1.394c0-0.011,0-0.022,0.002-0.033l0.013-0.046C8.623,1.432,8.632,1.42,8.64,1.407
				c0.011-0.01,0.019-0.021,0.03-0.03l0.037-0.022c0.016-0.004,0.034-0.01,0.052-0.015c0.148-0.007,0.3,0,0.448,0h16.588
				l0.046,0.013c0.013,0.007,0.025,0.015,0.037,0.023c0.011,0.01,0.021,0.019,0.03,0.03l0.022,0.037
				c0.005,0.016,0.011,0.033,0.013,0.049c0.004,0.102,0,0.207,0,0.306v9.971c0,0.465,0.002,0.929,0,1.394
				c0,0.01,0,0.022-0.002,0.033l-0.013,0.046c-0.006,0.012-0.015,0.025-0.022,0.037c-0.01,0.011-0.019,0.021-0.03,0.03l-0.037,0.022
				l-0.046,0.013h-0.479c-0.415,0.002-0.832,0.002-1.247,0.002L24.068,13.346z M13.277,5.351c-0.361,0.016-0.664,0.291-0.664,0.664
				v5.33c0,0.349,0.306,0.679,0.664,0.664c0.36-0.016,0.664-0.291,0.664-0.664v-5.33C13.941,5.667,13.635,5.337,13.277,5.351
				L13.277,5.351z M21.27,6.682c-0.36,0.016-0.664,0.291-0.664,0.664v4.001c0,0.348,0.306,0.679,0.664,0.664
				c0.361-0.016,0.664-0.291,0.664-0.664V7.347C21.933,6.999,21.629,6.665,21.27,6.682L21.27,6.682z M17.274,4.027
				c-0.36,0.016-0.665,0.291-0.665,0.664v6.658c0,0.348,0.306,0.679,0.664,0.664c0.36-0.016,0.665-0.291,0.665-0.664V4.692
				C17.938,4.344,17.632,4.012,17.274,4.027L17.274,4.027z M17.274,4.027"/>
		</g>
	</g>
	<g>
		<path style="fill:#E01E1E;" d="M0.636,24.424v-0.839h9.247v0.839H5.697v7.939h4.702v0.84H0v-0.84h4.81v-7.939H0.636z"/>
		<path style="fill:#E01E1E;" d="M11.916,28.478l-0.288-0.912c1.295-1.403,2.243-3.01,2.83-4.833l0.816,0.384
			c-0.324,0.936-0.732,1.811-1.211,2.626v8.036h-0.888v-6.74C12.792,27.542,12.372,28.022,11.916,28.478z M15.106,28.346
			l-0.612-0.731c1.056-1.248,1.931-2.891,2.603-4.917l0.864,0.192c-0.192,0.552-0.384,1.08-0.576,1.571h5.181v0.852h-4.03v1.979
			h3.502v0.84h-3.502v2.027h3.574v0.828h-3.574v2.794h-0.875v-8.467h-0.648C16.461,26.475,15.826,27.483,15.106,28.346z"/>
		<path style="fill:#E01E1E;" d="M24.18,26.727c1.055-0.36,2.362-1.691,3.922-3.982l0.887,0.3c-1.08,1.535-2.171,2.759-3.25,3.646
			c2.303-0.096,4.485-0.251,6.548-0.443c-0.456-0.648-0.924-1.26-1.403-1.811l0.78-0.372c1.031,1.199,1.991,2.531,2.878,3.982
			l-0.84,0.408c-0.3-0.504-0.6-0.971-0.887-1.427c-2.531,0.228-5.349,0.396-8.468,0.516L24.18,26.727z M33.211,33.779h-0.875v-0.6
			h-6.261v0.6h-0.875v-5.001h8.012V33.779z M32.335,32.352v-2.747h-6.261v2.747H32.335z"/>
	</g>
</g>
</svg>
