<!-- Generator: Adobe Illustrator 22.0.0, SVG Export Plug-In  -->
<svg version="1.1"
	 xmlns="http://www.w3.org/2000/svg" xmlns:xlink="http://www.w3.org/1999/xlink" xmlns:a="http://ns.adobe.com/AdobeSVGViewerExtensions/3.0/"
	 x="0px" y="0px" width="22.542px" height="37.086px" viewBox="0 0 22.542 37.086"
	 style="overflow:scroll;enable-background:new 0 0 22.542 37.086;" xml:space="preserve">
<defs>
</defs>
<g>
	<path style="fill:#FFFFFF;" d="M1.835,28.211h2.483v-0.815H2.123c0.12-0.372,0.228-0.755,0.336-1.164l-0.84-0.167
		C1.284,27.503,0.744,28.823,0,30.022l0.708,0.444C1.14,29.794,1.511,29.038,1.835,28.211z"/>
	<path style="fill:#FFFFFF;" d="M6.632,28.547c-0.348-0.731-0.708-1.403-1.091-2.015L4.81,26.88c0.408,0.587,0.78,1.259,1.127,2.015
		L6.632,28.547z"/>
	<path style="fill:#FFFFFF;" d="M8.251,26.076H7.4v3.322H5.122v7.604h0.863v-2.651h3.658v1.259c0,0.372-0.156,0.564-0.456,0.564
		l-1.151-0.036l0.228,0.828h1.199c0.696,0,1.043-0.396,1.043-1.164v-6.404H8.251V26.076z M9.643,33.608H5.985v-1.319h3.658V33.608z
		 M9.643,30.214v1.332H5.985v-1.332H9.643z"/>
	<path style="fill:#FFFFFF;" d="M2.867,35.731v-2.818h1.655v-0.804H2.867v-1.511h1.247v-0.779H1.259v0.779h0.768v1.511H0.372v0.804
		h1.655v2.734c0,0.156-0.12,0.276-0.359,0.36l0.359,0.744c0.996-0.264,1.871-0.612,2.627-1.032L4.51,34.951
		C3.958,35.275,3.406,35.539,2.867,35.731z"/>
	<path style="fill:#FFFFFF;" d="M8.959,28.535l0.708,0.36c0.468-0.695,0.852-1.403,1.151-2.135l-0.72-0.336
		C9.811,27.12,9.439,27.815,8.959,28.535z"/>
	<path style="fill:#FFFFFF;" d="M13.715,37.086h0.852v-0.587h6.356v0.587h0.852v-3.502h-8.06V37.086z M14.567,34.328h6.356v1.403
		h-6.356V34.328z"/>
	<path style="fill:#FFFFFF;" d="M18.705,31.917v-0.899h3.142v-0.684h-3.142v-0.84h3.118V28.81h-3.118v-0.875h3.646v-0.719h-3.49
		c-0.168-0.456-0.348-0.876-0.54-1.248l-0.888,0.144c0.216,0.336,0.408,0.695,0.588,1.104h-2.975c0.18-0.348,0.336-0.696,0.48-1.056
		l-0.84-0.168c-0.516,1.343-1.403,2.591-2.65,3.73l0.264,0.852c0.516-0.444,0.984-0.912,1.416-1.415v3.49h8.827v-0.731H18.705z
		 M17.853,31.917h-3.31v-0.899h3.31V31.917z M17.853,30.334h-3.31v-0.84h3.31V30.334z M17.853,28.81h-3.31v-0.743
		c0.024-0.048,0.048-0.084,0.084-0.132h3.226V28.81z"/>
	<path style="fill:#FFFFFF;" d="M2.101,3.83h1.582v1.582c0,0.333,0.291,0.624,0.624,0.624c0.333,0,0.625-0.291,0.625-0.624V3.83
		h1.54c0.333,0,0.625-0.291,0.625-0.624c0-0.333-0.291-0.625-0.625-0.625H4.891v-1.54c0-0.333-0.291-0.625-0.625-0.625
		c-0.333,0-0.625,0.25-0.625,0.625v1.582h-1.54c-0.333-0.042-0.624,0.25-0.624,0.583C1.477,3.539,1.768,3.83,2.101,3.83z"/>
	<path style="fill:#FFFFFF;" d="M3.142,19.859h16.237c1.041,0,1.874-0.833,1.874-1.873V1.874C21.253,0.833,20.42,0,19.379,0h-8.244
		v1.249h8.244c0.333,0,0.625,0.292,0.625,0.625v16.112c0,0.333-0.291,0.625-0.625,0.625H3.142c-0.333,0-0.625-0.291-0.625-0.625
		V9.451H1.268v8.535C1.268,19.027,2.101,19.859,3.142,19.859z"/>
	<path style="fill:#FFFFFF;" d="M10.553,15.613c0.333,0,0.625-0.291,0.625-0.625V9.659c0-0.333-0.292-0.624-0.625-0.624
		c-0.333,0-0.624,0.291-0.624,0.624v5.329C9.887,15.321,10.178,15.613,10.553,15.613z"/>
	<path style="fill:#FFFFFF;" d="M6.389,11.949c-0.333,0-0.625,0.292-0.625,0.625v2.415c0,0.333,0.291,0.625,0.625,0.625
		c0.333,0,0.624-0.291,0.624-0.625v-2.415C6.972,12.24,6.722,11.949,6.389,11.949z"/>
	<path style="fill:#FFFFFF;" d="M15.715,14.947V5.496c0-0.333-0.292-0.625-0.625-0.625c-0.333,0-0.625,0.291-0.625,0.625v9.492
		c0,0.333,0.292,0.625,0.625,0.625C15.424,15.613,15.715,15.321,15.715,14.947z"/>
</g>
</svg>
