<!-- Generator: Adobe Illustrator 22.0.0, SVG Export Plug-In  -->
<svg version="1.1"
	 xmlns="http://www.w3.org/2000/svg" xmlns:xlink="http://www.w3.org/1999/xlink" xmlns:a="http://ns.adobe.com/AdobeSVGViewerExtensions/3.0/"
	 x="0px" y="0px" width="60px" height="60px" viewBox="0 0 60 60" style="overflow:scroll;enable-background:new 0 0 60 60;"
	 xml:space="preserve">
<defs>
</defs>
<g>
	<circle style="opacity:0.4;fill:#1890FF;" cx="30" cy="30" r="30"/>
	<circle style="fill:#1890FF;" cx="30" cy="30" r="25"/>
	<g>
		<path style="fill:#FFFFFF;" d="M39.485,19.438c0-0.447-0.363-0.811-0.811-0.811H20.01c-0.447,0-0.811,0.364-0.811,0.811v21.096
			c0,0.447,0.364,0.811,0.811,0.811h8.109v1.622h-8.92c-0.895,0-1.622-0.727-1.622-1.622V18.628c0-0.895,0.727-1.622,1.622-1.622
			h20.285c0.895,0,1.622,0.727,1.622,1.622v7.298h-1.622V19.438z"/>
		<path style="fill:#FFFFFF;" d="M23.659,34.845h3.243c0.224,0,0.405,0.182,0.405,0.405v0.811c0,0.224-0.182,0.405-0.405,0.405
			h-3.243c-0.224,0-0.405-0.182-0.405-0.405V35.25C23.254,35.026,23.435,34.845,23.659,34.845"/>
		<path style="fill:#FFFFFF;" d="M23.254,24.709v-0.811c0-0.224,0.182-0.405,0.405-0.405h12.163c0.224,0,0.405,0.182,0.405,0.405
			v0.811c0,0.224-0.182,0.405-0.405,0.405H23.659C23.435,25.114,23.254,24.933,23.254,24.709"/>
		<path style="fill:#FFFFFF;" d="M23.254,30.385v-0.811c0-0.224,0.182-0.405,0.405-0.405h5.676c0.224,0,0.405,0.182,0.405,0.405
			v0.811c0,0.224-0.182,0.405-0.405,0.405h-5.676C23.435,30.79,23.254,30.609,23.254,30.385"/>
		<rect x="17.582" y="17" style="fill:none;" width="25.967" height="26"/>
		<path style="fill:#FFFFFF;" d="M42.689,37.421h-1.56l-3.121-4.506c1.387-0.52,2.253-1.733,2.253-3.119
			c0-1.906-1.56-3.466-3.466-3.466c-1.908,0-3.467,1.56-3.467,3.466c0,1.386,0.867,2.773,2.254,3.119l-3.12,4.506h-1.56
			c-0.867,0-1.56,0.693-1.56,1.56v2.426c-0.002,0.414,0.162,0.812,0.455,1.105c0.293,0.293,0.691,0.457,1.105,0.455h11.96
			c0.414,0.002,0.812-0.162,1.105-0.455c0.293-0.293,0.457-0.691,0.455-1.105v-2.426C44.249,38.115,43.556,37.421,42.689,37.421z
			 M34.716,29.796c0-1.213,0.867-2.079,2.08-2.079c1.213,0,2.081,0.866,2.081,2.079c0,1.213-0.867,2.079-2.081,2.079
			C35.582,31.875,34.716,31.009,34.716,29.796z M36.622,33.955h0.347l2.599,3.639h-5.546L36.622,33.955z M43.035,41.407
			c0,0.174-0.173,0.174-0.173,0.174h-11.96c-0.173,0-0.173-0.174-0.173-0.174v-2.426c0-0.174,0.173-0.174,0.173-0.174h11.96
			c0.173,0,0.173,0.174,0.173,0.174V41.407z"/>
	</g>
</g>
</svg>
