<!-- Generator: Adobe Illustrator 22.0.0, SVG Export Plug-In  -->
<svg version="1.1"
	 xmlns="http://www.w3.org/2000/svg" xmlns:xlink="http://www.w3.org/1999/xlink" xmlns:a="http://ns.adobe.com/AdobeSVGViewerExtensions/3.0/"
	 x="0px" y="0px" width="60px" height="60px" viewBox="0 0 60 60" style="overflow:scroll;enable-background:new 0 0 60 60;"
	 xml:space="preserve">
<defs>
</defs>
<g>
	<circle style="opacity:0.4;fill:#7EDBD0;" cx="30" cy="30" r="30"/>
	<circle style="fill:#7EDBD0;" cx="30" cy="30" r="25"/>
	<g>
		<g>
			<defs>
				<rect id="SVGID_1_" x="17.044" y="17" width="25.911" height="26"/>
			</defs>
			<clipPath id="SVGID_2_">
				<use xlink:href="#SVGID_1_"  style="overflow:visible;"/>
			</clipPath>
			<path style="clip-path:url(#SVGID_2_);fill:#FFFFFF;" d="M29.988,42.968c-0.324,0-0.647-0.129-0.906-0.388l-3.042-3.042h-4.271
				c-0.712,0-1.294-0.582-1.294-1.294v-4.271l-3.042-3.042c-0.518-0.518-0.518-1.359,0-1.877l3.042-3.042v-4.271
				c0-0.712,0.582-1.294,1.294-1.294h4.271l3.042-3.042c0.518-0.518,1.359-0.518,1.877,0L34,20.447h4.271
				c0.712,0,1.294,0.582,1.294,1.294v4.271l3.042,3.042c0.194,0.324,0.324,0.647,0.324,0.971s-0.129,0.647-0.388,0.906l-3.042,3.042
				v4.271c0,0.712-0.582,1.294-1.294,1.294h-4.271l-3.042,3.042C30.635,42.839,30.312,42.968,29.988,42.968L29.988,42.968z
				 M21.769,21.806v4.271c0,0.324-0.129,0.712-0.388,0.906l-3.042,3.042l3.042,3.042c0.259,0.259,0.388,0.582,0.388,0.906v4.271
				h4.271c0.324,0,0.712,0.129,0.906,0.388l3.042,3.042l3.042-3.042c0.259-0.259,0.582-0.388,0.906-0.388h4.271v-4.271
				c0-0.324,0.129-0.712,0.388-0.906l3.042-3.042l-3.042-3.042c-0.259-0.259-0.388-0.582-0.388-0.906v-4.271h-4.271
				c-0.324,0-0.712-0.129-0.906-0.388l-3.042-3.042l-3.042,3.042c-0.259,0.259-0.582,0.388-0.906,0.388H21.769z M21.769,21.806"/>
		</g>
		<path style="fill:#FFFFFF;" d="M28.694,33.325c-0.194,0-0.323-0.065-0.453-0.194l-2.654-2.653c-0.259-0.259-0.259-0.647,0-0.906
			c0.259-0.259,0.647-0.259,0.906,0l2.2,2.2l4.854-4.854c0.259-0.259,0.647-0.259,0.906,0c0.259,0.259,0.259,0.647,0,0.906
			l-5.307,5.307C29.017,33.261,28.823,33.325,28.694,33.325L28.694,33.325z M28.694,33.325"/>
	</g>
</g>
</svg>
