<!-- Generator: Adobe Illustrator 22.0.0, SVG Export Plug-In  -->
<svg version="1.1"
	 xmlns="http://www.w3.org/2000/svg" xmlns:xlink="http://www.w3.org/1999/xlink" xmlns:a="http://ns.adobe.com/AdobeSVGViewerExtensions/3.0/"
	 x="0px" y="0px" width="60px" height="60px" viewBox="0 0 60 60" style="overflow:scroll;enable-background:new 0 0 60 60;"
	 xml:space="preserve">
<defs>
</defs>
<g>
	<circle style="opacity:0.4;fill:#1890FF;" cx="30" cy="30" r="30"/>
	<circle style="fill:#1890FF;" cx="30" cy="30" r="25"/>
	<g>
		<path style="fill:#FFFFFF;" d="M23.5,18.625h-1.625c-1.788,0-3.25,1.463-3.25,3.25V39.75c0,1.788,1.463,3.25,3.25,3.25h16.25
			c1.787,0,3.25-1.463,3.25-3.25V21.875c0-1.789-1.463-3.25-3.25-3.25h-1.463v1.625h1.463c0.975,0,1.625,0.65,1.625,1.625V39.75
			c0,0.813-0.65,1.625-1.625,1.625h-16.25c-0.975,0-1.625-0.65-1.625-1.625V21.875c0-0.813,0.65-1.625,1.625-1.625H23.5V18.625z
			 M26.75,20.25h6.5v-1.625h-6.5V20.25z M25.125,18.625c0-0.975,0.813-1.625,1.625-1.625h6.5c0.813,0,1.625,0.65,1.625,1.625v1.625
			c-0.002,0.897-0.728,1.623-1.625,1.625h-6.5c-0.897-0.002-1.623-0.729-1.625-1.625V18.625z M26.059,33.352h1.625v-1.625h-1.625
			V33.352z M32.559,33.352h1.625v-1.625h-1.625V33.352z M37.536,30.372L35.9,29.112l-0.836-3.588h-9.557l-1.074,3.744l-1.671,1.057
			v5.43h2.485v1.603h1.625v-1.603h6.5v1.603h1.625v-1.603h2.542v-5.384H37.536z M33.777,27.149l0.39,1.686h-7.919l0.483-1.686
			H33.777z M35.915,34.13H24.384v-2.91l1.203-0.761h9.397l0.929,0.713v2.958H35.915z M35.915,34.13"/>
	</g>
</g>
</svg>
