<!-- Generator: Adobe Illustrator 22.0.0, SVG Export Plug-In  -->
<svg version="1.1"
	 xmlns="http://www.w3.org/2000/svg" xmlns:xlink="http://www.w3.org/1999/xlink" xmlns:a="http://ns.adobe.com/AdobeSVGViewerExtensions/3.0/"
	 x="0px" y="0px" width="60px" height="60px" viewBox="0 0 60 60" style="overflow:scroll;enable-background:new 0 0 60 60;"
	 xml:space="preserve">
<defs>
</defs>
<g>
	<circle style="fill:#37A3F4;" cx="30" cy="30" r="30"/>
	<g>
		<g>
			<path style="fill:#FFFFFF;" d="M46.48,26.755c-0.531-0.532-1.252-0.831-2.004-0.831h-6.115v9.7c0,2.268-1.838,4.106-4.106,4.106
				H27.29v3.376c0.002,1.563,1.269,2.829,2.831,2.831h14.354c1.563-0.002,2.829-1.269,2.832-2.831V28.76
				C47.309,28.008,47.011,27.287,46.48,26.755z"/>
			<path style="fill:#FFFFFF;" d="M38.365,23.375v-5.207c0-2.268-1.839-4.106-4.106-4.106h-17.46c-2.268,0-4.106,1.839-4.106,4.106
				v17.456c0,2.268,1.839,4.106,4.106,4.106h7.942V28.76c0.002-2.973,2.412-5.383,5.385-5.385H38.365z"/>
		</g>
		<path style="opacity:0.5;fill:#FFFFFF;" d="M38.361,35.628v-9.704h-8.236c-1.563,0.002-2.829,1.269-2.832,2.831v10.974h6.965
			c1.088,0.001,2.132-0.431,2.902-1.201C37.93,37.76,38.362,36.716,38.361,35.628L38.361,35.628z M38.361,35.628"/>
	</g>
</g>
</svg>
