<!-- Generator: Adobe Illustrator 22.0.0, SVG Export Plug-In  -->
<svg version="1.1"
	 xmlns="http://www.w3.org/2000/svg" xmlns:xlink="http://www.w3.org/1999/xlink" xmlns:a="http://ns.adobe.com/AdobeSVGViewerExtensions/3.0/"
	 x="0px" y="0px" width="60px" height="60px" viewBox="0 0 60 60" style="overflow:scroll;enable-background:new 0 0 60 60;"
	 xml:space="preserve">
<defs>
</defs>
<g>
	<circle style="fill:#48D36F;" cx="30" cy="30" r="30"/>
	<g>
		<path style="fill:#FFFFFF;" d="M43.692,44.67c-0.682,0-1.586-0.296-2.564-0.608c-0.682-0.222-1.808-0.608-2.104-0.445
			c-1.734,0.608-3.542,0.904-5.409,0.904c-2.401,0-4.742-0.533-6.772-1.511c-0.37-0.148-0.533-0.608-0.37-0.978
			c0.148-0.37,0.608-0.533,0.978-0.37c1.882,0.904,3.986,1.348,6.164,1.348c1.734,0,3.378-0.296,4.964-0.83
			c0.756-0.296,1.808,0.074,3.082,0.445c0.607,0.222,1.585,0.533,2.03,0.533c0-0.296-0.222-0.904-0.296-1.274
			c-0.296-1.126-0.682-2.104-0.074-2.786c1.585-1.734,2.489-3.764,2.489-5.942c0-2.178-0.904-4.208-2.489-5.942
			c-0.296-0.296-0.296-0.756,0-1.052c0.296-0.296,0.756-0.296,1.052,0c1.882,2.03,2.934,4.431,2.934,6.994
			c0,2.489-0.978,4.89-2.786,6.846c0,0.296,0.222,0.978,0.296,1.348c0.371,1.2,0.756,2.401-0.148,3.008
			C44.359,44.596,44.063,44.67,43.692,44.67L43.692,44.67z M43.692,44.67"/>
		<path style="fill:#FFFFFF;" d="M27.14,15.33c-7.972,0-14.448,5.646-14.448,12.64c0,2.786,0.978,5.423,2.934,7.528
			c0,0.311-0.222,1.126-0.371,1.66c-0.385,1.348-0.756,2.623,0.148,3.23c0.296,0.222,0.608,0.296,0.978,0.296
			c0.756,0,1.66-0.296,2.712-0.593c0.667-0.237,1.956-0.608,2.252-0.533c1.808,0.682,3.764,1.052,5.794,1.052
			c7.972,0,14.448-5.646,14.448-12.64C41.588,20.976,35.112,15.33,27.14,15.33z M19.835,30.015c-0.83,0-1.585-0.756-1.585-1.66
			s0.696-1.66,1.585-1.66c0.904,0,1.586,0.756,1.586,1.66S20.664,30.015,19.835,30.015z M27.14,30c-0.83,0-1.586-0.756-1.586-1.66
			c-0.074-0.904,0.682-1.645,1.586-1.645c0.904,0,1.586,0.756,1.586,1.66S27.97,30,27.14,30z M34.431,30.015
			c-0.83,0-1.586-0.756-1.586-1.66c-0.059-0.919,0.682-1.66,1.586-1.66c0.904,0,1.586,0.756,1.586,1.66S35.26,30.015,34.431,30.015z
			"/>
	</g>
</g>
</svg>
