<!-- Generator: Adobe Illustrator 22.0.0, SVG Export Plug-In  -->
<svg version="1.1"
	 xmlns="http://www.w3.org/2000/svg" xmlns:xlink="http://www.w3.org/1999/xlink" xmlns:a="http://ns.adobe.com/AdobeSVGViewerExtensions/3.0/"
	 x="0px" y="0px" width="60px" height="60px" viewBox="0 0 60 60" style="overflow:scroll;enable-background:new 0 0 60 60;"
	 xml:space="preserve">
<defs>
</defs>
<g>
	<circle style="fill:#47D6C2;" cx="30" cy="30" r="30"/>
	<path style="fill:#FFFFFF;" d="M45.384,29.999c-0.01-1.11-0.557-2.098-1.392-2.708l0.004-0.003L23.864,13.863
		c-0.03-0.021-0.06-0.041-0.091-0.061l-0.021-0.014v0c-0.038-0.024-0.077-0.048-0.117-0.071c-1.035-0.598-2.311-0.598-3.346,0
		c-1.035,0.598-1.673,1.703-1.673,2.898v26.767c0,1.84,1.506,3.279,3.346,3.346c0.671,0.026,1.31-0.184,1.847-0.557l20.042-13.311
		C44.788,32.271,45.394,31.205,45.384,29.999z"/>
</g>
</svg>
