<!-- Generator: Adobe Illustrator 22.0.0, SVG Export Plug-In  -->
<svg version="1.1"
	 xmlns="http://www.w3.org/2000/svg" xmlns:xlink="http://www.w3.org/1999/xlink" xmlns:a="http://ns.adobe.com/AdobeSVGViewerExtensions/3.0/"
	 x="0px" y="0px" width="60px" height="60px" viewBox="0 0 60 60" style="overflow:scroll;enable-background:new 0 0 60 60;"
	 xml:space="preserve">
<defs>
</defs>
<g>
	<circle style="opacity:0.4;fill:#F56C6C;" cx="30" cy="30" r="30"/>
	<circle style="fill:#F56C6C;" cx="30" cy="30" r="25"/>
	<g>
		<g>
			<defs>
				<rect id="SVGID_1_" x="17" y="17.625" width="26" height="24.749"/>
			</defs>
			<clipPath id="SVGID_2_">
				<use xlink:href="#SVGID_1_"  style="overflow:visible;"/>
			</clipPath>
			<path style="clip-path:url(#SVGID_2_);fill:#FFFFFF;" d="M42.703,40.825l-3.464-3.464c1.515-2.057,2.435-4.6,2.435-7.36
				c0-6.819-5.52-12.34-12.34-12.34s-12.34,5.52-12.34,12.34c0,6.819,5.52,12.34,12.34,12.34c3.464,0,6.549-1.407,8.768-3.68
				l3.355,3.355c0.325,0.325,0.866,0.325,1.245,0C43.082,41.691,43.082,41.15,42.703,40.825L42.703,40.825z M29.335,40.608
				c-5.845,0-10.608-4.763-10.608-10.608c0-5.845,4.763-10.608,10.608-10.608c5.845,0,10.608,4.763,10.608,10.608
				C39.943,35.846,35.18,40.608,29.335,40.608L29.335,40.608z M35.613,35.359c0,0.271-0.054,0.487-0.162,0.595
				c-0.108,0.108-0.271,0.162-0.595,0.162h-6.982c-0.325,0-0.541-0.054-0.812-0.108c-0.216-0.054-0.433-0.162-0.649-0.325
				c-0.217-0.162-0.379-0.379-0.649-0.649c-0.162,0.271-0.379,0.487-0.541,0.704c-0.216,0.216-0.433,0.379-0.704,0.541
				c-0.216,0.162-0.433,0.216-0.649,0.162c-0.217-0.054-0.379-0.162-0.487-0.379c-0.162-0.216-0.217-0.433-0.162-0.595
				c0.054-0.162,0.216-0.379,0.541-0.541c0.108-0.054,0.271-0.162,0.379-0.325c0.108-0.108,0.271-0.271,0.325-0.433
				c0.054-0.162,0.162-0.325,0.27-0.487c0.054-0.162,0.108-0.325,0.108-0.487v-3.518c0-0.162,0-0.271-0.054-0.325h-0.812
				c-0.271,0-0.487-0.054-0.595-0.162c-0.108-0.108-0.162-0.325-0.162-0.595c0-0.271,0.054-0.487,0.162-0.595
				c0.108-0.108,0.271-0.162,0.595-0.162h1.191c0.216,0,0.433,0,0.595,0.054c0.162,0.054,0.271,0.108,0.379,0.216
				c0.108,0.108,0.162,0.271,0.216,0.433c0.054,0.162,0.054,0.433,0.054,0.703v4.005c0.162,0.271,0.325,0.487,0.487,0.65
				c0.162,0.162,0.325,0.325,0.541,0.379c0.216,0.108,0.433,0.162,0.704,0.217c0.271,0.054,0.541,0.054,0.92,0.054h5.791
				c0.271,0,0.487,0.054,0.595,0.162C35.559,34.926,35.613,35.088,35.613,35.359L35.613,35.359z M26.196,26.97
				c-0.162,0.162-0.379,0.217-0.541,0.217c-0.216-0.054-0.379-0.162-0.649-0.379c-0.162-0.162-0.379-0.379-0.541-0.487
				c-0.162-0.162-0.379-0.325-0.595-0.541c-0.433-0.379-0.487-0.812-0.108-1.191c0.162-0.162,0.325-0.271,0.541-0.271
				c0.162,0,0.379,0.108,0.649,0.325c0.216,0.216,0.433,0.379,0.595,0.541l0.595,0.595c0.216,0.217,0.325,0.433,0.325,0.649
				C26.521,26.591,26.413,26.808,26.196,26.97L26.196,26.97z M30.039,31.137h-2.381c-0.271,0-0.487-0.054-0.541-0.162
				c-0.108-0.108-0.162-0.271-0.162-0.541c0-0.217,0.054-0.379,0.162-0.433c0.108-0.108,0.271-0.108,0.541-0.108h2.381v-0.974
				h-1.894c-0.271,0-0.433-0.054-0.541-0.162c-0.108-0.108-0.162-0.271-0.162-0.487c0-0.162,0.054-0.325,0.162-0.433
				c0.108-0.108,0.27-0.162,0.541-0.162h1.894v-0.974H27.82c-0.271,0-0.433-0.054-0.541-0.162c-0.108-0.108-0.162-0.271-0.162-0.487
				c0-0.162,0.054-0.325,0.162-0.433c0.108-0.162,0.271-0.216,0.541-0.216h2.219v-0.595c0-0.216,0.054-0.433,0.162-0.541
				c0.108-0.162,0.325-0.216,0.541-0.216c0.271,0,0.487,0.054,0.595,0.216c0.108,0.162,0.162,0.325,0.162,0.541V25.4h2.868
				c0.271,0,0.433,0.054,0.541,0.216c0.108,0.108,0.162,0.271,0.162,0.433c0,0.216-0.054,0.379-0.162,0.487
				c-0.108,0.108-0.271,0.162-0.541,0.162H31.5v0.974h2.544c0.487,0,0.704,0.162,0.704,0.541c0,0.216-0.054,0.379-0.162,0.541
				c-0.108,0.108-0.271,0.216-0.541,0.216H31.5v0.974h2.165c0.325,0,0.541,0,0.758,0.054c0.162,0.054,0.325,0.108,0.433,0.216
				c0.108,0.108,0.162,0.271,0.216,0.487c0.054,0.217,0.054,0.541,0.054,0.92c0,0.379-0.054,0.704-0.108,0.974
				c-0.054,0.271-0.162,0.487-0.271,0.595c-0.108,0.162-0.325,0.271-0.487,0.325c-0.216,0.054-0.487,0.108-0.812,0.108h-0.433
				c-0.162,0-0.325-0.054-0.541-0.108c-0.325-0.054-0.541-0.162-0.595-0.271c-0.108-0.108-0.108-0.325-0.054-0.541
				c0.054-0.162,0.054-0.271,0.108-0.325c0.054-0.108,0.108-0.162,0.162-0.162c0.054-0.054,0.162-0.054,0.271-0.054
				c0.108,0,0.271,0.054,0.433,0.054c0.216,0.054,0.325,0.054,0.433,0.054c0.108,0,0.162-0.054,0.216-0.108
				c0.054-0.054,0.108-0.108,0.108-0.217v-0.325c0-0.162,0-0.271-0.054-0.325c-0.054-0.054-0.162-0.054-0.271-0.054h-1.786v2.435
				c0,0.271-0.054,0.433-0.216,0.541c-0.162,0.108-0.325,0.162-0.541,0.162c-0.217,0-0.379-0.054-0.541-0.162
				c-0.162-0.108-0.217-0.271-0.217-0.541v-2.544H30.039z M30.039,31.137"/>
		</g>
	</g>
</g>
</svg>
