<!-- Generator: Adobe Illustrator 22.0.0, SVG Export Plug-In  -->
<svg version="1.1"
	 xmlns="http://www.w3.org/2000/svg" xmlns:xlink="http://www.w3.org/1999/xlink" xmlns:a="http://ns.adobe.com/AdobeSVGViewerExtensions/3.0/"
	 x="0px" y="0px" width="60px" height="60px" viewBox="0 0 60 60" style="overflow:scroll;enable-background:new 0 0 60 60;"
	 xml:space="preserve">
<defs>
</defs>
<g>
	<circle style="opacity:0.4;fill:#F56C6C;" cx="30" cy="30" r="30"/>
	<circle style="fill:#F56C6C;" cx="30" cy="30" r="25"/>
	<g>
		<g>
			<defs>
				<rect id="SVGID_1_" x="17" y="16.329" width="26" height="25.342"/>
			</defs>
			<clipPath id="SVGID_2_">
				<use xlink:href="#SVGID_1_"  style="overflow:visible;"/>
			</clipPath>
			<path style="clip-path:url(#SVGID_2_);fill:#FFFFFF;" d="M29.996,33.452c0.626,0,1.136-0.51,1.136-1.136v-8.413
				c0-0.626-0.51-1.136-1.136-1.136s-1.136,0.51-1.136,1.136v8.413C28.86,32.943,29.37,33.452,29.996,33.452L29.996,33.452z
				 M29.996,34.923c-0.422,0-0.835,0.171-1.134,0.47c-0.299,0.299-0.47,0.712-0.47,1.134c0,0.422,0.171,0.835,0.47,1.134
				c0.299,0.298,0.712,0.47,1.134,0.47c0.422,0,0.835-0.171,1.134-0.47c0.299-0.299,0.47-0.712,0.47-1.134
				c0-0.422-0.171-0.835-0.47-1.134C30.831,35.094,30.418,34.923,29.996,34.923L29.996,34.923z M29.996,34.923"/>
			<path style="clip-path:url(#SVGID_2_);fill:#FFFFFF;" d="M40.725,41.637H19.266c-0.82,0-1.553-0.463-1.963-1.239
				c-0.41-0.776-0.41-1.703,0-2.479l10.729-20.321c0.41-0.776,1.144-1.239,1.963-1.239c0.819,0,1.554,0.463,1.963,1.239
				l10.729,20.321c0.41,0.776,0.41,1.703,0,2.479C42.278,41.174,41.544,41.637,40.725,41.637L40.725,41.637z M29.996,18.269
				c-0.09,0-0.315,0.028-0.45,0.284L18.816,38.874c-0.136,0.256-0.045,0.483,0,0.568c0.045,0.085,0.179,0.284,0.45,0.284h21.458
				c0.271,0,0.405-0.199,0.45-0.284c0.045-0.085,0.136-0.312,0-0.568L30.446,18.553C30.31,18.297,30.086,18.269,29.996,18.269
				L29.996,18.269z M29.996,18.269"/>
		</g>
	</g>
</g>
</svg>
