<!-- Generator: Adobe Illustrator 22.0.0, SVG Export Plug-In  -->
<svg version="1.1"
	 xmlns="http://www.w3.org/2000/svg" xmlns:xlink="http://www.w3.org/1999/xlink" xmlns:a="http://ns.adobe.com/AdobeSVGViewerExtensions/3.0/"
	 x="0px" y="0px" width="60px" height="60px" viewBox="0 0 60 60" style="overflow:scroll;enable-background:new 0 0 60 60;"
	 xml:space="preserve">
<defs>
</defs>
<g>
	<circle style="opacity:0.4;fill:#7EDBD0;" cx="30" cy="30" r="30"/>
	<circle style="fill:#7EDBD0;" cx="30" cy="30" r="25"/>
	<g>
		<g>
			<defs>
				<rect id="SVGID_1_" x="17.015" y="17" width="25.969" height="26"/>
			</defs>
			<clipPath id="SVGID_2_">
				<use xlink:href="#SVGID_1_"  style="overflow:visible;"/>
			</clipPath>
			<path style="clip-path:url(#SVGID_2_);fill:#FFFFFF;" d="M41.919,31.84c-0.75,5.243-4.837,9.381-10.07,10.197v0.931h-3.71v-0.93
				c-5.234-0.816-9.321-4.956-10.069-10.2h-1.058V28.13h1.102c0.868-5.11,4.905-9.093,10.026-9.892V17h3.711v1.24
				c5.12,0.799,9.156,4.78,10.026,9.888h1.102v3.711H41.919z M31.766,20.114v1.018h-3.544v-1.017
				c-4.158,0.735-7.433,3.958-8.232,8.104h1.145v3.544h-1.193c0.693,4.275,4.015,7.645,8.28,8.398V38.85h3.544v1.312
				c4.265-0.754,7.587-4.123,8.28-8.398h-1.193V28.22H40C39.199,24.074,35.924,20.851,31.766,20.114L31.766,20.114z M31.766,20.114"
				/>
		</g>
		<path style="fill:#FFFFFF;" d="M24.204,30.003c0,2.062,1.1,3.967,2.885,4.998c1.785,1.031,3.985,1.031,5.771,0
			c1.786-1.031,2.885-2.936,2.885-4.998c0-3.187-2.584-5.771-5.771-5.771C26.788,24.232,24.204,26.816,24.204,30.003"/>
	</g>
</g>
</svg>
