<!-- Generator: Adobe Illustrator 22.0.0, SVG Export Plug-In  -->
<svg version="1.1"
	 xmlns="http://www.w3.org/2000/svg" xmlns:xlink="http://www.w3.org/1999/xlink" xmlns:a="http://ns.adobe.com/AdobeSVGViewerExtensions/3.0/"
	 x="0px" y="0px" width="60px" height="60px" viewBox="0 0 60 60" style="overflow:scroll;enable-background:new 0 0 60 60;"
	 xml:space="preserve">
<defs>
</defs>
<g>
	<circle style="opacity:0.4;fill:#F56C6C;" cx="30" cy="30" r="30"/>
	<circle style="fill:#F56C6C;" cx="30" cy="30" r="25"/>
	<g>
		<g>
			<defs>
				<rect id="SVGID_1_" x="18.471" y="17" width="23.059" height="26"/>
			</defs>
			<clipPath id="SVGID_2_">
				<use xlink:href="#SVGID_1_"  style="overflow:visible;"/>
			</clipPath>
			<path style="clip-path:url(#SVGID_2_);fill:#FFFFFF;" d="M30.002,42.968c-1.176,0.006-2.321-0.379-3.255-1.095
				c-0.661-0.511-1.169-1.194-1.469-1.973H20.87c-0.832,0.01-1.612-0.402-2.074-1.095c-0.439-0.684-0.439-1.562,0-2.247l1.944-3.111
				v-6.251c0.05-1.697,0.675-3.327,1.772-4.623c1.102-1.36,2.557-2.391,4.206-2.981c0.371-1.515,1.73-2.579,3.289-2.576
				c1.56,0.003,2.914,1.074,3.278,2.59c1.646,0.61,3.098,1.649,4.206,3.01c1.075,1.295,1.683,2.913,1.728,4.595v6.237l1.757,2.823
				c0.354,0.384,0.55,0.889,0.547,1.411c-0.058,1.268-1.122,2.255-2.391,2.218h-4.422c-0.3,0.78-0.808,1.462-1.469,1.973
				C32.313,42.587,31.173,42.972,30.002,42.968L30.002,42.968z M27.625,21.249c-1.403,0.46-2.643,1.315-3.572,2.463
				c-0.839,0.973-1.322,2.202-1.368,3.485v6.51c0,0.167-0.045,0.331-0.13,0.475l-2.088,3.327h-0.014
				c-0.061,0.104-0.055,0.233,0.014,0.331c0.093,0.13,0.244,0.205,0.403,0.202h5.156c0.466-0.004,0.87,0.321,0.965,0.778
				c0.365,1.358,1.596,2.302,3.003,2.302c1.407,0,2.638-0.944,3.003-2.302c0.095-0.456,0.499-0.782,0.965-0.778h5.171
				c0.22,0.016,0.415-0.141,0.446-0.36c0.002-0.085-0.029-0.168-0.086-0.23c-0.055-0.042-0.099-0.096-0.13-0.158l-1.959-3.111
				c-0.085-0.144-0.129-0.308-0.13-0.475v-6.51c-0.045-1.27-0.517-2.488-1.34-3.457c-0.911-1.141-2.131-1.996-3.514-2.463
				c-0.13-0.043-0.245-0.072-0.331-0.101c-0.416-0.098-0.713-0.466-0.72-0.893v-0.216c-0.095-0.687-0.682-1.199-1.375-1.199
				c-0.694,0-1.281,0.512-1.375,1.199v0.202c-0.001,0.425-0.293,0.793-0.706,0.893C27.798,21.191,27.712,21.22,27.625,21.249
				L27.625,21.249z M27.625,21.249"/>
		</g>
	</g>
</g>
</svg>
