<!-- Generator: Adobe Illustrator 22.0.0, SVG Export Plug-In  -->
<svg version="1.1"
	 xmlns="http://www.w3.org/2000/svg" xmlns:xlink="http://www.w3.org/1999/xlink" xmlns:a="http://ns.adobe.com/AdobeSVGViewerExtensions/3.0/"
	 x="0px" y="0px" width="60px" height="60px" viewBox="0 0 60 60" style="overflow:scroll;enable-background:new 0 0 60 60;"
	 xml:space="preserve">
<defs>
</defs>
<g>
	<circle style="opacity:0.4;fill:#67C23A;" cx="30" cy="30" r="30"/>
	<circle style="fill:#67C23A;" cx="30" cy="30" r="25"/>
	<g>
		<path style="fill:#FFFFFF;" d="M30,18c-4.063,0-9.913,2.112-11.7,2.112v14.463C18.462,36.363,19.925,41.563,30,44
			c10.075-2.437,11.537-7.8,11.7-9.425V20.112C40.075,20.112,34.062,18,30,18L30,18z M40.237,34.087
			c-0.162,1.625-1.462,6.175-10.237,8.288c-8.775-2.113-10.075-6.825-10.238-8.288V21.412c1.463,0,6.663-1.787,10.238-1.787
			s8.775,1.95,10.237,1.95V34.087z M40.237,34.087"/>
		<g>
			<path style="fill:#FFFFFF;" d="M27.879,24.243c-0.415,1.022-0.904,2.03-1.452,3.008v10.104h-1.304v-8.104
				c-0.445,0.607-0.919,1.171-1.378,1.645c-0.133-0.325-0.519-1.066-0.771-1.393c1.437-1.363,2.8-3.496,3.615-5.675L27.879,24.243z
				 M33.45,32.155c0.904,1.438,2.312,2.8,3.66,3.556c-0.296,0.267-0.756,0.756-0.963,1.097c-1.245-0.83-2.504-2.208-3.438-3.689
				V37.4h-1.378v-4.208c-0.993,1.481-2.296,2.8-3.615,3.586c-0.222-0.341-0.637-0.83-0.948-1.097
				c1.422-0.727,2.875-2.074,3.837-3.526h-3.363V30.91h4.089v-1.614h-3.052v-4.83h7.66v4.83h-3.23v1.614h4v1.245H33.45z
				 M29.568,28.066h4.993v-2.385h-4.993V28.066z"/>
		</g>
	</g>
</g>
</svg>
