<!-- Generator: Adobe Illustrator 22.0.0, SVG Export Plug-In  -->
<svg version="1.1"
	 xmlns="http://www.w3.org/2000/svg" xmlns:xlink="http://www.w3.org/1999/xlink" xmlns:a="http://ns.adobe.com/AdobeSVGViewerExtensions/3.0/"
	 x="0px" y="0px" width="60px" height="60px" viewBox="0 0 60 60" style="overflow:scroll;enable-background:new 0 0 60 60;"
	 xml:space="preserve">
<defs>
</defs>
<g>
	<circle style="opacity:0.4;fill:#1890FF;" cx="30" cy="30" r="30"/>
	<circle style="fill:#1890FF;" cx="30" cy="30" r="25"/>
	<g>
		<path style="fill:#FFFFFF;" d="M30,18c-4.063,0-9.913,2.112-11.7,2.112v14.463C18.462,36.363,19.925,41.563,30,44
			c10.075-2.437,11.537-7.8,11.7-9.425V20.112C40.075,20.112,34.062,18,30,18L30,18z M40.237,34.087
			c-0.162,1.625-1.462,6.175-10.237,8.288c-8.775-2.113-10.075-6.825-10.238-8.288V21.412c1.463,0,6.663-1.787,10.238-1.787
			s8.775,1.95,10.237,1.95V34.087z M40.237,34.087"/>
		<g>
			<path style="fill:#FFFFFF;" d="M27.256,31.874c-0.163-0.43-0.519-1.142-0.844-1.808v7.304h-1.26v-6.43
				c-0.385,1.304-0.874,2.519-1.377,3.318c-0.134-0.414-0.445-1.022-0.652-1.378c0.8-1.141,1.541-3.274,1.926-5.082H23.33V26.51
				h1.822v-2.711h1.26v2.711h1.363v1.289h-1.363v0.549c0.37,0.519,1.422,2.163,1.645,2.593L27.256,31.874z M29.524,28.466
				c-0.504,0.459-1.052,0.889-1.571,1.26c-0.163-0.282-0.563-0.859-0.814-1.126c1.822-1.111,3.585-2.949,4.593-4.935l1.186,0.43
				c-0.089,0.193-0.193,0.371-0.282,0.549c1.037,1.333,2.8,2.8,4.297,3.615c-0.252,0.325-0.548,0.918-0.682,1.273
				c-0.548-0.355-1.111-0.755-1.66-1.215v1.156h-5.067V28.466z M36.102,30.733c-0.608,1.556-1.438,3.438-2.178,4.771h2.504v1.215
				h-8.712v-1.215h5.082c0.741-1.393,1.63-3.526,2.089-5.067L36.102,30.733z M29.346,34.525c-0.133-0.948-0.504-2.399-0.889-3.526
				l1.067-0.267c0.415,1.097,0.8,2.534,0.934,3.497L29.346,34.525z M34.576,28.303c-0.963-0.8-1.882-1.704-2.623-2.593
				c-0.667,0.948-1.437,1.822-2.252,2.593H34.576z M31.864,34.081c-0.074-0.948-0.341-2.4-0.578-3.496l1.067-0.148
				c0.296,1.111,0.533,2.519,0.637,3.467L31.864,34.081z"/>
		</g>
	</g>
</g>
</svg>
