<!-- Generator: Adobe Illustrator 22.0.0, SVG Export Plug-In  -->
<svg version="1.1"
	 xmlns="http://www.w3.org/2000/svg" xmlns:xlink="http://www.w3.org/1999/xlink" xmlns:a="http://ns.adobe.com/AdobeSVGViewerExtensions/3.0/"
	 x="0px" y="0px" width="60px" height="60px" viewBox="0 0 60 60" style="overflow:scroll;enable-background:new 0 0 60 60;"
	 xml:space="preserve">
<defs>
</defs>
<g>
	<circle style="opacity:0.4;fill:#A886E4;" cx="30" cy="30" r="30"/>
	<circle style="fill:#A886E4;" cx="30" cy="30" r="25"/>
	<g>
		<g>
			<defs>
				<rect id="SVGID_1_" x="17" y="17.001" width="26" height="25.997"/>
			</defs>
			<clipPath id="SVGID_2_">
				<use xlink:href="#SVGID_1_"  style="overflow:visible;"/>
			</clipPath>
			<path style="clip-path:url(#SVGID_2_);fill:#FFFFFF;" d="M29.984,42.967c-5.251,0.001-9.985-3.159-11.998-8.008
				c-2.01-4.848-0.899-10.429,2.814-14.137c3.718-3.709,9.302-4.817,14.155-2.808c4.85,2.005,8.015,6.735,8.017,11.983
				c-0.002,3.442-1.372,6.743-3.808,9.175C36.728,41.604,33.426,42.969,29.984,42.967L29.984,42.967z M29.984,18.646
				c-6.272-0.004-11.359,5.077-11.364,11.349c0.002,3.012,1.2,5.9,3.331,8.029c2.131,2.129,5.021,3.324,8.033,3.322
				c3.012,0.002,5.902-1.193,8.033-3.322c2.131-2.129,3.329-5.017,3.331-8.029c0-3.011-1.197-5.898-3.328-8.026
				C35.887,19.84,32.997,18.645,29.984,18.646L29.984,18.646z M29.984,18.646"/>
		</g>
		<path style="fill:#FFFFFF;" d="M37.574,30.806c-0.448,0-0.812-0.363-0.812-0.812c0.002-1.046-0.238-2.078-0.708-3.016
			c-0.168-0.26-0.173-0.594-0.013-0.859c0.161-0.265,0.458-0.415,0.767-0.387c0.309,0.029,0.574,0.231,0.683,0.521
			c0.587,1.16,0.892,2.442,0.892,3.741C38.384,30.442,38.022,30.805,37.574,30.806L37.574,30.806z M22.393,30.806
			c-0.448-0.001-0.81-0.364-0.81-0.812c0-2.76,1.357-5.348,3.633-6.913c2.276-1.568,5.178-1.917,7.761-0.935
			c0.281,0.097,0.486,0.338,0.536,0.631c0.05,0.292-0.063,0.589-0.296,0.773c-0.233,0.184-0.547,0.227-0.82,0.111
			c-2.084-0.789-4.422-0.506-6.257,0.758c-1.835,1.263-2.933,3.347-2.936,5.575C23.205,30.443,22.841,30.806,22.393,30.806
			L22.393,30.806z M29.984,33.238c-1.31-0.004-2.489-0.794-2.991-2.004c-0.502-1.21-0.227-2.603,0.696-3.532
			c0.929-0.927,2.325-1.205,3.537-0.703c1.213,0.502,2.004,1.685,2.005,2.998C33.231,31.787,31.776,33.238,29.984,33.238
			L29.984,33.238z M29.984,28.373c-0.897,0-1.624,0.727-1.624,1.624c0,0.897,0.727,1.624,1.624,1.624
			c0.897,0,1.624-0.727,1.624-1.624C31.607,29.1,30.88,28.373,29.984,28.373L29.984,28.373z M29.984,28.373"/>
		<path style="fill:#FFFFFF;" d="M31.651,29.014c-0.321-0.002-0.611-0.194-0.738-0.489s-0.07-0.637,0.147-0.873l3.377-3.615
			c0.185-0.252,0.497-0.375,0.804-0.318c0.307,0.057,0.554,0.286,0.635,0.587c0.081,0.301-0.018,0.623-0.254,0.826l-3.377,3.615
			C32.092,28.915,31.877,29.012,31.651,29.014L31.651,29.014z M31.651,29.014"/>
	</g>
</g>
</svg>
