<!-- Generator: Adobe Illustrator 22.0.0, SVG Export Plug-In  -->
<svg version="1.1"
	 xmlns="http://www.w3.org/2000/svg" xmlns:xlink="http://www.w3.org/1999/xlink" xmlns:a="http://ns.adobe.com/AdobeSVGViewerExtensions/3.0/"
	 x="0px" y="0px" width="60px" height="60px" viewBox="0 0 60 60" style="overflow:scroll;enable-background:new 0 0 60 60;"
	 xml:space="preserve">
<defs>
</defs>
<g>
	<circle style="opacity:0.4;fill:#1890FF;" cx="30" cy="30" r="30"/>
	<circle style="fill:#1890FF;" cx="30" cy="30" r="25"/>
	<g>
		<g>
			<defs>
				<rect id="SVGID_1_" x="17.71" y="17" width="24.581" height="26"/>
			</defs>
			<clipPath id="SVGID_2_">
				<use xlink:href="#SVGID_1_"  style="overflow:visible;"/>
			</clipPath>
			<path style="clip-path:url(#SVGID_2_);fill:#FFFFFF;" d="M23.325,42.776c0.455-0.49,0.783-0.86,1.13-1.211
				c2.296-2.307,4.61-4.592,6.883-6.915c0.52-0.54,1.074-1.154,1.303-1.839c0.17-0.501,0.018-1.347-0.333-1.724
				c-0.345-0.377-1.152-0.556-1.696-0.464c-0.572,0.097-1.138,0.547-1.592,0.967c-1.17,1.084-2.279,2.231-3.41,3.355
				c-0.273,0.269-0.542,0.544-0.818,0.802c-0.347,0.329-0.783,0.609-1.133,0.138c-0.136-0.184-0.007-0.813,0.2-0.958
				c1.818-1.296,2.002-3.134,1.777-5.111c-0.108-0.967,0.421-2.029-0.421-2.884c-0.699,0.607-1.431,1.184-2.089,1.836
				c-0.997,0.986-1.91,2.057-2.919,3.031c-0.844,0.809-1.198,1.738-1.184,2.9c0.028,2.231-0.011,4.463-0.05,6.697
				c-0.009,0.536,0.196,1.386-0.545,1.429c-0.972,0.048-0.68-0.892-0.685-1.455c-0.018-2.486,0.042-4.977,0.025-7.462
				c-0.009-1.096,0.375-1.94,1.146-2.719c1.882-1.905,3.679-3.895,5.57-5.791c0.878-0.882,1.296-1.845,1.197-3.08
				c-0.058-0.696-0.043-1.404,0.007-2.103c0.142-1.972,1.197-3.104,3.134-3.141c3.443-0.064,6.89-0.064,10.334,0.002
				c1.926,0.037,3.054,1.204,3.066,3.176c0.044,5.933,0.048,11.867,0.011,17.798c-0.011,1.97-1.248,3.305-3.208,3.323
				c-3.693,0.035-7.391-0.044-11.084-0.173c-0.868-0.032-1.459,0.218-2.029,0.784C25.283,42.606,24.665,43.314,23.325,42.776
				L23.325,42.776z M36.725,29.325c0-2.935,0.007-5.867,0-8.801c-0.003-1.93-0.181-2.14-2.023-2.177
				c-1.719-0.039-3.443-0.044-5.166,0.005c-1.981,0.057-2.489,0.588-2.507,2.541c-0.023,2.553-0.046,5.104-0.004,7.655
				c0.011,0.717,0.246,1.429,0.377,2.144c0.586-0.333,1.179-0.655,1.756-1.002c1.257-0.756,2.96-0.703,3.957,0.14
				c0.993,0.839,1.346,2.326,0.747,3.672c-0.276,0.623-0.722,1.2-1.197,1.701c-1.089,1.165-2.259,2.25-3.348,3.417
				c-0.267,0.283-0.343,0.754-0.508,1.138c0.351,0.104,0.703,0.287,1.055,0.297c1.659,0.032,3.32,0.041,4.975,0.011
				c1.614-0.032,1.857-0.269,1.878-1.94C36.748,35.194,36.725,32.256,36.725,29.325L36.725,29.325z M38.076,29.201h0.007
				c0,0.763-0.003,1.524,0,2.287c0,2.353-0.007,4.704,0.011,7.059c0.007,0.657,0.117,1.321,0.936,1.436
				c0.816,0.117,1.369-0.374,1.636-1.048c0.204-0.508,0.211-1.117,0.214-1.677c0.014-5.405,0.014-10.812,0.004-16.215
				c-0.004-0.503-0.011-1.03-0.152-1.505c-0.235-0.761-0.848-1.103-1.625-1.041c-0.82,0.064-0.998,0.664-1.013,1.358
				c-0.007,0.319-0.014,0.636-0.014,0.954C38.076,23.604,38.076,26.402,38.076,29.201L38.076,29.201z M38.076,29.201"/>
		</g>
	</g>
</g>
</svg>
