<!-- Generator: Adobe Illustrator 22.0.0, SVG Export Plug-In  -->
<svg version="1.1"
	 xmlns="http://www.w3.org/2000/svg" xmlns:xlink="http://www.w3.org/1999/xlink" xmlns:a="http://ns.adobe.com/AdobeSVGViewerExtensions/3.0/"
	 x="0px" y="0px" width="60px" height="60px" viewBox="0 0 60 60" style="overflow:scroll;enable-background:new 0 0 60 60;"
	 xml:space="preserve">
<defs>
</defs>
<g>
	<circle style="opacity:0.4;fill:#E6A23C;" cx="30" cy="30" r="30"/>
	<circle style="fill:#E6A23C;" cx="30" cy="30" r="25"/>
	<g>
		<g>
			<defs>
				<rect id="SVGID_1_" x="18.865" y="17" width="22.271" height="26"/>
			</defs>
			<clipPath id="SVGID_2_">
				<use xlink:href="#SVGID_1_"  style="overflow:visible;"/>
			</clipPath>
			<path style="clip-path:url(#SVGID_2_);fill:#FFFFFF;" d="M39.259,20.345c0,0.951-0.365,1.865-1.02,2.555l-5.517,5.807
				l-0.645,0.679c-0.319,0.335-0.319,0.862,0,1.197l0.645,0.679l5.517,5.807c0.655,0.689,1.02,1.604,1.02,2.554v0.56
				c0,0.512-0.415,0.927-0.927,0.927h-16.69c-0.512,0-0.927-0.415-0.927-0.927v-0.56c0-0.951,0.365-1.865,1.02-2.554l5.517-5.807
				l0.645-0.679c0.319-0.336,0.319-0.862,0-1.197l-0.645-0.679L21.735,22.9c-0.655-0.689-1.02-1.604-1.02-2.555v-0.56
				c0-0.512,0.415-0.927,0.927-0.927h16.69c0.512,0,0.927,0.415,0.927,0.927V20.345z M20.715,17.003
				c-1.024,0-1.854,0.83-1.854,1.854v2.228c0,0.951,0.365,1.865,1.02,2.554l5.837,6.145c0.106,0.112,0.106,0.287,0,0.399
				L19.88,36.33c-0.654,0.689-1.02,1.603-1.02,2.553v2.228c0,0.492,0.195,0.963,0.543,1.311c0.348,0.348,0.819,0.543,1.311,0.543
				h18.545c1.024,0,1.854-0.83,1.854-1.854v-2.228c0-0.95-0.365-1.864-1.02-2.553l-5.837-6.146c-0.106-0.112-0.106-0.287,0-0.399
				l5.837-6.145c0.655-0.689,1.02-1.604,1.02-2.554v-2.228c0-1.024-0.83-1.854-1.854-1.854H20.715z M20.715,17.003"/>
		</g>
		<path style="fill:#FFFFFF;" d="M25.351,37.402h9.33c0.618,0,0.927,0.309,0.927,0.927c0,0.618-0.309,0.927-0.927,0.927h-9.33
			c-0.618,0-0.927-0.309-0.927-0.927C24.424,37.711,24.733,37.402,25.351,37.402L25.351,37.402z M25.351,37.402"/>
	</g>
</g>
</svg>
