<!-- Generator: Adobe Illustrator 22.0.0, SVG Export Plug-In  -->
<svg version="1.1"
	 xmlns="http://www.w3.org/2000/svg" xmlns:xlink="http://www.w3.org/1999/xlink" xmlns:a="http://ns.adobe.com/AdobeSVGViewerExtensions/3.0/"
	 x="0px" y="0px" width="60px" height="60px" viewBox="0 0 60 60" style="overflow:scroll;enable-background:new 0 0 60 60;"
	 xml:space="preserve">
<defs>
</defs>
<g>
	<circle style="opacity:0.4;fill:#7EDBD0;" cx="30" cy="30" r="30"/>
	<circle style="fill:#7EDBD0;" cx="30" cy="30" r="25"/>
	<g>
		<g>
			<defs>
				<rect id="SVGID_1_" x="17" y="18.056" width="26" height="25.888"/>
			</defs>
			<clipPath id="SVGID_2_">
				<use xlink:href="#SVGID_1_"  style="overflow:visible;"/>
			</clipPath>
			<path style="clip-path:url(#SVGID_2_);fill:#FFFFFF;" d="M42.943,33.391c-0.113-0.329-0.421-0.55-0.769-0.55h-3.573V19.711
				c0-0.896-0.729-1.624-1.624-1.624H22.96c-0.896,0-1.624,0.728-1.624,1.624v13.131h-3.527c-0.347,0-0.656,0.22-0.769,0.549
				c-0.113,0.328-0.004,0.692,0.27,0.905l12.16,9.443c0.143,0.111,0.318,0.171,0.498,0.171c0.18,0,0.355-0.06,0.497-0.17
				l12.206-9.443C42.946,34.084,43.056,33.72,42.943,33.391L42.943,33.391z M29.969,42.069l-9.791-7.603h1.969
				c0.449,0,0.812-0.364,0.812-0.812V19.711h14.017v13.943c0,0.449,0.363,0.812,0.812,0.812h2.008L29.969,42.069z M29.969,42.069"/>
		</g>
		<path style="fill:#FFFFFF;" d="M33.666,30.53L33.666,30.53c0.449,0,0.813-0.363,0.813-0.812c0-0.449-0.363-0.813-0.811-0.813
			l-1.99-0.002l2.202-2.623c0.289-0.344,0.244-0.856-0.1-1.144c-0.344-0.289-0.857-0.242-1.144,0.1l-2.588,3.083l-2.589-3.083
			c-0.286-0.342-0.8-0.389-1.144-0.099c-0.344,0.288-0.389,0.801-0.1,1.144l2.2,2.62L26.317,28.9h-0.001
			c-0.448,0-0.812,0.363-0.812,0.811c0,0.449,0.363,0.813,0.811,0.813l2.866,0.002l-0.001,1.234l-2.863-0.002h-0.001
			c-0.448,0-0.812,0.363-0.812,0.811c0,0.449,0.363,0.813,0.811,0.813l2.863,0.002l-0.002,2.207
			c-0.001,0.448,0.363,0.812,0.811,0.813h0.001c0.448,0,0.811-0.363,0.812-0.811l0.002-2.207l2.863,0.002h0.001
			c0.448,0,0.812-0.363,0.812-0.811c0-0.449-0.363-0.813-0.811-0.813l-2.863-0.002l0.001-1.234L33.666,30.53z M33.666,30.53"/>
	</g>
</g>
</svg>
