<!-- Generator: Adobe Illustrator 22.0.0, SVG Export Plug-In  -->
<svg version="1.1"
	 xmlns="http://www.w3.org/2000/svg" xmlns:xlink="http://www.w3.org/1999/xlink" xmlns:a="http://ns.adobe.com/AdobeSVGViewerExtensions/3.0/"
	 x="0px" y="0px" width="60px" height="60px" viewBox="0 0 60 60" style="overflow:scroll;enable-background:new 0 0 60 60;"
	 xml:space="preserve">
<defs>
</defs>
<g>
	<circle style="opacity:0.4;fill:#EDD721;" cx="30" cy="30" r="30"/>
	<circle style="fill:#EDD721;" cx="30" cy="30" r="25"/>
	<g>
		<g>
			<defs>
				<rect id="SVGID_1_" x="17.017" y="17" width="25.965" height="26"/>
			</defs>
			<clipPath id="SVGID_2_">
				<use xlink:href="#SVGID_1_"  style="overflow:visible;"/>
			</clipPath>
			<path style="clip-path:url(#SVGID_2_);fill:#FFFFFF;" d="M36.304,33.98l-0.183-0.015c-5.276-0.426-6.398-0.426-6.992-0.214
				c-0.811,0.29-1.374,1.136-1.368,2.054c0.006,0.895,0.533,1.628,1.376,1.915c1.046,0.357,4.239,0.768,4.874,0.846l0.096,0.006
				c0.397,0,0.733-0.307,0.782-0.716c0.052-0.443-0.258-0.849-0.69-0.901c-0.753-0.093-3.732-0.493-4.567-0.777
				c-0.136-0.046-0.296-0.133-0.296-0.385c0-0.197,0.113-0.44,0.301-0.507c0.264-0.078,0.779-0.151,6.36,0.296
				c0.49,0.041,0.843,0.064,0.988,0.072c0.261,0.049,2.475,0.855,4.935,1.797c0.197,0.075,0.409,0.069,0.603-0.02
				c0.191-0.09,0.339-0.252,0.411-0.455c0.072-0.203,0.067-0.423-0.023-0.62c-0.087-0.197-0.243-0.348-0.44-0.423
				c-4.946-1.892-5.236-1.86-5.381-1.892C37.025,34.038,36.736,34.015,36.304,33.98L36.304,33.98z M42.412,41.259
				c-0.533-0.157-5.265-1.539-6.902-1.539c-0.895,0-2.283,0.408-3.758,0.843c-1.24,0.365-2.648,0.779-3.326,0.779
				c-0.855,0-3.889-1.454-8.504-3.802l-0.6-0.304c-0.597-0.296-0.797-0.739-0.713-0.942c0.098-0.235,0.681-0.397,1.669-0.017
				c3.445,1.319,6.705,2.573,6.711,2.576c0.264,0.107,0.762,0.075,0.977-0.464c0.191-0.481-0.064-0.898-0.417-1.052
				c0,0-3.269-1.258-6.72-2.579c-2.098-0.806-3.286-0.017-3.665,0.901c-0.394,0.95-0.012,2.298,1.472,3.04l0.8,0.406
				c3.909,1.985,7.6,3.86,8.994,3.86c0.895,0,2.283-0.408,3.758-0.843c1.24-0.365,2.648-0.78,3.326-0.78
				c1.217,0,5.178,1.092,6.476,1.478c0.417,0.119,0.849-0.133,0.968-0.559C43.073,41.832,42.829,41.383,42.412,41.259L42.412,41.259
				z M20.741,33.481c0.409-0.185,0.588-0.666,0.4-1.075c-0.582-1.272-0.878-2.634-0.878-4.045c0-5.369,4.37-9.739,9.739-9.739
				c5.369,0,9.739,4.37,9.739,9.739c0,1.565-0.379,3.118-1.098,4.494c-0.209,0.397-0.052,0.887,0.345,1.095
				c0.119,0.064,0.249,0.093,0.374,0.093c0.293,0,0.577-0.159,0.721-0.438c0.837-1.608,1.281-3.422,1.281-5.245
				C41.363,22.097,36.266,17,30.002,17S18.64,22.097,18.64,28.359c0,1.646,0.345,3.234,1.026,4.72
				C19.851,33.487,20.332,33.67,20.741,33.481L20.741,33.481z M26.756,27.547c-0.446,0-0.811,0.365-0.811,0.811
				c0,0.446,0.365,0.811,0.811,0.811h2.434v1.623c0,0.446,0.365,0.811,0.811,0.811c0.446,0,0.811-0.365,0.811-0.811V29.17h2.434
				c0.446,0,0.811-0.365,0.811-0.811c0-0.446-0.365-0.811-0.811-0.811h-2.434v-0.811h2.434c0.446,0,0.811-0.365,0.811-0.811
				c0-0.446-0.365-0.811-0.811-0.811h-1.692l1.385-1.385c0.316-0.316,0.316-0.832,0-1.148c-0.316-0.316-0.832-0.316-1.147,0
				l-1.721,1.721c-0.032,0.032-0.044,0.069-0.07,0.104c-0.023-0.035-0.038-0.072-0.069-0.104l-1.724-1.724
				c-0.316-0.316-0.832-0.316-1.147,0s-0.316,0.832,0,1.147l1.385,1.385h-1.692c-0.446,0-0.811,0.365-0.811,0.811
				c0,0.446,0.365,0.811,0.811,0.811h2.434v0.811L26.756,27.547z M26.756,27.547"/>
		</g>
	</g>
</g>
</svg>
