<!-- Generator: Adobe Illustrator 22.0.0, SVG Export Plug-In  -->
<svg version="1.1"
	 xmlns="http://www.w3.org/2000/svg" xmlns:xlink="http://www.w3.org/1999/xlink" xmlns:a="http://ns.adobe.com/AdobeSVGViewerExtensions/3.0/"
	 x="0px" y="0px" width="60px" height="60px" viewBox="0 0 60 60" style="overflow:scroll;enable-background:new 0 0 60 60;"
	 xml:space="preserve">
<defs>
</defs>
<g>
	<circle style="opacity:0.4;fill:#67C23A;" cx="30" cy="30" r="30"/>
	<circle style="fill:#67C23A;" cx="30" cy="30" r="25"/>
	<g>
		<path style="fill:#FFFFFF;" d="M29.934,28.893c-0.233,0-0.463-0.099-0.624-0.29l-2.904-3.459c-0.289-0.344-0.245-0.857,0.1-1.146
			c0.345-0.289,0.858-0.243,1.145,0.1l2.904,3.459c0.289,0.344,0.245,0.857-0.1,1.146C30.31,28.826,30.125,28.894,29.934,28.893
			L29.934,28.893z M29.934,28.893"/>
		<path style="fill:#FFFFFF;" d="M30.554,28.893c-0.191,0-0.376-0.067-0.522-0.19c-0.345-0.289-0.389-0.802-0.1-1.146l2.904-3.459
			c0.288-0.343,0.801-0.389,1.145-0.1c0.345,0.289,0.389,0.802,0.1,1.146l-2.904,3.459C31.017,28.795,30.787,28.893,30.554,28.893
			L30.554,28.893z M30.554,28.893"/>
		<g>
			<defs>
				<rect id="SVGID_1_" x="19.018" y="17" width="25.964" height="26"/>
			</defs>
			<clipPath id="SVGID_2_">
				<use xlink:href="#SVGID_1_"  style="overflow:visible;"/>
			</clipPath>
			<path style="clip-path:url(#SVGID_2_);fill:#FFFFFF;" d="M33.869,29.398L33.869,29.398l-7.362-0.006
				c-0.449,0-0.813-0.364-0.813-0.814c0-0.449,0.365-0.812,0.813-0.812h0.001l7.361,0.006c0.449,0,0.813,0.365,0.813,0.814
				C34.682,29.034,34.317,29.398,33.869,29.398L33.869,29.398z M33.869,32.261L33.869,32.261l-7.362-0.006
				c-0.449,0-0.813-0.365-0.813-0.814c0-0.449,0.365-0.812,0.813-0.812h0.001l7.361,0.006c0.449,0,0.813,0.365,0.813,0.814
				C34.682,31.897,34.317,32.261,33.869,32.261L33.869,32.261z M33.869,32.261"/>
			<path style="clip-path:url(#SVGID_2_);fill:#FFFFFF;" d="M30.185,35.281L30.185,35.281c-0.45,0-0.814-0.365-0.813-0.814
				l0.006-6.07c0.001-0.449,0.365-0.812,0.813-0.812h0.001c0.449,0,0.813,0.365,0.813,0.814l-0.006,6.07
				C30.997,34.917,30.634,35.281,30.185,35.281L30.185,35.281z M39.377,42.95c-0.179,0-0.352-0.059-0.494-0.167l-3.538-2.705
				c-0.357-0.273-0.425-0.783-0.152-1.14c0.274-0.356,0.784-0.425,1.14-0.152l2.935,2.244l4.256-4.839
				c0.296-0.337,0.812-0.369,1.148-0.073c0.338,0.297,0.37,0.81,0.074,1.148l-4.757,5.409C39.833,42.85,39.61,42.95,39.377,42.95
				L39.377,42.95z M39.377,42.95"/>
			<path style="clip-path:url(#SVGID_2_);fill:#FFFFFF;" d="M34.347,42.965H20.856c-1.016,0-1.843-0.827-1.843-1.843V18.855
				c0-1.016,0.826-1.843,1.843-1.843H39.52c1.016,0,1.843,0.827,1.843,1.843v17.683h-1.627V18.855c0-0.119-0.097-0.216-0.216-0.216
				H20.856c-0.119,0-0.216,0.097-0.216,0.216v22.267c0,0.119,0.097,0.216,0.216,0.216h13.491V42.965z M34.347,42.965"/>
		</g>
	</g>
</g>
</svg>
