<!-- Generator: Adobe Illustrator 22.0.0, SVG Export Plug-In  -->
<svg version="1.1"
	 xmlns="http://www.w3.org/2000/svg" xmlns:xlink="http://www.w3.org/1999/xlink" xmlns:a="http://ns.adobe.com/AdobeSVGViewerExtensions/3.0/"
	 x="0px" y="0px" width="60px" height="60px" viewBox="0 0 60 60" style="overflow:scroll;enable-background:new 0 0 60 60;"
	 xml:space="preserve">
<defs>
</defs>
<g>
	<circle style="opacity:0.4;fill:#F56C6C;" cx="30" cy="30" r="30"/>
	<circle style="fill:#F56C6C;" cx="30" cy="30" r="25"/>
	<g>
		<g>
			<defs>
				<rect id="SVGID_1_" x="17.017" y="17" width="25.965" height="26"/>
			</defs>
			<clipPath id="SVGID_2_">
				<use xlink:href="#SVGID_1_"  style="overflow:visible;"/>
			</clipPath>
			<path style="clip-path:url(#SVGID_2_);fill:#FFFFFF;" d="M42.952,41.812c0,0.624-0.506,1.133-1.133,1.133H29.498
				c-0.624,0-1.133-0.506-1.133-1.133c0-0.624,0.505-1.133,1.133-1.133H41.82C42.444,40.68,42.952,41.185,42.952,41.812
				L42.952,41.812z M42.952,41.812"/>
			<path style="clip-path:url(#SVGID_2_);fill:#FFFFFF;" d="M42.643,42.633c-0.445,0.445-1.16,0.445-1.602,0.003l-4.481-4.484
				c-0.442-0.442-0.442-1.158,0-1.6l0.003-0.003c0.442-0.442,1.158-0.442,1.6,0l4.481,4.481
				C43.085,41.473,43.085,42.191,42.643,42.633L42.643,42.633z M42.643,42.633"/>
			<path style="clip-path:url(#SVGID_2_);fill:#FFFFFF;" d="M40.464,33.035c0.152,0.374,0.492,0.639,0.892,0.694
				c0.4,0.055,0.799-0.107,1.047-0.425c0.248-0.319,0.307-0.745,0.155-1.119c-0.152-0.374-0.492-0.639-0.892-0.694
				c-0.4-0.055-0.799,0.107-1.047,0.425C40.371,32.235,40.311,32.662,40.464,33.035L40.464,33.035z M40.464,33.035"/>
			<path style="clip-path:url(#SVGID_2_);fill:#FFFFFF;" d="M41.999,25.09c-2.696-6.633-10.261-9.827-16.897-7.133
				c-6.633,2.696-9.827,10.261-7.133,16.897c2.045,5.034,6.896,8.089,12.015,8.089v-2.271c-4.222-0.003-8.222-2.52-9.91-6.672
				c-2.224-5.473,0.412-11.711,5.885-13.935c5.473-2.224,11.711,0.412,13.935,5.885c0.851,2.097,0.992,4.304,0.53,6.357l1.997,0.716
				c0.003-0.047,0.028-0.086,0.066-0.102c0.039-0.017,0.08-0.039,0.113-0.011C43.201,30.38,43.052,27.681,41.999,25.09L41.999,25.09
				z M41.999,25.09"/>
		</g>
		<path style="fill:#FFFFFF;" d="M34.576,29.129c0,0.624-0.506,1.133-1.133,1.133h-7.365c-0.624,0-1.133-0.506-1.133-1.133
			c0-0.624,0.506-1.133,1.133-1.133h7.368C34.07,27.996,34.576,28.502,34.576,29.129L34.576,29.129z M34.576,29.129"/>
		<path style="fill:#FFFFFF;" d="M30.495,28.687c-0.442,0.442-1.158,0.442-1.6,0l-3.633-3.63c-0.442-0.442-0.442-1.158,0-1.6
			c0.442-0.442,1.158-0.442,1.6,0l3.63,3.63C30.935,27.529,30.935,28.245,30.495,28.687L30.495,28.687z M30.495,28.687"/>
		<path style="fill:#FFFFFF;" d="M29.086,28.687c-0.442-0.442-0.442-1.158,0-1.6l3.63-3.63c0.442-0.442,1.158-0.442,1.6,0
			c0.442,0.442,0.442,1.158,0,1.6l-3.63,3.63C30.244,29.129,29.528,29.129,29.086,28.687L29.086,28.687z M34.576,32.977
			c0,0.624-0.506,1.133-1.133,1.133h-7.368c-0.624,0-1.133-0.506-1.133-1.133c0-0.624,0.506-1.133,1.133-1.133h7.368
			C34.07,31.844,34.576,32.353,34.576,32.977L34.576,32.977z M34.576,32.977"/>
		<path style="fill:#FFFFFF;" d="M29.76,36.881c-0.624,0-1.133-0.505-1.133-1.133V28.38c0-0.624,0.506-1.133,1.133-1.133
			c0.624,0,1.133,0.505,1.133,1.133v7.368C30.893,36.373,30.385,36.881,29.76,36.881L29.76,36.881z M29.76,36.881"/>
	</g>
</g>
</svg>
