<!-- Generator: Adobe Illustrator 22.0.0, SVG Export Plug-In  -->
<svg version="1.1"
	 xmlns="http://www.w3.org/2000/svg" xmlns:xlink="http://www.w3.org/1999/xlink" xmlns:a="http://ns.adobe.com/AdobeSVGViewerExtensions/3.0/"
	 x="0px" y="0px" width="60px" height="60px" viewBox="0 0 60 60" style="overflow:scroll;enable-background:new 0 0 60 60;"
	 xml:space="preserve">
<defs>
</defs>
<g>
	<circle style="opacity:0.4;fill:#E37518;" cx="30" cy="30" r="30"/>
	<circle style="fill:#E37518;" cx="30" cy="30" r="25"/>
	<g>
		<g>
			<defs>
				<rect id="SVGID_1_" x="17" y="17.871" width="26" height="24.258"/>
			</defs>
			<clipPath id="SVGID_2_">
				<use xlink:href="#SVGID_1_"  style="overflow:visible;"/>
			</clipPath>
			<path style="clip-path:url(#SVGID_2_);fill:#FFFFFF;" d="M25.324,31.835h-3.719c-0.513,0-0.93-0.416-0.93-0.93
				c0-0.513,0.417-0.93,0.93-0.93h2.789v-2.789c0-0.513,0.417-0.93,0.93-0.93c0.513,0,0.93,0.417,0.93,0.93v3.719
				C26.254,31.42,25.838,31.835,25.324,31.835L25.324,31.835z M35.498,34.476c-1.8,0-3.303,1.258-3.699,2.938h-3.597
				c-0.394-1.682-1.899-2.941-3.7-2.941c-2.1,0-3.809,1.708-3.809,3.808c0,2.102,1.709,3.813,3.809,3.813
				c1.754,0,3.221-1.201,3.66-2.82h3.674c0.439,1.619,1.905,2.818,3.661,2.818c2.098,0,3.806-1.708,3.806-3.808
				C39.304,36.184,37.596,34.476,35.498,34.476L35.498,34.476z M24.503,40.234c-1.075,0-1.95-0.876-1.95-1.953
				c0-1.074,0.874-1.949,1.95-1.949c1.075,0,1.949,0.874,1.949,1.949C26.452,39.358,25.578,40.234,24.503,40.234L24.503,40.234z
				 M35.498,40.232c-1.074,0-1.949-0.874-1.949-1.949c0-1.075,0.874-1.949,1.949-1.949c1.073,0,1.947,0.874,1.947,1.949
				C37.445,39.358,36.572,40.232,35.498,40.232L35.498,40.232z M35.498,40.232"/>
			<path style="clip-path:url(#SVGID_2_);fill:#FFFFFF;" d="M40.202,17.889h-13.49c-1.278,0-2.317,1.039-2.317,2.317v2.688
				l-5.656,2.842c-0.04,0.021-0.079,0.044-0.116,0.07c-1.049,0.737-1.627,1.887-1.627,3.24v9.355c0,0.514,0.417,0.93,0.93,0.93
				c0.513,0,0.93-0.416,0.93-0.93v-9.355c0-0.727,0.264-1.293,0.786-1.682l6.101-3.065c0.042-0.021,0.069-0.058,0.106-0.084
				c0.055-0.038,0.11-0.072,0.154-0.121c0.041-0.045,0.068-0.097,0.099-0.147c0.032-0.05,0.065-0.097,0.086-0.153
				c0.023-0.063,0.03-0.128,0.039-0.194c0.007-0.046,0.027-0.086,0.027-0.132v-3.262c0-0.252,0.205-0.458,0.457-0.458h13.49
				c0.512,0,0.929,0.424,0.929,0.945v17.651c0,0.514,0.416,0.93,0.93,0.93c0.514,0,0.93-0.416,0.93-0.93V20.693
				C42.99,19.147,41.738,17.889,40.202,17.889L40.202,17.889z M40.202,17.889"/>
		</g>
	</g>
</g>
</svg>
