<!-- Generator: Adobe Illustrator 22.0.0, SVG Export Plug-In  -->
<svg version="1.1"
	 xmlns="http://www.w3.org/2000/svg" xmlns:xlink="http://www.w3.org/1999/xlink" xmlns:a="http://ns.adobe.com/AdobeSVGViewerExtensions/3.0/"
	 x="0px" y="0px" width="60px" height="60px" viewBox="0 0 60 60" style="overflow:scroll;enable-background:new 0 0 60 60;"
	 xml:space="preserve">
<defs>
</defs>
<g>
	<circle style="opacity:0.4;fill:#67C23A;" cx="30" cy="30" r="30"/>
	<circle style="fill:#67C23A;" cx="30" cy="30" r="25"/>
	<g>
		<g>
			<defs>
				<rect id="SVGID_1_" x="18.77" y="17" width="22.459" height="26"/>
			</defs>
			<clipPath id="SVGID_2_">
				<use xlink:href="#SVGID_1_"  style="overflow:visible;"/>
			</clipPath>
			<path style="clip-path:url(#SVGID_2_);fill:#FFFFFF;" d="M39.836,20.893h-4.441l-0.026-0.103
				c-0.187-0.696-0.817-1.182-1.538-1.185h-1.282c-0.035-0.011-0.064-0.035-0.082-0.067l-0.313-1.338
				c-0.186-0.697-0.817-1.183-1.538-1.185h-1.282c-0.722,0.001-1.353,0.487-1.538,1.185l-0.333,1.318
				c-0.018,0.031-0.048,0.055-0.082,0.067h-1.282c-0.72,0.005-1.35,0.489-1.538,1.184l-0.026,0.103h-4.379
				c-0.375,0-0.735,0.152-0.996,0.422c-0.261,0.27-0.401,0.634-0.389,1.009v19.281c0,0.765,0.62,1.384,1.385,1.384h19.681
				c0.765,0,1.385-0.62,1.385-1.384V22.303c0-0.765-0.62-1.384-1.385-1.384V20.893z M26.063,21.155
				c0.025-0.028,0.054-0.05,0.087-0.067h1.282c0.721-0.003,1.351-0.488,1.538-1.185l0.328-1.318c0.02-0.032,0.051-0.056,0.087-0.067
				h1.272c0.036,0.011,0.067,0.035,0.087,0.067l0.328,1.318c0.187,0.696,0.817,1.182,1.538,1.185h1.282
				c0.033,0.016,0.063,0.039,0.087,0.067l0.251,1.026h-8.425L26.063,21.155z M39.734,41.456H20.248V22.375h3.995
				c-0.009,0.297,0.091,0.587,0.282,0.815c0.239,0.305,0.607,0.48,0.995,0.472h8.974c0.387,0.008,0.756-0.167,0.995-0.472
				c0.18-0.233,0.269-0.522,0.251-0.815h3.995V41.456z M35.631,26.847h-6.328v6.861c-0.495-0.567-1.008-1.117-1.538-1.651
				l-0.195-0.19l-0.267,0.236v-0.743h1.979v-1.477h-2v-1.497l1.615-0.149l0.333-0.036l-0.364-1.538l-0.267,0.036
				c-1.236,0.174-2.743,0.313-4.477,0.41h-0.354l0.087,0.349c0.077,0.291,0.139,0.585,0.185,0.882l0.036,0.272h0.272
				c0.513-0.031,0.979-0.067,1.42-0.103v1.374h-2.051v1.477h1.785c-0.408,1.327-1.013,2.586-1.795,3.733l-0.092,0.133l0.062,0.154
				c0.154,0.354,0.297,0.708,0.436,1.067l0.195,0.513l0.318-0.446c0.434-0.62,0.815-1.275,1.138-1.959v4.425h1.513v-5.323
				c0.318,0.359,0.62,0.733,0.918,1.113l0.19,0.241l0.913-0.785v2.749h-1.497v1.477h8.907v-1.477h-1.077V26.847z M34.093,36.974
				h-3.225v-1.933h3.2L34.093,36.974z M34.093,33.579h-3.225v-1.897h3.2L34.093,33.579z M34.093,30.221h-3.225v-1.897h3.2
				L34.093,30.221z M34.093,30.221"/>
		</g>
	</g>
</g>
</svg>
