<!-- Generator: Adobe Illustrator 22.0.0, SVG Export Plug-In  -->
<svg version="1.1"
	 xmlns="http://www.w3.org/2000/svg" xmlns:xlink="http://www.w3.org/1999/xlink" xmlns:a="http://ns.adobe.com/AdobeSVGViewerExtensions/3.0/"
	 x="0px" y="0px" width="60px" height="60px" viewBox="0 0 60 60" style="overflow:scroll;enable-background:new 0 0 60 60;"
	 xml:space="preserve">
<defs>
</defs>
<g>
	<circle style="opacity:0.4;fill:#7EDBD0;" cx="30" cy="30" r="30"/>
	<circle style="fill:#7EDBD0;" cx="30" cy="30" r="25"/>
	<g>
		<path style="fill:#FFFFFF;" d="M26.939,30.032h-0.465c-0.554,0.001-1.002,0.45-1.003,1.003v0.082c0,0.554,0.449,1.003,1.003,1.003
			h0.466c0.554-0.001,1.002-0.45,1.002-1.003v-0.082C27.941,30.482,27.493,30.033,26.939,30.032L26.939,30.032z M27.177,31.118
			c0,0.131-0.106,0.237-0.237,0.238h-0.466c-0.132,0-0.238-0.107-0.238-0.239v-0.082c0-0.132,0.106-0.238,0.238-0.239h0.465
			c0.132,0,0.238,0.107,0.238,0.239V31.118z M33.458,30.032h-0.465c-0.554,0.001-1.002,0.45-1.003,1.003v0.082
			c0,0.554,0.449,1.003,1.003,1.003h0.466c0.554-0.001,1.002-0.45,1.002-1.003v-0.082C34.46,30.482,34.011,30.033,33.458,30.032
			L33.458,30.032z M33.695,31.036v0.082c-0.001,0.131-0.106,0.237-0.237,0.238h-0.466c-0.132,0-0.238-0.107-0.238-0.239v-0.082
			c0-0.132,0.106-0.238,0.238-0.239h0.465C33.589,30.797,33.695,30.904,33.695,31.036L33.695,31.036z M33.695,31.036"/>
		<g>
			<defs>
				<rect id="SVGID_1_" x="17.677" y="17" width="24.645" height="26"/>
			</defs>
			<clipPath id="SVGID_2_">
				<use xlink:href="#SVGID_1_"  style="overflow:visible;"/>
			</clipPath>
			<path style="clip-path:url(#SVGID_2_);fill:#FFFFFF;" d="M34.646,35.428c-0.787-0.005-1.458-0.575-1.589-1.351l-1.129,0.087
				c-1.283,0.098-2.573,0.098-3.856,0l-1.129-0.087c-0.135,0.796-0.834,1.372-1.641,1.351c-0.807-0.021-1.476-0.632-1.569-1.434
				l-0.178-1.606c-0.002-0.021-0.004-0.043-0.004-0.065v-1.937c0-0.446,0.071-0.889,0.21-1.312c-0.5-0.051-0.981-0.328-0.981-0.749
				v-0.029c0-0.464,0.61-0.992,1.144-0.992h0.037c0.195,0.003,0.384,0.068,0.539,0.186l0.921-1.846
				c0.358-0.71,1.06-1.183,1.852-1.247l0.692-0.053c1.355-0.104,2.715-0.104,4.07,0l0.692,0.053
				c0.793,0.064,1.494,0.537,1.851,1.247l0.918,1.84c0.153-0.114,0.339-0.177,0.53-0.18h0.036c0.535,0,1.144,0.529,1.144,0.992
				v0.029c0,0.418-0.476,0.694-0.969,0.749c0.139,0.424,0.21,0.867,0.21,1.314v1.937c0,0.022-0.001,0.043-0.004,0.065l-0.178,1.606
				c-0.09,0.816-0.78,1.434-1.601,1.434L34.646,35.428z M34.046,33.869c0.028,0.311,0.288,0.549,0.6,0.551h0.02
				c0.308,0,0.566-0.232,0.599-0.538L35.44,32.3v-1.914c0-0.499-0.116-0.991-0.339-1.438l-1.425-2.856
				c-0.198-0.394-0.587-0.657-1.027-0.692l-0.692-0.053c-1.303-0.1-2.612-0.1-3.915,0L27.351,25.4
				c-0.44,0.036-0.83,0.298-1.028,0.693l-1.425,2.854c-0.222,0.447-0.338,0.939-0.339,1.438v1.914l0.175,1.583
				c0.036,0.312,0.304,0.546,0.618,0.538c0.312-0.001,0.572-0.24,0.6-0.55l0.076-0.875l2.12,0.163c1.232,0.095,2.469,0.095,3.701,0
				l2.119-0.163L34.046,33.869z M34.046,33.869"/>
			<path style="clip-path:url(#SVGID_2_);fill:#FFFFFF;" d="M33.835,28.352c-0.003,0.001-0.007,0.002-0.01,0.002l-0.14-0.752
				c-0.017,0.003-0.031,0.007-0.073,0.017c-1.112,0.277-2.251,0.435-3.396,0.47h-0.338c-0.9,0-2.14-0.181-3.491-0.509
				c-0.055-0.013-0.07-0.017-0.087-0.02l-0.137,0.752l-0.009-0.002c0.009,0.002,0.026,0.006,0.053,0.013
				c1.078,0.275,2.179,0.449,3.289,0.521v0.013h0.382c1.322-0.01,2.638-0.177,3.92-0.497C33.816,28.357,33.828,28.353,33.835,28.352
				L33.835,28.352z M41.56,26.765c-0.322,0-0.608-0.204-0.713-0.508C39.257,21.622,34.9,18.509,30,18.506
				c-4.899-0.003-9.26,3.105-10.857,7.737l-0.006,0.014c-0.122,0.346-0.476,0.554-0.838,0.492c-0.362-0.062-0.626-0.375-0.627-0.743
				v-4.076c0-0.416,0.338-0.754,0.754-0.754c0.416,0,0.754,0.338,0.754,0.754v0.818l0.476-0.626
				c3.388-4.462,9.259-6.244,14.555-4.418c3.793,1.29,6.771,4.269,8.06,8.062c0.079,0.23,0.043,0.484-0.098,0.682
				C42.033,26.647,41.804,26.765,41.56,26.765L41.56,26.765z M29.975,42.969c-5.512-0.009-10.421-3.49-12.253-8.688
				c-0.113-0.396,0.113-0.809,0.507-0.929c0.071-0.021,0.145-0.032,0.219-0.032c0.309-0.001,0.587,0.188,0.7,0.475
				c1.619,4.598,5.966,7.673,10.84,7.667c4.875-0.006,9.215-3.09,10.823-7.692c0.117-0.354,0.472-0.572,0.841-0.514
				c0.368,0.057,0.641,0.372,0.645,0.745v4.076c0,0.416-0.338,0.754-0.754,0.754c-0.416,0-0.754-0.337-0.754-0.754v-0.861
				l-0.476,0.626C37.849,41.061,34.029,42.956,29.975,42.969L29.975,42.969z M29.975,42.969"/>
		</g>
	</g>
</g>
</svg>
