<!-- Generator: Adobe Illustrator 22.0.0, SVG Export Plug-In  -->
<svg version="1.1"
	 xmlns="http://www.w3.org/2000/svg" xmlns:xlink="http://www.w3.org/1999/xlink" xmlns:a="http://ns.adobe.com/AdobeSVGViewerExtensions/3.0/"
	 x="0px" y="0px" width="60px" height="60px" viewBox="0 0 60 60" style="overflow:scroll;enable-background:new 0 0 60 60;"
	 xml:space="preserve">
<defs>
</defs>
<g>
	<circle style="opacity:0.4;fill:#EDD721;" cx="30" cy="30" r="30"/>
	<circle style="fill:#EDD721;" cx="30" cy="30" r="25"/>
	<g>
		<path style="fill:#FFFFFF;" d="M38.678,18.881c-0.586,0-1.173,0.136-1.704,0.395C35.038,17.859,32.652,17,30.061,17
			c-1.473,0-2.877,0.273-4.172,0.777c-0.45,0.177-0.995,0.736-0.655,1.568c0.382,0.913,1.5,0.518,1.5,0.518
			c1.063-0.409,2.195-0.613,3.34-0.613c1.868,0,3.695,0.559,5.249,1.595c-0.341,0.586-0.518,1.254-0.518,1.936
			c0,2.14,1.745,3.886,3.886,3.886c2.14,0,3.886-1.745,3.886-3.886C42.564,20.627,40.832,18.881,38.678,18.881L38.678,18.881z
			 M38.678,24.499c-0.954,0-1.732-0.777-1.732-1.732c0-0.954,0.777-1.732,1.732-1.732c0.954,0,1.732,0.777,1.732,1.732
			C40.41,23.722,39.632,24.499,38.678,24.499L38.678,24.499z M38.678,24.499"/>
		<path style="fill:#FFFFFF;" d="M41.678,28.125c-0.027-0.477-0.395-1.173-1.295-1.091c-0.982,0.082-0.941,1.268-0.941,1.268
			c0.054,1.132-0.095,2.277-0.436,3.368c-0.777,2.44-2.468,4.336-4.554,5.44l-0.845,0.382c-0.614-1.336-1.963-2.263-3.531-2.263
			c-2.141,0-3.886,1.745-3.886,3.886S27.934,43,30.075,43c1.95,0,3.559-1.432,3.845-3.313c1.186-0.354,2.468-1.132,2.468-1.132
			c2.181-1.404,3.913-3.545,4.758-6.217C41.582,30.975,41.759,29.543,41.678,28.125L41.678,28.125z M30.061,40.832
			c-0.954,0-1.732-0.777-1.732-1.732c0-0.954,0.777-1.732,1.732-1.732s1.732,0.777,1.732,1.732
			C31.793,40.055,31.016,40.832,30.061,40.832L30.061,40.832z M30.061,40.832"/>
		<path style="fill:#FFFFFF;" d="M24.758,36.442c-0.941-0.654-1.745-1.459-2.386-2.4c-1.459-2.113-1.922-4.608-1.527-6.94
			l0.109-0.45c0.109,0.014,0.232,0.014,0.354,0.014c2.141,0,3.886-1.745,3.886-3.886c0-2.141-1.745-3.899-3.886-3.899
			c-2.14,0-3.886,1.745-3.886,3.886c0,1.241,0.573,2.331,1.473,3.054c-0.273,0.968-0.382,1.922-0.382,1.922
			c-0.218,2.59,0.423,5.263,2.004,7.567c0.832,1.213,1.854,2.222,2.999,2.999c0.395,0.273,1.173,0.395,1.663-0.354
			C25.712,37.124,24.758,36.442,24.758,36.442L24.758,36.442z M19.577,22.767c0-0.954,0.777-1.732,1.731-1.732
			s1.732,0.777,1.732,1.732c0,0.954-0.777,1.732-1.732,1.732S19.577,23.722,19.577,22.767L19.577,22.767z M19.577,22.767"/>
	</g>
</g>
</svg>
