<!-- Generator: Adobe Illustrator 22.0.0, SVG Export Plug-In  -->
<svg version="1.1"
	 xmlns="http://www.w3.org/2000/svg" xmlns:xlink="http://www.w3.org/1999/xlink" xmlns:a="http://ns.adobe.com/AdobeSVGViewerExtensions/3.0/"
	 x="0px" y="0px" width="60px" height="60px" viewBox="0 0 60 60" style="overflow:scroll;enable-background:new 0 0 60 60;"
	 xml:space="preserve">
<defs>
</defs>
<g>
	<circle style="opacity:0.4;fill:#A886E4;" cx="30" cy="30" r="30"/>
	<circle style="fill:#A886E4;" cx="30" cy="30" r="25"/>
	<g>
		<g>
			<defs>
				<rect id="SVGID_1_" x="17.299" y="17" width="25.402" height="26"/>
			</defs>
			<clipPath id="SVGID_2_">
				<use xlink:href="#SVGID_1_"  style="overflow:visible;"/>
			</clipPath>
			<path style="clip-path:url(#SVGID_2_);fill:#FFFFFF;" d="M37.213,33.546c0.088-0.166,0.239-0.289,0.419-0.343
				c0.18-0.054,0.373-0.034,0.538,0.056c0.346,0.194,0.471,0.63,0.281,0.978c-0.991,1.883-2.637,3.338-4.627,4.092
				c-0.077,0.032-0.16,0.048-0.243,0.049c-0.298-0.003-0.563-0.19-0.665-0.47c-0.137-0.371,0.048-0.784,0.416-0.93
				C34.999,36.344,36.379,35.124,37.213,33.546L37.213,33.546z M30.218,33.574L27.91,35.93c-0.492,0.508-1.169,0.794-1.876,0.794
				c-0.707,0-1.384-0.287-1.876-0.794c-1.031-1.07-1.031-2.763,0-3.832l2.297-2.346l0.016-0.011
				c-0.47-1.835,0.046-3.783,1.362-5.146c1.525-1.562,3.864-2.004,5.854-1.108c0.213,0.101,0.364,0.298,0.405,0.53
				c0.038,0.233-0.033,0.471-0.195,0.643l-2.503,2.551l1.297,1.33l2.497-2.557c0.164-0.168,0.401-0.243,0.631-0.199
				c0.23,0.044,0.424,0.199,0.515,0.415c0.877,2.029,0.451,4.385-1.081,5.979C33.949,33.515,32.026,34.047,30.218,33.574
				L30.218,33.574z M35.348,27.871l-2.151,2.2c-0.132,0.135-0.312,0.211-0.5,0.211c-0.188,0-0.369-0.076-0.5-0.211l-2.297-2.346
				c-0.276-0.285-0.276-0.737,0-1.022l2.157-2.2c-0.166-0.024-0.335-0.035-0.503-0.032c-1.023-0.001-2.003,0.41-2.719,1.141
				c-1.06,1.094-1.404,2.697-0.887,4.13c0.116,0.317-0.001,0.672-0.281,0.86c-0.078,0.047-0.149,0.106-0.211,0.173l-2.297,2.351
				c-0.483,0.501-0.483,1.294,0,1.795c0.489,0.476,1.268,0.476,1.757,0l2.297-2.346c0.065-0.066,0.122-0.141,0.168-0.222
				c0.178-0.28,0.526-0.399,0.838-0.287c1.409,0.528,2.997,0.174,4.049-0.903C35.11,30.287,35.507,29.075,35.348,27.871
				L35.348,27.871z M30.007,42.968C23.645,42.89,18.299,38.165,17.44,31.86c-0.058-0.39,0.206-0.755,0.595-0.822
				c0.187-0.028,0.378,0.022,0.529,0.137c0.151,0.115,0.248,0.286,0.271,0.474c0.997,5.915,6.439,10.023,12.402,9.36
				c5.962-0.663,10.369-5.865,10.043-11.855S36.006,18.471,30.007,18.46c-4.226,0.03-8.082,2.415-9.995,6.184l1.995-0.005
				c0.398-0.001,0.723,0.32,0.724,0.719c0.001,0.398-0.32,0.723-0.719,0.724l-3.989,0.016c-0.189,0-0.37-0.076-0.503-0.211
				c-0.131-0.137-0.205-0.319-0.205-0.508l-0.016-4.362c-0.002-0.393,0.31-0.715,0.703-0.724h0.005
				c0.392,0.005,0.707,0.327,0.703,0.719l0.011,3.049c2.137-4.284,6.499-7.006,11.287-7.043c7,0,12.698,5.822,12.698,12.979
				C42.705,37.152,37.008,42.968,30.007,42.968L30.007,42.968z M30.007,42.968"/>
		</g>
	</g>
</g>
</svg>
