<!-- Generator: Adobe Illustrator 22.0.0, SVG Export Plug-In  -->
<svg version="1.1"
	 xmlns="http://www.w3.org/2000/svg" xmlns:xlink="http://www.w3.org/1999/xlink" xmlns:a="http://ns.adobe.com/AdobeSVGViewerExtensions/3.0/"
	 x="0px" y="0px" width="60px" height="60px" viewBox="0 0 60 60" style="overflow:scroll;enable-background:new 0 0 60 60;"
	 xml:space="preserve">
<defs>
</defs>
<g>
	<circle style="opacity:0.4;fill:#F56C6C;" cx="30" cy="30" r="30"/>
	<circle style="fill:#F56C6C;" cx="30" cy="30" r="25"/>
	<g>
		<g>
			<defs>
				<rect id="SVGID_1_" x="17.51" y="17" width="24.98" height="26"/>
			</defs>
			<clipPath id="SVGID_2_">
				<use xlink:href="#SVGID_1_"  style="overflow:visible;"/>
			</clipPath>
			<path style="clip-path:url(#SVGID_2_);fill:#FFFFFF;" d="M42.155,29.29l-4.99-4.99c-0.399-0.399-0.998-0.399-1.397,0
				c-0.399,0.399-0.399,0.998,0,1.397l3.293,3.293h-9.581c-0.599,0-0.998,0.399-0.998,0.998c0,0.599,0.399,0.998,0.998,0.998h9.581
				l-3.293,3.293c-0.399,0.399-0.399,0.998,0,1.397c0.2,0.2,0.399,0.299,0.698,0.299c0.299,0,0.499-0.1,0.699-0.299l4.99-5.09
				c0,0,0-0.1,0.1-0.1C42.554,30.189,42.554,29.59,42.155,29.29L42.155,29.29z M39.46,36.975c-0.599,0-0.998,0.399-0.998,0.998
				v1.996c0,0.599-0.399,0.998-0.998,0.998H20.499c-0.599,0-0.998-0.399-0.998-0.998V20.01c0-0.599,0.399-0.998,0.998-0.998h16.965
				c0.599,0,0.998,0.399,0.998,0.998v1.996c0,0.599,0.399,0.998,0.998,0.998c0.599,0,0.998-0.399,0.998-0.998V20.01
				c0-1.697-1.297-2.994-2.994-2.994H20.499c-1.697,0-2.994,1.297-2.994,2.994v19.959c0,1.696,1.297,2.994,2.994,2.994h16.965
				c1.697,0,2.994-1.297,2.994-2.994v-1.996C40.458,37.374,40.059,36.975,39.46,36.975L39.46,36.975z M39.46,36.975"/>
		</g>
	</g>
</g>
</svg>
