<!-- Generator: Adobe Illustrator 22.0.0, SVG Export Plug-In  -->
<svg version="1.1"
	 xmlns="http://www.w3.org/2000/svg" xmlns:xlink="http://www.w3.org/1999/xlink" xmlns:a="http://ns.adobe.com/AdobeSVGViewerExtensions/3.0/"
	 x="0px" y="0px" width="60px" height="60px" viewBox="0 0 60 60" style="overflow:scroll;enable-background:new 0 0 60 60;"
	 xml:space="preserve">
<defs>
</defs>
<g>
	<circle style="opacity:0.4;fill:#E6A23C;" cx="30" cy="30" r="30"/>
	<circle style="fill:#E6A23C;" cx="30" cy="30" r="25"/>
	<g>
		<g>
			<defs>
				<rect id="SVGID_1_" x="17" y="17.278" width="26" height="25.443"/>
			</defs>
			<clipPath id="SVGID_2_">
				<use xlink:href="#SVGID_1_"  style="overflow:visible;"/>
			</clipPath>
			<path style="clip-path:url(#SVGID_2_);fill:#FFFFFF;" d="M31.458,32.284c-0.045-0.094-0.045-0.187,0-0.281l1.637-2.011
				c0.281-0.326,0.326-0.794,0.139-1.217c-0.187-0.42-0.607-0.655-1.03-0.655h-4.493c-0.468,0-0.842,0.233-1.03,0.655
				c-0.187,0.42-0.139,0.888,0.139,1.217l1.637,2.011c0.046,0.094,0.046,0.187,0,0.281l-1.637,2.011
				c-0.281,0.326-0.326,0.794-0.139,1.217c0.187,0.42,0.607,0.655,1.03,0.655h4.493c0.468,0,0.842-0.233,1.03-0.655
				c0.187-0.42,0.139-0.888-0.139-1.217L31.458,32.284z M28.297,34.75l1.043-1.343l0.519-0.655h-0.003
				c0.233-0.468,0.139-1.03-0.187-1.449L28.3,29.559h3.375L30.3,31.3c-0.326,0.42-0.374,0.982-0.187,1.449l0.631,0.794l0.003,0.003
				l0.925,1.182L28.297,34.75z M28.297,34.75"/>
			<path style="clip-path:url(#SVGID_2_);fill:#FFFFFF;" d="M37.567,42.69H22.411c-1.195,0-2.164-0.933-2.164-2.078V32.3h-1.081
				c-0.85,0-1.607-0.46-1.966-1.204c-0.358-0.743-0.241-1.591,0.31-2.217L28.38,17.97c0.366-0.423,0.968-0.69,1.61-0.69
				c0.639,0,1.241,0.267,1.653,0.738l3.835,3.849l-1.03,1.436l-4.416-4.429L18.605,30.251c0,0-0.206,0.364,0.209,0.492
				c0.217,0.07,1.273,0.011,1.273,0.011c1.196,0,1.789,0.398,1.789,1.543v8.35c0,0.174,0.308,0.497,0.482,0.497h15.226
				c0.332,0,0.516-0.508,0.516-0.508V32.3c0-1.147,0.436-1.543,1.629-1.543h1.297c0.233,0,0.42-0.455,0.152-0.706
				c-0.875-0.875-6.729-6.748-6.729-6.748l1.03-1.436l6.943,6.967c0.596,0.671,0.714,1.522,0.356,2.263
				c-0.358,0.744-1.11,1.204-1.966,1.204H39.73v8.315C39.73,41.76,38.759,42.69,37.567,42.69L37.567,42.69z M37.567,42.69"/>
		</g>
	</g>
</g>
</svg>
