<!-- Generator: Adobe Illustrator 22.0.0, SVG Export Plug-In  -->
<svg version="1.1"
	 xmlns="http://www.w3.org/2000/svg" xmlns:xlink="http://www.w3.org/1999/xlink" xmlns:a="http://ns.adobe.com/AdobeSVGViewerExtensions/3.0/"
	 x="0px" y="0px" width="60px" height="60px" viewBox="0 0 60 60" style="overflow:scroll;enable-background:new 0 0 60 60;"
	 xml:space="preserve">
<defs>
</defs>
<g>
	<circle style="opacity:0.4;fill:#67C23A;" cx="30" cy="30" r="30"/>
	<circle style="fill:#67C23A;" cx="30" cy="30" r="25"/>
	<g>
		<g>
			<defs>
				<rect id="SVGID_1_" x="18.081" y="17" width="23.837" height="26"/>
			</defs>
			<clipPath id="SVGID_2_">
				<use xlink:href="#SVGID_1_"  style="overflow:visible;"/>
			</clipPath>
			<path style="clip-path:url(#SVGID_2_);fill:#FFFFFF;" d="M30.324,28.364c2.59,0,4.709-2.119,4.709-4.709
				c0-2.59-2.119-4.709-4.709-4.709c-2.59,0-4.709,2.119-4.709,4.709C25.615,26.245,27.687,28.364,30.324,28.364L30.324,28.364z
				 M35.362,40.653l4.897-5.839c0.33-0.377,0.942-0.471,1.318-0.094c0.377,0.377,0.471,0.942,0.094,1.318l-5.415,6.498l-0.047,0.047
				c0,0,0,0.047-0.047,0.047c-0.33,0.377-0.942,0.471-1.318,0.094l-2.872-2.401c-0.377-0.33-0.471-0.942-0.094-1.318
				c0.377-0.377,0.942-0.471,1.318-0.094L35.362,40.653z M38.375,30.907c0.235,0.188,0.424,0.471,0.424,0.753
				c0,0.518-0.424,0.942-0.942,0.942c-0.236,0-0.424-0.094-0.612-0.235c-1.648-1.366-3.72-2.166-5.98-2.166h-1.883
				c-5.179,0-9.417,4.238-9.417,9.417c0,0.518,0.424,0.942,0.942,0.942h7.534c0.518,0,0.942,0.424,0.942,0.942
				c0,0.518-0.424,0.942-0.942,0.942h-7.534c-1.554,0-2.825-1.271-2.825-2.825c0-5.132,3.437-9.464,8.146-10.83
				c-1.507-1.224-2.495-3.061-2.495-5.179c0-3.626,2.966-6.592,6.592-6.592c3.626,0,6.592,2.966,6.592,6.592
				c0,2.072-0.989,3.955-2.496,5.179C35.88,29.258,37.198,29.965,38.375,30.907L38.375,30.907z M38.375,30.907"/>
		</g>
	</g>
</g>
</svg>
