<!-- Generator: Adobe Illustrator 22.0.0, SVG Export Plug-In  -->
<svg version="1.1"
	 xmlns="http://www.w3.org/2000/svg" xmlns:xlink="http://www.w3.org/1999/xlink" xmlns:a="http://ns.adobe.com/AdobeSVGViewerExtensions/3.0/"
	 x="0px" y="0px" width="60px" height="60px" viewBox="0 0 60 60" style="overflow:scroll;enable-background:new 0 0 60 60;"
	 xml:space="preserve">
<defs>
</defs>
<g>
	<circle style="opacity:0.4;fill:#A886E4;" cx="30" cy="30" r="30"/>
	<circle style="fill:#A886E4;" cx="30" cy="30" r="25"/>
	<g>
		<path style="fill:#FFFFFF;" d="M30,17c-7.176,0-13,5.824-13,13s5.824,13,13,13c7.176,0,13-5.824,13-13S37.176,17,30,17L30,17z
			 M30,41.267c-6.222,0-11.267-5.044-11.267-11.267S23.778,18.733,30,18.733S41.267,23.778,41.267,30S36.222,41.267,30,41.267
			L30,41.267z M35.876,23.587c0.33-0.331,0.33-0.865,0-1.196c-0.331-0.33-0.865-0.33-1.196,0l-4.697,4.697l-4.645-4.645
			c-0.152-0.158-0.362-0.247-0.581-0.247s-0.429,0.089-0.581,0.247c-0.158,0.152-0.247,0.362-0.247,0.581
			c0,0.219,0.089,0.429,0.247,0.581l4.957,4.957v0.572H24.8c-0.485,0-0.867,0.381-0.867,0.867c0,0.485,0.381,0.867,0.867,0.867
			h4.333v3.467H24.8c-0.485,0-0.867,0.381-0.867,0.867c0,0.485,0.381,0.867,0.867,0.867h4.333v2.6c0,0.485,0.381,0.867,0.867,0.867
			c0.485,0,0.867-0.381,0.867-0.867v-2.6H35.2c0.485,0,0.867-0.381,0.867-0.867c0-0.485-0.381-0.867-0.867-0.867h-4.333v-3.467H35.2
			c0.485,0,0.867-0.381,0.867-0.867c0-0.485-0.381-0.867-0.867-0.867h-4.333v-0.537L35.876,23.587z M35.876,23.587"/>
	</g>
</g>
</svg>
