<!-- Generator: Adobe Illustrator 22.0.0, SVG Export Plug-In  -->
<svg version="1.1"
	 xmlns="http://www.w3.org/2000/svg" xmlns:xlink="http://www.w3.org/1999/xlink" xmlns:a="http://ns.adobe.com/AdobeSVGViewerExtensions/3.0/"
	 x="0px" y="0px" width="60px" height="60px" viewBox="0 0 60 60" style="overflow:scroll;enable-background:new 0 0 60 60;"
	 xml:space="preserve">
<defs>
</defs>
<g>
	<circle style="opacity:0.4;fill:#E37518;" cx="30" cy="30" r="30"/>
	<circle style="fill:#E37518;" cx="30" cy="30" r="25"/>
	<g>
		<path style="fill:#FFFFFF;" d="M38.375,30.906c-1.177-0.942-2.495-1.648-3.955-2.119c1.507-1.224,2.495-3.108,2.495-5.179
			c0-3.625-2.966-6.592-6.592-6.592c-3.626,0-6.592,2.966-6.592,6.592c0,2.119,0.989,3.955,2.495,5.179
			c-4.708,1.366-8.146,5.697-8.146,10.83c0,1.554,1.271,2.825,2.825,2.825h7.534c0.518,0,0.942-0.424,0.942-0.942
			c0-0.518-0.424-0.942-0.942-0.942h-7.534c-0.518,0-0.942-0.424-0.942-0.942c0-5.179,4.238-9.417,9.417-9.417h1.883
			c2.26,0,4.332,0.8,5.98,2.166c0.188,0.141,0.377,0.235,0.612,0.235c0.518,0,0.942-0.424,0.942-0.942
			C38.799,31.377,38.611,31.095,38.375,30.906z M30.324,28.364c-2.637,0-4.708-2.119-4.708-4.709c0-2.59,2.119-4.709,4.708-4.709
			c2.59,0,4.709,2.119,4.709,4.709C35.032,26.245,32.913,28.364,30.324,28.364z"/>
		<path style="fill:#FFFFFF;" d="M38.375,30.907"/>
		<rect x="18.081" y="17" style="fill:none;" width="23.837" height="26"/>
		<g>
			<path style="fill:#FFFFFF;" d="M41.636,36.622l-6.068,6.068c-0.366,0.366-0.966,0.366-1.332,0l0,0
				c-0.366-0.366-0.366-0.966,0-1.332l6.068-6.068c0.366-0.366,0.966-0.366,1.332,0l0,0C42.003,35.656,42.003,36.256,41.636,36.622z
				"/>
			<path style="fill:#FFFFFF;" d="M40.304,42.69l-6.068-6.068c-0.366-0.366-0.366-0.966,0-1.332v0c0.366-0.366,0.966-0.366,1.332,0
				l6.068,6.068c0.366,0.366,0.366,0.966,0,1.332h0C41.27,43.056,40.671,43.056,40.304,42.69z"/>
		</g>
	</g>
</g>
</svg>
