<!-- Generator: Adobe Illustrator 22.0.0, SVG Export Plug-In  -->
<svg version="1.1"
	 xmlns="http://www.w3.org/2000/svg" xmlns:xlink="http://www.w3.org/1999/xlink" xmlns:a="http://ns.adobe.com/AdobeSVGViewerExtensions/3.0/"
	 x="0px" y="0px" width="60px" height="60px" viewBox="0 0 60 60" style="overflow:scroll;enable-background:new 0 0 60 60;"
	 xml:space="preserve">
<defs>
</defs>
<g>
	<circle style="opacity:0.4;fill:#E6A23C;" cx="30" cy="30" r="30"/>
	<circle style="fill:#E6A23C;" cx="30" cy="30" r="25"/>
	<g>
		<g>
			<defs>
				<rect id="SVGID_1_" x="17.02" y="17" width="25.96" height="26"/>
			</defs>
			<clipPath id="SVGID_2_">
				<use xlink:href="#SVGID_1_"  style="overflow:visible;"/>
			</clipPath>
			<path style="clip-path:url(#SVGID_2_);fill:#FFFFFF;" d="M32.409,42.962c-0.507-0.003-0.928-0.386-0.978-0.89
				c-0.054-0.504,0.275-0.966,0.769-1.08c2.901-0.63,5.427-2.403,7.011-4.914c1.612-2.521,2.159-5.576,1.526-8.499
				c-0.902-4.259-4.056-7.552-8.22-8.597c-0.529-0.133-0.852-0.668-0.722-1.2c0.13-0.529,0.662-0.858,1.191-0.735
				c4.908,1.225,8.613,5.098,9.677,10.101c0.741,3.439,0.095,7.036-1.802,10c-0.953,1.504-2.201,2.799-3.667,3.809h0.731
				c0.541,0,0.985,0.446,0.985,0.997c0.003,0.263-0.098,0.516-0.285,0.703c-0.184,0.187-0.437,0.291-0.7,0.294L32.409,42.962z
				 M27.226,42.962c-0.079,0-0.158-0.01-0.234-0.032c-4.908-1.229-8.613-5.098-9.677-10.104c-0.741-3.439-0.095-7.033,1.798-10
				c0.953-1.504,2.201-2.802,3.67-3.812h-0.731c-0.545-0.006-0.985-0.45-0.982-0.994c-0.003-0.263,0.098-0.516,0.282-0.706
				c0.184-0.187,0.437-0.295,0.7-0.295h5.513c0.5,0,0.925,0.386,0.978,0.89c0.054,0.503-0.276,0.966-0.769,1.08
				c-2.904,0.63-5.427,2.403-7.011,4.914c-1.612,2.521-2.16,5.576-1.526,8.499c0.902,4.252,4.056,7.546,8.223,8.588
				c0.532,0.136,0.852,0.674,0.719,1.206C28.074,42.642,27.682,42.956,27.226,42.962L27.226,42.962z M35.234,28.577H24.74
				c-0.684,0-1.238-0.408-1.238-0.912c0-0.5,0.554-0.909,1.238-0.909h10.494c0.684,0,1.238,0.408,1.238,0.909
				C36.472,28.168,35.918,28.577,35.234,28.577L35.234,28.577z M35.234,33.241H24.74c-0.684,0-1.238-0.408-1.238-0.909
				c0-0.503,0.554-0.912,1.238-0.912h10.494c0.684,0,1.238,0.408,1.238,0.909C36.472,32.832,35.918,33.241,35.234,33.241
				L35.234,33.241z M35.234,33.241"/>
		</g>
	</g>
</g>
</svg>
