<!-- Generator: Adobe Illustrator 22.0.0, SVG Export Plug-In  -->
<svg version="1.1"
	 xmlns="http://www.w3.org/2000/svg" xmlns:xlink="http://www.w3.org/1999/xlink" xmlns:a="http://ns.adobe.com/AdobeSVGViewerExtensions/3.0/"
	 x="0px" y="0px" width="60px" height="60px" viewBox="0 0 60 60" style="overflow:scroll;enable-background:new 0 0 60 60;"
	 xml:space="preserve">
<defs>
</defs>
<g>
	<circle style="opacity:0.4;fill:#F56C6C;" cx="30" cy="30" r="30"/>
	<circle style="fill:#F56C6C;" cx="30" cy="30" r="25"/>
	<g>
		<g>
			<defs>
				<rect id="SVGID_1_" x="18" y="18.06" width="24" height="23.881"/>
			</defs>
			<clipPath id="SVGID_2_">
				<use xlink:href="#SVGID_1_"  style="overflow:visible;"/>
			</clipPath>
			<path style="clip-path:url(#SVGID_2_);fill:#FFFFFF;" d="M39.729,18.081h-9.892v1.499h9.892c0.4,0,0.749,0.35,0.749,0.749v19.335
				c0,0.4-0.35,0.749-0.749,0.749H20.245c-0.4,0-0.749-0.35-0.749-0.749V29.422h-1.499v10.242c0,1.249,0.999,2.248,2.248,2.248
				h19.485c1.249,0,2.248-0.999,2.248-2.248V20.329C41.978,19.08,40.979,18.081,39.729,18.081L39.729,18.081z M18.996,22.677h1.899
				v1.899c0,0.4,0.35,0.749,0.749,0.749s0.749-0.35,0.749-0.749v-1.899h1.848c0.4,0,0.749-0.35,0.749-0.749
				c0-0.4-0.35-0.749-0.749-0.749h-1.898V19.33c0-0.4-0.35-0.749-0.749-0.749c-0.4,0-0.749,0.3-0.749,0.749v1.898h-1.849
				c-0.4-0.05-0.749,0.3-0.749,0.699C18.246,22.327,18.596,22.677,18.996,22.677L18.996,22.677z M18.996,22.677"/>
		</g>
		<path style="fill:#FFFFFF;" d="M35.333,36.017V24.676c0-0.4-0.35-0.749-0.749-0.749c-0.4,0-0.749,0.35-0.749,0.749v11.391
			c0,0.4,0.35,0.749,0.749,0.749C34.983,36.816,35.333,36.466,35.333,36.017L35.333,36.017z M29.138,36.816
			c0.4,0,0.749-0.35,0.749-0.749v-6.395c0-0.4-0.35-0.749-0.749-0.749c-0.4,0-0.749,0.35-0.749,0.749v6.395
			C28.338,36.466,28.688,36.816,29.138,36.816L29.138,36.816z M24.142,32.42c-0.4,0-0.749,0.35-0.749,0.749v2.898
			c0,0.4,0.35,0.749,0.749,0.749c0.4,0,0.749-0.35,0.749-0.749v-2.898C24.841,32.769,24.541,32.42,24.142,32.42L24.142,32.42z
			 M24.142,32.42"/>
	</g>
</g>
</svg>
