<!-- Generator: Adobe Illustrator 22.0.0, SVG Export Plug-In  -->
<svg version="1.1"
	 xmlns="http://www.w3.org/2000/svg" xmlns:xlink="http://www.w3.org/1999/xlink" xmlns:a="http://ns.adobe.com/AdobeSVGViewerExtensions/3.0/"
	 x="0px" y="0px" width="60px" height="60px" viewBox="0 0 60 60" style="overflow:scroll;enable-background:new 0 0 60 60;"
	 xml:space="preserve">
<defs>
</defs>
<g>
	<circle style="opacity:0.4;fill:#7EDBD0;" cx="30" cy="30" r="30"/>
	<circle style="fill:#7EDBD0;" cx="30" cy="30" r="25"/>
	<g>
		<path style="fill:#FFFFFF;" d="M28.43,40.834l-8.22-0.102c-0.71,0-1.55-0.84-1.55-1.55V39.14c0.015-1.153,0.253-2.293,0.7-3.356
			c0.434-1.04,1.052-1.993,1.824-2.815c0.758-0.813,1.659-1.48,2.659-1.967c0.999-0.489,2.087-0.767,3.198-0.816l1.257,0.015h0.011
			c0.741-0.049,2.566-0.251,3.521-1.068l0.356-0.271l0.003-0.002c0.78-0.615,1.416-1.392,1.863-2.279
			c0.447-0.886,0.685-1.863,0.696-2.855c0.022-1.736-0.646-3.382-1.879-4.635c-1.136-1.158-2.658-1.859-4.276-1.97l0.015-0.012
			l-0.421-0.005c-0.84-0.01-1.674,0.156-2.446,0.487c-0.764,0.326-1.459,0.795-2.047,1.383c-1.243,1.235-1.943,2.87-1.971,4.605
			c-0.017,0.991,0.194,1.972,0.618,2.868c0.418,0.886,1.026,1.668,1.808,2.325l0.008,0.007l0.205,0.125l-0.185,0.069
			c-2.073,0.776-3.867,2.155-5.15,3.96c-1.292,1.809-1.998,3.97-2.024,6.192v0.07c0.001,1.756,1.424,3.179,3.18,3.18l8.219,0.101
			c0.537,0,0.864-0.292,0.878-0.783c0.006-0.269-0.064-0.481-0.21-0.63C28.922,40.914,28.699,40.834,28.43,40.834L28.43,40.834z
			 M24.885,20.164c0.928-0.903,2.142-1.399,3.419-1.399h0.054c1.296,0.014,2.515,0.543,3.435,1.488
			c0.92,0.945,1.413,2.176,1.393,3.471c-0.02,1.295-0.551,2.517-1.492,3.435c-0.923,0.9-2.122,1.393-3.385,1.393h-0.082
			c-1.296-0.015-2.516-0.543-3.435-1.488c-0.919-0.945-1.413-2.176-1.391-3.472C23.413,22.299,23.94,21.082,24.885,20.164
			L24.885,20.164z M33.962,42.845h0.02c0.563,0,0.826-0.29,0.905-0.4c0.445-0.435,0.802-0.654,1.061-0.654h0.006
			c0.303,0.004,0.887,0.432,1.041,0.669l0.008,0.012l0.01,0.01c0.261,0.266,0.573,0.409,0.905,0.413
			c0.183,0.003,0.303,0.004,0.515-0.098l1.636-0.88l0.016-0.01c0.432-0.314,0.615-0.923,0.427-1.417
			c-0.048-0.159-0.073-0.325-0.075-0.491v-0.003c0-0.705,0.572-1.277,1.277-1.277h0.134c0.425,0,0.841-0.397,0.952-0.909
			c0.016-0.061,0.193-0.755,0.201-1.377v-0.029l-0.01-0.026c-0.17-0.44-0.245-1.144-0.244-1.209v-0.035l-0.007-0.014
			c-0.103-0.51-0.51-0.911-0.936-0.916h-0.09c-0.705-0.001-1.276-0.572-1.277-1.277v-0.036c0-0.087,0.032-0.215,0.058-0.319
			c0.016-0.062,0.029-0.124,0.038-0.187c0.189-0.485,0.021-1.087-0.397-1.41l-1.654-0.949l-0.487-0.006
			c-0.575-0.009-0.845,0.288-0.925,0.399c-0.192,0.184-0.682,0.566-0.971,0.566h-0.006c-0.245-0.003-0.638-0.295-0.9-0.488
			c-0.062-0.045-0.12-0.089-0.17-0.124c-0.259-0.259-0.568-0.399-0.895-0.403c-0.183-0.003-0.317-0.004-0.446,0.11l-1.702,0.868
			l-0.01,0.005l-0.009,0.007c-0.431,0.315-0.614,0.923-0.427,1.417c0.048,0.16,0.074,0.326,0.075,0.493
			c0,0.705-0.572,1.277-1.277,1.277h-0.125c-0.43-0.006-0.851,0.395-0.962,0.912l-0.003,0.015v0.013
			c-0.002,0.021-0.019,0.096-0.033,0.162c-0.055,0.251-0.158,0.717-0.164,1.184c-0.004,0.293,0.032,1.15,0.17,1.406
			c0.106,0.507,0.511,0.904,0.935,0.91h0.09c0.705,0,1.277,0.572,1.277,1.277v0.037c0,0.087-0.032,0.216-0.058,0.319
			c-0.016,0.061-0.029,0.124-0.038,0.187c-0.189,0.485-0.021,1.087,0.397,1.409c0,0,1.231,0.711,1.683,0.833
			C33.614,42.843,33.962,42.845,33.962,42.845L33.962,42.845z M38.928,40.811l-0.965,0.504l-0.379-0.389l-0.012-0.008
			c-0.595-0.408-1.058-0.577-1.601-0.584h-0.023c-0.487,0-1.051,0.192-1.592,0.543l-0.012,0.008l-0.01,0.01
			c-0.057,0.054-0.117,0.106-0.18,0.155c-0.079,0.059-0.152,0.126-0.217,0.199l-0.844-0.508c0.09-0.239,0.141-0.491,0.151-0.747
			c0.018-1.391-0.967-2.596-2.309-2.851c-0.006-0.06-0.015-0.127-0.024-0.2c-0.03-0.191-0.045-0.383-0.048-0.577
			c0.007-0.144,0.023-0.287,0.049-0.429c0.018-0.116,0.037-0.232,0.046-0.345c1.388-0.222,2.36-1.353,2.379-2.791
			c-0.003-0.254-0.047-0.506-0.13-0.746l0.966-0.505c0.1,0.099,0.246,0.232,0.398,0.313c0.575,0.393,1.039,0.572,1.504,0.578
			c0.464,0.006,0.935-0.161,1.525-0.543l0.012-0.008l0.01-0.01c0.087-0.082,0.181-0.156,0.281-0.221
			c0.032-0.022,0.061-0.042,0.088-0.062l0.96,0.533c-0.09,0.238-0.14,0.489-0.15,0.743c-0.018,1.391,0.967,2.596,2.309,2.851
			c0.006,0.058,0.015,0.126,0.024,0.198c0.03,0.191,0.046,0.384,0.048,0.578v0.023l0.007,0.022c0.05,0.155,0.027,0.36,0.006,0.559
			c-0.006,0.058-0.013,0.116-0.017,0.171c-1.388,0.222-2.36,1.353-2.379,2.79C38.801,40.319,38.845,40.571,38.928,40.811
			L38.928,40.811z M36.532,33.872c-0.836-0.187-1.71,0.06-2.325,0.656c-0.645,0.622-0.929,1.535-0.762,2.437
			c0.176,1.045,1.025,1.915,2.064,2.12c0.847,0.186,1.731-0.066,2.352-0.671c0.621-0.605,0.897-1.482,0.733-2.333
			C38.423,34.968,37.594,34.081,36.532,33.872L36.532,33.872z M37.046,36.448c-0.005,0.271-0.118,0.529-0.315,0.716
			c-0.186,0.183-0.435,0.289-0.696,0.296h-0.027c-0.546-0.007-1.019-0.493-1.012-1.038c0.018-0.557,0.469-1.001,1.026-1.012h0.012
			c0.562,0.019,1.008,0.478,1.012,1.04L37.046,36.448z M37.046,36.448"/>
	</g>
</g>
</svg>
