<!-- Generator: Adobe Illustrator 22.0.0, SVG Export Plug-In  -->
<svg version="1.1"
	 xmlns="http://www.w3.org/2000/svg" xmlns:xlink="http://www.w3.org/1999/xlink" xmlns:a="http://ns.adobe.com/AdobeSVGViewerExtensions/3.0/"
	 x="0px" y="0px" width="60px" height="60px" viewBox="0 0 60 60" style="overflow:scroll;enable-background:new 0 0 60 60;"
	 xml:space="preserve">
<defs>
</defs>
<g>
	<circle style="opacity:0.4;fill:#7EDBD0;" cx="30" cy="30" r="30"/>
	<circle style="fill:#7EDBD0;" cx="30" cy="30" r="25"/>
	<g>
		<g>
			<defs>
				<rect id="SVGID_1_" x="17.237" y="17" width="25.526" height="26"/>
			</defs>
			<clipPath id="SVGID_2_">
				<use xlink:href="#SVGID_1_"  style="overflow:visible;"/>
			</clipPath>
			<path style="clip-path:url(#SVGID_2_);fill:#FFFFFF;" d="M35.985,30.818c1.796,0,3.48-0.719,4.76-2.021
				c0.965-0.988,1.617-2.223,1.864-3.593c0.247-1.325,0.112-2.695-0.404-3.929c-0.09-0.202-0.269-0.359-0.494-0.404
				c-0.045-0.022-0.09-0.022-0.135-0.022c-0.18,0-0.359,0.067-0.494,0.202l-3.458,3.48l-2.358-2.402l3.48-3.503
				c0.157-0.157,0.225-0.382,0.18-0.606c-0.045-0.225-0.202-0.404-0.404-0.494c-0.808-0.337-1.684-0.516-2.56-0.516
				c-1.819,0-3.525,0.719-4.805,2.021c-1.145,1.168-1.841,2.717-1.954,4.378c-0.112,1.415,0.225,2.829,0.943,4.042l-0.912,0.781
				c-0.026-0.131-0.088-0.255-0.188-0.355l-4.962-5.097l-0.023-1.639c0-0.225-0.112-0.427-0.314-0.561l-3.66-2.29
				c-0.112-0.067-0.224-0.112-0.359-0.112c-0.18,0-0.359,0.067-0.494,0.202l-1.796,1.819c-0.224,0.225-0.269,0.584-0.112,0.853
				l2.223,3.638c0.112,0.202,0.337,0.337,0.584,0.337h1.639l4.828,4.918c0.114,0.114,0.26,0.176,0.411,0.194l-8.741,7.485
				l-0.045,0.045c-0.988,1.01-0.988,2.65,0,3.66L18.897,42c0.494,0.494,1.123,0.763,1.819,0.763c0.674,0,1.325-0.27,1.819-0.763
				l7.604-8.491c0.032,0.099,0.085,0.193,0.165,0.272l0.202,0.202l-0.18,0.18c-0.629,0.651-0.629,1.684,0,2.313l5.816,5.995
				c0.292,0.314,0.719,0.494,1.145,0.494c0.449,0,0.853-0.18,1.145-0.494l2.65-2.717c0.629-0.629,0.629-1.684,0-2.313l-5.816-5.995
				c-0.292-0.314-0.719-0.494-1.145-0.494s-0.831,0.18-1.145,0.494l-0.225,0.225l-0.135-0.135c-0.135-0.135-0.314-0.202-0.494-0.202
				c-0.013,0-0.026,0.003-0.039,0.004l1.049-1.171C34.009,30.593,34.997,30.818,35.985,30.818L35.985,30.818z M27.565,28.976
				l-5.03-5.12c-0.135-0.135-0.314-0.202-0.494-0.202h-1.527l-1.751-2.874l1.033-1.055l2.874,1.796l0.022,1.549
				c0,0.18,0.09,0.337,0.202,0.471l5.187,5.299c0.074,0.074,0.162,0.125,0.255,0.159l-0.571,0.489c0-0.006,0.002-0.013,0.002-0.019
				C27.767,29.291,27.699,29.111,27.565,28.976L27.565,28.976z M20.065,39.552c0.045-0.045,0.112-0.067,0.18-0.067
				c0.068,0,0.135,0.022,0.18,0.067c0.054,0.053,0.084,0.126,0.084,0.202c0,0.076-0.03,0.149-0.084,0.202
				c-0.045,0.045-0.112,0.067-0.18,0.067c-0.067,0-0.135-0.022-0.18-0.067c-0.054-0.053-0.084-0.126-0.084-0.202
				C19.981,39.678,20.011,39.606,20.065,39.552L20.065,39.552z M31.651,32.502l0.584,0.651c0.135,0.135,0.314,0.202,0.494,0.202
				s0.359-0.067,0.494-0.202l0.719-0.741c0.045-0.045,0.112-0.067,0.18-0.067c0.067,0,0.135,0.022,0.18,0.067l5.838,5.995
				c0.054,0.053,0.084,0.126,0.084,0.202c0,0.076-0.03,0.149-0.084,0.202l-2.65,2.717c-0.045,0.045-0.112,0.067-0.179,0.067
				c-0.068,0-0.135-0.022-0.18-0.067l-5.816-5.995c-0.054-0.053-0.084-0.126-0.084-0.202s0.03-0.149,0.084-0.202l0.651-0.674
				c0.247-0.269,0.269-0.696,0-0.966l-0.674-0.674c-0.102-0.102-0.229-0.165-0.362-0.19l0.522-0.583
				C31.461,32.211,31.525,32.376,31.651,32.502L31.651,32.502z M32.46,28.842L21.547,41.034c-0.225,0.225-0.516,0.359-0.831,0.359
				c-0.071,0-0.14-0.008-0.208-0.021c0.343-0.051,0.648-0.204,0.882-0.473c0.629-0.629,0.629-1.684,0-2.313
				c-0.292-0.314-0.719-0.494-1.145-0.494c-0.188,0-0.371,0.037-0.545,0.103l11.817-10.095c0.27-0.225,0.315-0.629,0.112-0.921
				c-1.594-2.223-1.392-5.254,0.516-7.185c1.01-1.033,2.38-1.617,3.817-1.617c0.337,0,0.674,0.023,1.01,0.09l-3.144,3.166
				c-0.269,0.269-0.269,0.696,0,0.965l3.278,3.391c0.135,0.135,0.314,0.202,0.494,0.202c0.18,0,0.359-0.067,0.494-0.202l3.144-3.166
				c0.359,1.819-0.202,3.682-1.482,5.007c-1.011,1.033-2.335,1.594-3.772,1.594c-0.943,0-1.864-0.247-2.672-0.719
				c-0.09-0.067-0.224-0.09-0.337-0.09C32.774,28.617,32.594,28.707,32.46,28.842L32.46,28.842z M32.46,28.842"/>
		</g>
	</g>
</g>
</svg>
