<!-- Generator: Adobe Illustrator 22.0.0, SVG Export Plug-In  -->
<svg version="1.1"
	 xmlns="http://www.w3.org/2000/svg" xmlns:xlink="http://www.w3.org/1999/xlink" xmlns:a="http://ns.adobe.com/AdobeSVGViewerExtensions/3.0/"
	 x="0px" y="0px" width="60px" height="60px" viewBox="0 0 60 60" style="overflow:scroll;enable-background:new 0 0 60 60;"
	 xml:space="preserve">
<defs>
</defs>
<g>
	<circle style="opacity:0.4;fill:#F56C6C;" cx="30" cy="30" r="30"/>
	<circle style="fill:#F56C6C;" cx="30" cy="30" r="25"/>
	<g>
		<g>
			<defs>
				<rect id="SVGID_1_" x="17.017" y="17" width="25.965" height="26"/>
			</defs>
			<clipPath id="SVGID_2_">
				<use xlink:href="#SVGID_1_"  style="overflow:visible;"/>
			</clipPath>
			<path style="clip-path:url(#SVGID_2_);fill:#FFFFFF;" d="M23.511,27.48l-2.509,2.511c-2.449,2.488-2.433,6.486,0.035,8.955
				c2.468,2.469,6.466,2.486,8.955,0.038l2.475-2.476l1.498,1.498l-2.476,2.475c-3.311,3.311-8.68,3.31-11.99-0.001
				c-3.311-3.311-3.31-8.68,0.001-11.99l2.518-2.514l1.492,1.505V27.48z M26.474,21.52l2.02-2.02
				c2.142-2.142,5.263-2.978,8.189-2.194c2.926,0.784,5.211,3.069,5.995,5.995c0.784,2.926-0.053,6.047-2.194,8.189l-2.024,2.024
				l-1.498-1.498l2.024-2.024c1.606-1.606,2.234-3.948,1.646-6.142c-0.588-2.194-2.302-3.908-4.496-4.496
				c-2.194-0.588-4.536,0.039-6.142,1.646l-2.02,2.02L26.474,21.52z M21.555,22.387l15.736,15.736
				c0.268,0.268,0.658,0.372,1.024,0.274c0.366-0.098,0.651-0.384,0.749-0.75c0.098-0.366-0.007-0.756-0.275-1.024L23.053,20.889
				c-0.416-0.401-1.077-0.396-1.485,0.013C21.159,21.311,21.153,21.971,21.555,22.387L21.555,22.387z M21.555,22.387"/>
		</g>
	</g>
</g>
</svg>
