<!-- Generator: Adobe Illustrator 22.0.0, SVG Export Plug-In  -->
<svg version="1.1"
	 xmlns="http://www.w3.org/2000/svg" xmlns:xlink="http://www.w3.org/1999/xlink" xmlns:a="http://ns.adobe.com/AdobeSVGViewerExtensions/3.0/"
	 x="0px" y="0px" width="60px" height="60px" viewBox="0 0 60 60" style="overflow:scroll;enable-background:new 0 0 60 60;"
	 xml:space="preserve">
<defs>
</defs>
<g>
	<circle style="opacity:0.4;fill:#A886E4;" cx="30" cy="30" r="30"/>
	<circle style="fill:#A886E4;" cx="30" cy="30" r="25"/>
	<g>
		<path style="fill:#FFFFFF;" d="M37.072,29.196c-3.803,0-6.892,3.076-6.892,6.892c0,3.803,3.09,6.892,6.892,6.892
			c3.817,0,6.906-3.09,6.892-6.892C43.964,32.286,40.874,29.196,37.072,29.196z M37.072,41.345c-2.908,0-5.271-2.363-5.271-5.271
			s2.363-5.271,5.271-5.271c2.922,0,5.271,2.363,5.271,5.271S39.979,41.345,37.072,41.345z"/>
		<path style="fill:#FFFFFF;" d="M39.923,19.452c0-0.447-0.363-0.811-0.811-0.811H20.449c-0.447,0-0.811,0.364-0.811,0.811v21.096
			c0,0.447,0.364,0.811,0.811,0.811h8.109v1.622h-8.92c-0.895,0-1.622-0.727-1.622-1.622V18.641c0-0.895,0.727-1.622,1.622-1.622
			h20.285c0.895,0,1.622,0.727,1.622,1.622v7.298h-1.622V19.452z"/>
		<path style="fill:#FFFFFF;" d="M24.098,34.858h3.243c0.224,0,0.405,0.182,0.405,0.405v0.811c0,0.224-0.182,0.405-0.405,0.405
			h-3.243c-0.224,0-0.405-0.182-0.405-0.405v-0.811C23.692,35.04,23.874,34.858,24.098,34.858"/>
		<path style="fill:#FFFFFF;" d="M23.692,24.722v-0.811c0-0.224,0.182-0.405,0.405-0.405h12.163c0.224,0,0.405,0.182,0.405,0.405
			v0.811c0,0.224-0.182,0.405-0.405,0.405H24.098C23.874,25.128,23.692,24.946,23.692,24.722"/>
		<path style="fill:#FFFFFF;" d="M23.692,30.398v-0.811c0-0.224,0.182-0.405,0.405-0.405h5.676c0.224,0,0.405,0.182,0.405,0.405
			v0.811c0,0.224-0.182,0.405-0.405,0.405h-5.676C23.874,30.804,23.692,30.622,23.692,30.398"/>
		<g>
			<path style="fill:#FFFFFF;" d="M34.711,39.022l-0.573-0.573c-0.158-0.158-0.158-0.415,0-0.573l4.721-4.721
				c0.158-0.158,0.415-0.158,0.573,0l0.573,0.573c0.158,0.158,0.158,0.415,0,0.573l-4.721,4.721
				C35.126,39.18,34.869,39.18,34.711,39.022"/>
			<path style="fill:#FFFFFF;" d="M34.138,33.728l0.573-0.573c0.158-0.158,0.415-0.158,0.573,0l4.721,4.721
				c0.158,0.158,0.158,0.415,0,0.573l-0.573,0.573c-0.158,0.158-0.415,0.158-0.573,0l-4.721-4.721
				C33.98,34.143,33.98,33.886,34.138,33.728"/>
		</g>
		<rect x="18.016" y="17" style="fill:none;" width="25.967" height="26"/>
	</g>
</g>
</svg>
